%TF.GenerationSoftware,KiCad,Pcbnew,(6.0.11)*%
%TF.CreationDate,2023-02-03T17:21:08+09:00*%
%TF.ProjectId,12V_Dual_5V_PSU,3132565f-4475-4616-9c5f-35565f505355,Ver. 1.1*%
%TF.SameCoordinates,Original*%
%TF.FileFunction,Drillmap*%
%TF.FilePolarity,Positive*%
%FSLAX45Y45*%
G04 Gerber Fmt 4.5, Leading zero omitted, Abs format (unit mm)*
G04 Created by KiCad (PCBNEW (6.0.11)) date 2023-02-03 17:21:08*
%MOMM*%
%LPD*%
G01*
G04 APERTURE LIST*
%ADD10C,0.100000*%
%ADD11C,0.200000*%
%ADD12C,0.320000*%
G04 APERTURE END LIST*
D10*
X19558000Y-6604000D02*
X19558000Y-13208000D01*
X9652000Y-6604000D02*
X19558000Y-6604000D01*
X9652000Y-13208000D02*
X9652000Y-6604000D01*
X19558000Y-13208000D02*
X9652000Y-13208000D01*
D11*
D12*
X9746000Y-6712050D02*
X10066000Y-7032050D01*
X10066000Y-6712050D02*
X9746000Y-7032050D01*
X9746000Y-12794000D02*
X10066000Y-13114000D01*
X10066000Y-12794000D02*
X9746000Y-13114000D01*
X19144000Y-6698000D02*
X19464000Y-7018000D01*
X19464000Y-6698000D02*
X19144000Y-7018000D01*
X19144000Y-12794000D02*
X19464000Y-13114000D01*
X19464000Y-12794000D02*
X19144000Y-13114000D01*
D11*
X9904619Y-13523476D02*
X9904619Y-13323476D01*
X9952238Y-13323476D01*
X9980810Y-13333000D01*
X9999857Y-13352048D01*
X10009381Y-13371095D01*
X10018905Y-13409190D01*
X10018905Y-13437762D01*
X10009381Y-13475857D01*
X9999857Y-13494905D01*
X9980810Y-13513952D01*
X9952238Y-13523476D01*
X9904619Y-13523476D01*
X10104619Y-13523476D02*
X10104619Y-13390143D01*
X10104619Y-13428238D02*
X10114143Y-13409190D01*
X10123667Y-13399667D01*
X10142714Y-13390143D01*
X10161762Y-13390143D01*
X10228429Y-13523476D02*
X10228429Y-13390143D01*
X10228429Y-13323476D02*
X10218905Y-13333000D01*
X10228429Y-13342524D01*
X10237952Y-13333000D01*
X10228429Y-13323476D01*
X10228429Y-13342524D01*
X10352238Y-13523476D02*
X10333190Y-13513952D01*
X10323667Y-13494905D01*
X10323667Y-13323476D01*
X10457000Y-13523476D02*
X10437952Y-13513952D01*
X10428429Y-13494905D01*
X10428429Y-13323476D01*
X10685571Y-13523476D02*
X10685571Y-13323476D01*
X10752238Y-13466333D01*
X10818905Y-13323476D01*
X10818905Y-13523476D01*
X10999857Y-13523476D02*
X10999857Y-13418714D01*
X10990333Y-13399667D01*
X10971286Y-13390143D01*
X10933190Y-13390143D01*
X10914143Y-13399667D01*
X10999857Y-13513952D02*
X10980810Y-13523476D01*
X10933190Y-13523476D01*
X10914143Y-13513952D01*
X10904619Y-13494905D01*
X10904619Y-13475857D01*
X10914143Y-13456809D01*
X10933190Y-13447286D01*
X10980810Y-13447286D01*
X10999857Y-13437762D01*
X11095095Y-13390143D02*
X11095095Y-13590143D01*
X11095095Y-13399667D02*
X11114143Y-13390143D01*
X11152238Y-13390143D01*
X11171286Y-13399667D01*
X11180810Y-13409190D01*
X11190333Y-13428238D01*
X11190333Y-13485381D01*
X11180810Y-13504428D01*
X11171286Y-13513952D01*
X11152238Y-13523476D01*
X11114143Y-13523476D01*
X11095095Y-13513952D01*
X11276048Y-13504428D02*
X11285571Y-13513952D01*
X11276048Y-13523476D01*
X11266524Y-13513952D01*
X11276048Y-13504428D01*
X11276048Y-13523476D01*
X11276048Y-13399667D02*
X11285571Y-13409190D01*
X11276048Y-13418714D01*
X11266524Y-13409190D01*
X11276048Y-13399667D01*
X11276048Y-13418714D01*
X9447000Y-13753000D02*
X9647000Y-13953000D01*
X9647000Y-13753000D02*
X9447000Y-13953000D01*
X9885571Y-13743476D02*
X10009381Y-13743476D01*
X9942714Y-13819667D01*
X9971286Y-13819667D01*
X9990333Y-13829190D01*
X9999857Y-13838714D01*
X10009381Y-13857762D01*
X10009381Y-13905381D01*
X9999857Y-13924428D01*
X9990333Y-13933952D01*
X9971286Y-13943476D01*
X9914143Y-13943476D01*
X9895095Y-13933952D01*
X9885571Y-13924428D01*
X10095095Y-13924428D02*
X10104619Y-13933952D01*
X10095095Y-13943476D01*
X10085571Y-13933952D01*
X10095095Y-13924428D01*
X10095095Y-13943476D01*
X10180810Y-13762524D02*
X10190333Y-13753000D01*
X10209381Y-13743476D01*
X10257000Y-13743476D01*
X10276048Y-13753000D01*
X10285571Y-13762524D01*
X10295095Y-13781571D01*
X10295095Y-13800619D01*
X10285571Y-13829190D01*
X10171286Y-13943476D01*
X10295095Y-13943476D01*
X10418905Y-13743476D02*
X10437952Y-13743476D01*
X10457000Y-13753000D01*
X10466524Y-13762524D01*
X10476048Y-13781571D01*
X10485571Y-13819667D01*
X10485571Y-13867286D01*
X10476048Y-13905381D01*
X10466524Y-13924428D01*
X10457000Y-13933952D01*
X10437952Y-13943476D01*
X10418905Y-13943476D01*
X10399857Y-13933952D01*
X10390333Y-13924428D01*
X10380810Y-13905381D01*
X10371286Y-13867286D01*
X10371286Y-13819667D01*
X10380810Y-13781571D01*
X10390333Y-13762524D01*
X10399857Y-13753000D01*
X10418905Y-13743476D01*
X10609381Y-13743476D02*
X10628429Y-13743476D01*
X10647476Y-13753000D01*
X10657000Y-13762524D01*
X10666524Y-13781571D01*
X10676048Y-13819667D01*
X10676048Y-13867286D01*
X10666524Y-13905381D01*
X10657000Y-13924428D01*
X10647476Y-13933952D01*
X10628429Y-13943476D01*
X10609381Y-13943476D01*
X10590333Y-13933952D01*
X10580810Y-13924428D01*
X10571286Y-13905381D01*
X10561762Y-13867286D01*
X10561762Y-13819667D01*
X10571286Y-13781571D01*
X10580810Y-13762524D01*
X10590333Y-13753000D01*
X10609381Y-13743476D01*
X10761762Y-13943476D02*
X10761762Y-13810143D01*
X10761762Y-13829190D02*
X10771286Y-13819667D01*
X10790333Y-13810143D01*
X10818905Y-13810143D01*
X10837952Y-13819667D01*
X10847476Y-13838714D01*
X10847476Y-13943476D01*
X10847476Y-13838714D02*
X10857000Y-13819667D01*
X10876048Y-13810143D01*
X10904619Y-13810143D01*
X10923667Y-13819667D01*
X10933190Y-13838714D01*
X10933190Y-13943476D01*
X11028429Y-13943476D02*
X11028429Y-13810143D01*
X11028429Y-13829190D02*
X11037952Y-13819667D01*
X11057000Y-13810143D01*
X11085571Y-13810143D01*
X11104619Y-13819667D01*
X11114143Y-13838714D01*
X11114143Y-13943476D01*
X11114143Y-13838714D02*
X11123667Y-13819667D01*
X11142714Y-13810143D01*
X11171286Y-13810143D01*
X11190333Y-13819667D01*
X11199857Y-13838714D01*
X11199857Y-13943476D01*
X11590333Y-13733952D02*
X11418905Y-13991095D01*
X11847476Y-13743476D02*
X11866524Y-13743476D01*
X11885571Y-13753000D01*
X11895095Y-13762524D01*
X11904619Y-13781571D01*
X11914143Y-13819667D01*
X11914143Y-13867286D01*
X11904619Y-13905381D01*
X11895095Y-13924428D01*
X11885571Y-13933952D01*
X11866524Y-13943476D01*
X11847476Y-13943476D01*
X11828428Y-13933952D01*
X11818905Y-13924428D01*
X11809381Y-13905381D01*
X11799857Y-13867286D01*
X11799857Y-13819667D01*
X11809381Y-13781571D01*
X11818905Y-13762524D01*
X11828428Y-13753000D01*
X11847476Y-13743476D01*
X11999857Y-13924428D02*
X12009381Y-13933952D01*
X11999857Y-13943476D01*
X11990333Y-13933952D01*
X11999857Y-13924428D01*
X11999857Y-13943476D01*
X12199857Y-13943476D02*
X12085571Y-13943476D01*
X12142714Y-13943476D02*
X12142714Y-13743476D01*
X12123667Y-13772048D01*
X12104619Y-13791095D01*
X12085571Y-13800619D01*
X12276048Y-13762524D02*
X12285571Y-13753000D01*
X12304619Y-13743476D01*
X12352238Y-13743476D01*
X12371286Y-13753000D01*
X12380809Y-13762524D01*
X12390333Y-13781571D01*
X12390333Y-13800619D01*
X12380809Y-13829190D01*
X12266524Y-13943476D01*
X12390333Y-13943476D01*
X12561762Y-13743476D02*
X12523667Y-13743476D01*
X12504619Y-13753000D01*
X12495095Y-13762524D01*
X12476048Y-13791095D01*
X12466524Y-13829190D01*
X12466524Y-13905381D01*
X12476048Y-13924428D01*
X12485571Y-13933952D01*
X12504619Y-13943476D01*
X12542714Y-13943476D01*
X12561762Y-13933952D01*
X12571286Y-13924428D01*
X12580809Y-13905381D01*
X12580809Y-13857762D01*
X12571286Y-13838714D01*
X12561762Y-13829190D01*
X12542714Y-13819667D01*
X12504619Y-13819667D01*
X12485571Y-13829190D01*
X12476048Y-13838714D01*
X12466524Y-13857762D01*
X12704619Y-13743476D02*
X12723667Y-13743476D01*
X12742714Y-13753000D01*
X12752238Y-13762524D01*
X12761762Y-13781571D01*
X12771286Y-13819667D01*
X12771286Y-13867286D01*
X12761762Y-13905381D01*
X12752238Y-13924428D01*
X12742714Y-13933952D01*
X12723667Y-13943476D01*
X12704619Y-13943476D01*
X12685571Y-13933952D01*
X12676048Y-13924428D01*
X12666524Y-13905381D01*
X12657000Y-13867286D01*
X12657000Y-13819667D01*
X12666524Y-13781571D01*
X12676048Y-13762524D01*
X12685571Y-13753000D01*
X12704619Y-13743476D01*
X12847476Y-13743476D02*
X12847476Y-13781571D01*
X12923667Y-13743476D02*
X12923667Y-13781571D01*
X13218905Y-14019667D02*
X13209381Y-14010143D01*
X13190333Y-13981571D01*
X13180809Y-13962524D01*
X13171286Y-13933952D01*
X13161762Y-13886333D01*
X13161762Y-13848238D01*
X13171286Y-13800619D01*
X13180809Y-13772048D01*
X13190333Y-13753000D01*
X13209381Y-13724428D01*
X13218905Y-13714905D01*
X13380809Y-13810143D02*
X13380809Y-13943476D01*
X13333190Y-13733952D02*
X13285571Y-13876809D01*
X13409381Y-13876809D01*
X13637952Y-13943476D02*
X13637952Y-13743476D01*
X13723667Y-13943476D02*
X13723667Y-13838714D01*
X13714143Y-13819667D01*
X13695095Y-13810143D01*
X13666524Y-13810143D01*
X13647476Y-13819667D01*
X13637952Y-13829190D01*
X13847476Y-13943476D02*
X13828428Y-13933952D01*
X13818905Y-13924428D01*
X13809381Y-13905381D01*
X13809381Y-13848238D01*
X13818905Y-13829190D01*
X13828428Y-13819667D01*
X13847476Y-13810143D01*
X13876048Y-13810143D01*
X13895095Y-13819667D01*
X13904619Y-13829190D01*
X13914143Y-13848238D01*
X13914143Y-13905381D01*
X13904619Y-13924428D01*
X13895095Y-13933952D01*
X13876048Y-13943476D01*
X13847476Y-13943476D01*
X14028428Y-13943476D02*
X14009381Y-13933952D01*
X13999857Y-13914905D01*
X13999857Y-13743476D01*
X14180809Y-13933952D02*
X14161762Y-13943476D01*
X14123667Y-13943476D01*
X14104619Y-13933952D01*
X14095095Y-13914905D01*
X14095095Y-13838714D01*
X14104619Y-13819667D01*
X14123667Y-13810143D01*
X14161762Y-13810143D01*
X14180809Y-13819667D01*
X14190333Y-13838714D01*
X14190333Y-13857762D01*
X14095095Y-13876809D01*
X14266524Y-13933952D02*
X14285571Y-13943476D01*
X14323667Y-13943476D01*
X14342714Y-13933952D01*
X14352238Y-13914905D01*
X14352238Y-13905381D01*
X14342714Y-13886333D01*
X14323667Y-13876809D01*
X14295095Y-13876809D01*
X14276048Y-13867286D01*
X14266524Y-13848238D01*
X14266524Y-13838714D01*
X14276048Y-13819667D01*
X14295095Y-13810143D01*
X14323667Y-13810143D01*
X14342714Y-13819667D01*
X14418905Y-14019667D02*
X14428428Y-14010143D01*
X14447476Y-13981571D01*
X14457000Y-13962524D01*
X14466524Y-13933952D01*
X14476048Y-13886333D01*
X14476048Y-13848238D01*
X14466524Y-13800619D01*
X14457000Y-13772048D01*
X14447476Y-13753000D01*
X14428428Y-13724428D01*
X14418905Y-13714905D01*
X14780809Y-14019667D02*
X14771286Y-14010143D01*
X14752238Y-13981571D01*
X14742714Y-13962524D01*
X14733190Y-13933952D01*
X14723667Y-13886333D01*
X14723667Y-13848238D01*
X14733190Y-13800619D01*
X14742714Y-13772048D01*
X14752238Y-13753000D01*
X14771286Y-13724428D01*
X14780809Y-13714905D01*
X14857000Y-13810143D02*
X14857000Y-13943476D01*
X14857000Y-13829190D02*
X14866524Y-13819667D01*
X14885571Y-13810143D01*
X14914143Y-13810143D01*
X14933190Y-13819667D01*
X14942714Y-13838714D01*
X14942714Y-13943476D01*
X15066524Y-13943476D02*
X15047476Y-13933952D01*
X15037952Y-13924428D01*
X15028428Y-13905381D01*
X15028428Y-13848238D01*
X15037952Y-13829190D01*
X15047476Y-13819667D01*
X15066524Y-13810143D01*
X15095095Y-13810143D01*
X15114143Y-13819667D01*
X15123667Y-13829190D01*
X15133190Y-13848238D01*
X15133190Y-13905381D01*
X15123667Y-13924428D01*
X15114143Y-13933952D01*
X15095095Y-13943476D01*
X15066524Y-13943476D01*
X15190333Y-13810143D02*
X15266524Y-13810143D01*
X15218905Y-13743476D02*
X15218905Y-13914905D01*
X15228428Y-13933952D01*
X15247476Y-13943476D01*
X15266524Y-13943476D01*
X15485571Y-13810143D02*
X15485571Y-14010143D01*
X15485571Y-13819667D02*
X15504619Y-13810143D01*
X15542714Y-13810143D01*
X15561762Y-13819667D01*
X15571286Y-13829190D01*
X15580809Y-13848238D01*
X15580809Y-13905381D01*
X15571286Y-13924428D01*
X15561762Y-13933952D01*
X15542714Y-13943476D01*
X15504619Y-13943476D01*
X15485571Y-13933952D01*
X15695095Y-13943476D02*
X15676048Y-13933952D01*
X15666524Y-13914905D01*
X15666524Y-13743476D01*
X15857000Y-13943476D02*
X15857000Y-13838714D01*
X15847476Y-13819667D01*
X15828428Y-13810143D01*
X15790333Y-13810143D01*
X15771286Y-13819667D01*
X15857000Y-13933952D02*
X15837952Y-13943476D01*
X15790333Y-13943476D01*
X15771286Y-13933952D01*
X15761762Y-13914905D01*
X15761762Y-13895857D01*
X15771286Y-13876809D01*
X15790333Y-13867286D01*
X15837952Y-13867286D01*
X15857000Y-13857762D01*
X15923667Y-13810143D02*
X15999857Y-13810143D01*
X15952238Y-13743476D02*
X15952238Y-13914905D01*
X15961762Y-13933952D01*
X15980809Y-13943476D01*
X15999857Y-13943476D01*
X16142714Y-13933952D02*
X16123667Y-13943476D01*
X16085571Y-13943476D01*
X16066524Y-13933952D01*
X16057000Y-13914905D01*
X16057000Y-13838714D01*
X16066524Y-13819667D01*
X16085571Y-13810143D01*
X16123667Y-13810143D01*
X16142714Y-13819667D01*
X16152238Y-13838714D01*
X16152238Y-13857762D01*
X16057000Y-13876809D01*
X16323667Y-13943476D02*
X16323667Y-13743476D01*
X16323667Y-13933952D02*
X16304619Y-13943476D01*
X16266524Y-13943476D01*
X16247476Y-13933952D01*
X16237952Y-13924428D01*
X16228428Y-13905381D01*
X16228428Y-13848238D01*
X16237952Y-13829190D01*
X16247476Y-13819667D01*
X16266524Y-13810143D01*
X16304619Y-13810143D01*
X16323667Y-13819667D01*
X16399857Y-14019667D02*
X16409381Y-14010143D01*
X16428428Y-13981571D01*
X16437952Y-13962524D01*
X16447476Y-13933952D01*
X16457000Y-13886333D01*
X16457000Y-13848238D01*
X16447476Y-13800619D01*
X16437952Y-13772048D01*
X16428428Y-13753000D01*
X16409381Y-13724428D01*
X16399857Y-13714905D01*
M02*
