%TF.GenerationSoftware,KiCad,Pcbnew,(6.0.11)*%
%TF.CreationDate,2023-02-03T17:21:08+09:00*%
%TF.ProjectId,12V_Dual_5V_PSU,3132565f-4475-4616-9c5f-35565f505355,Ver. 1.1*%
%TF.SameCoordinates,Original*%
%TF.FileFunction,Drillmap*%
%TF.FilePolarity,Positive*%
%FSLAX45Y45*%
G04 Gerber Fmt 4.5, Leading zero omitted, Abs format (unit mm)*
G04 Created by KiCad (PCBNEW (6.0.11)) date 2023-02-03 17:21:08*
%MOMM*%
%LPD*%
G01*
G04 APERTURE LIST*
%ADD10C,0.100000*%
%ADD11C,0.200000*%
%ADD12C,0.080000*%
%ADD13C,0.090000*%
%ADD14C,0.095000*%
%ADD15C,0.120000*%
%ADD16C,0.160000*%
G04 APERTURE END LIST*
D10*
X19558000Y-6604000D02*
X19558000Y-13208000D01*
X9652000Y-6604000D02*
X19558000Y-6604000D01*
X9652000Y-13208000D02*
X9652000Y-6604000D01*
X19558000Y-13208000D02*
X9652000Y-13208000D01*
D11*
D12*
X12787000Y-10501000D02*
X12867000Y-10581000D01*
X12867000Y-10501000D02*
X12787000Y-10581000D01*
X12787000Y-11263000D02*
X12867000Y-11343000D01*
X12867000Y-11263000D02*
X12787000Y-11343000D01*
X13168000Y-8977000D02*
X13248000Y-9057000D01*
X13248000Y-8977000D02*
X13168000Y-9057000D01*
X13168000Y-10755000D02*
X13248000Y-10835000D01*
X13248000Y-10755000D02*
X13168000Y-10835000D01*
X13295000Y-9343000D02*
X13375000Y-9423000D01*
X13375000Y-9343000D02*
X13295000Y-9423000D01*
X13295000Y-10374000D02*
X13375000Y-10454000D01*
X13375000Y-10374000D02*
X13295000Y-10454000D01*
X13418000Y-8977000D02*
X13498000Y-9057000D01*
X13498000Y-8977000D02*
X13418000Y-9057000D01*
X13418000Y-10755000D02*
X13498000Y-10835000D01*
X13498000Y-10755000D02*
X13418000Y-10835000D01*
X13680000Y-8977000D02*
X13760000Y-9057000D01*
X13760000Y-8977000D02*
X13680000Y-9057000D01*
X13680000Y-10755000D02*
X13760000Y-10835000D01*
X13760000Y-10755000D02*
X13680000Y-10835000D01*
X13930000Y-8977000D02*
X14010000Y-9057000D01*
X14010000Y-8977000D02*
X13930000Y-9057000D01*
X13930000Y-10755000D02*
X14010000Y-10835000D01*
X14010000Y-10755000D02*
X13930000Y-10835000D01*
X14057000Y-9343000D02*
X14137000Y-9423000D01*
X14137000Y-9343000D02*
X14057000Y-9423000D01*
X14057000Y-10374000D02*
X14137000Y-10454000D01*
X14137000Y-10374000D02*
X14057000Y-10454000D01*
X14550000Y-8469000D02*
X14630000Y-8549000D01*
X14630000Y-8469000D02*
X14550000Y-8549000D01*
X14550000Y-9231000D02*
X14630000Y-9311000D01*
X14630000Y-9231000D02*
X14550000Y-9311000D01*
X15829000Y-12533000D02*
X15909000Y-12613000D01*
X15909000Y-12533000D02*
X15829000Y-12613000D01*
X15839000Y-11517000D02*
X15919000Y-11597000D01*
X15919000Y-11517000D02*
X15839000Y-11597000D01*
X15850000Y-10501000D02*
X15930000Y-10581000D01*
X15930000Y-10501000D02*
X15850000Y-10581000D01*
X16079000Y-12533000D02*
X16159000Y-12613000D01*
X16159000Y-12533000D02*
X16079000Y-12613000D01*
X16089000Y-11517000D02*
X16169000Y-11597000D01*
X16169000Y-11517000D02*
X16089000Y-11597000D01*
X16100000Y-10501000D02*
X16180000Y-10581000D01*
X16180000Y-10501000D02*
X16100000Y-10581000D01*
X16724000Y-8977000D02*
X16804000Y-9057000D01*
X16804000Y-8977000D02*
X16724000Y-9057000D01*
X16850000Y-9358000D02*
X16930000Y-9438000D01*
X16930000Y-9358000D02*
X16850000Y-9438000D01*
X16974000Y-8977000D02*
X17054000Y-9057000D01*
X17054000Y-8977000D02*
X16974000Y-9057000D01*
X17232000Y-8977000D02*
X17312000Y-9057000D01*
X17312000Y-8977000D02*
X17232000Y-9057000D01*
X17232000Y-9993000D02*
X17312000Y-10073000D01*
X17312000Y-9993000D02*
X17232000Y-10073000D01*
X17232000Y-10501000D02*
X17312000Y-10581000D01*
X17312000Y-10501000D02*
X17232000Y-10581000D01*
X17232000Y-12533000D02*
X17312000Y-12613000D01*
X17312000Y-12533000D02*
X17232000Y-12613000D01*
X17482000Y-8977000D02*
X17562000Y-9057000D01*
X17562000Y-8977000D02*
X17482000Y-9057000D01*
X17612000Y-9358000D02*
X17692000Y-9438000D01*
X17692000Y-9358000D02*
X17612000Y-9438000D01*
X18248000Y-9993000D02*
X18328000Y-10073000D01*
X18328000Y-9993000D02*
X18248000Y-10073000D01*
X18248000Y-10501000D02*
X18328000Y-10581000D01*
X18328000Y-10501000D02*
X18248000Y-10581000D01*
X18248000Y-12533000D02*
X18328000Y-12613000D01*
X18328000Y-12533000D02*
X18248000Y-12613000D01*
D13*
X16809000Y-10033000D02*
G75*
G03*
X16809000Y-10033000I-45000J0D01*
G01*
X16809000Y-10541000D02*
G75*
G03*
X16809000Y-10541000I-45000J0D01*
G01*
X16809000Y-12573000D02*
G75*
G03*
X16809000Y-12573000I-45000J0D01*
G01*
X17063000Y-10033000D02*
G75*
G03*
X17063000Y-10033000I-45000J0D01*
G01*
X17063000Y-10541000D02*
G75*
G03*
X17063000Y-10541000I-45000J0D01*
G01*
X17063000Y-12573000D02*
G75*
G03*
X17063000Y-12573000I-45000J0D01*
G01*
D14*
X10117000Y-9489500D02*
X10117000Y-9584500D01*
X10069500Y-9537000D02*
X10164500Y-9537000D01*
X10117000Y-9739500D02*
X10117000Y-9834500D01*
X10069500Y-9787000D02*
X10164500Y-9787000D01*
X10117000Y-9989500D02*
X10117000Y-10084500D01*
X10069500Y-10037000D02*
X10164500Y-10037000D01*
X10117000Y-10239500D02*
X10117000Y-10334500D01*
X10069500Y-10287000D02*
X10164500Y-10287000D01*
X18288000Y-11001500D02*
X18288000Y-11096500D01*
X18240500Y-11049000D02*
X18335500Y-11049000D01*
X18288000Y-11251500D02*
X18288000Y-11346500D01*
X18240500Y-11299000D02*
X18335500Y-11299000D01*
X18288000Y-11501500D02*
X18288000Y-11596500D01*
X18240500Y-11549000D02*
X18335500Y-11549000D01*
X18288000Y-11751500D02*
X18288000Y-11846500D01*
X18240500Y-11799000D02*
X18335500Y-11799000D01*
X18288000Y-12001500D02*
X18288000Y-12096500D01*
X18240500Y-12049000D02*
X18335500Y-12049000D01*
D15*
X10964427Y-7420427D02*
X10964427Y-7335573D01*
X10879573Y-7335573D01*
X10879573Y-7420427D01*
X10964427Y-7420427D01*
X10964427Y-8170427D02*
X10964427Y-8085573D01*
X10879573Y-8085573D01*
X10879573Y-8170427D01*
X10964427Y-8170427D01*
X10964427Y-11726427D02*
X10964427Y-11641573D01*
X10879573Y-11641573D01*
X10879573Y-11726427D01*
X10964427Y-11726427D01*
X10964427Y-12476427D02*
X10964427Y-12391573D01*
X10879573Y-12391573D01*
X10879573Y-12476427D01*
X10964427Y-12476427D01*
X13504427Y-8761927D02*
X13504427Y-8677073D01*
X13419573Y-8677073D01*
X13419573Y-8761927D01*
X13504427Y-8761927D01*
X13504427Y-11142227D02*
X13504427Y-11057373D01*
X13419573Y-11057373D01*
X13419573Y-11142227D01*
X13504427Y-11142227D01*
X13758427Y-8761927D02*
X13758427Y-8677073D01*
X13673573Y-8677073D01*
X13673573Y-8761927D01*
X13758427Y-8761927D01*
X13758427Y-11142227D02*
X13758427Y-11057373D01*
X13673573Y-11057373D01*
X13673573Y-11142227D01*
X13758427Y-11142227D01*
X14012427Y-8761927D02*
X14012427Y-8677073D01*
X13927573Y-8677073D01*
X13927573Y-8761927D01*
X14012427Y-8761927D01*
X14012427Y-11142227D02*
X14012427Y-11057373D01*
X13927573Y-11057373D01*
X13927573Y-11142227D01*
X14012427Y-11142227D01*
X17060427Y-8757927D02*
X17060427Y-8673073D01*
X16975573Y-8673073D01*
X16975573Y-8757927D01*
X17060427Y-8757927D01*
X17314427Y-8757927D02*
X17314427Y-8673073D01*
X17229573Y-8673073D01*
X17229573Y-8757927D01*
X17314427Y-8757927D01*
X17568427Y-8757927D02*
X17568427Y-8673073D01*
X17483573Y-8673073D01*
X17483573Y-8757927D01*
X17568427Y-8757927D01*
D16*
X11211000Y-9221000D02*
X11291000Y-9141000D01*
X11211000Y-9061000D01*
X11131000Y-9141000D01*
X11211000Y-9221000D01*
X11211000Y-9729000D02*
X11291000Y-9649000D01*
X11211000Y-9569000D01*
X11131000Y-9649000D01*
X11211000Y-9729000D01*
X11211000Y-10237000D02*
X11291000Y-10157000D01*
X11211000Y-10077000D01*
X11131000Y-10157000D01*
X11211000Y-10237000D01*
X11211000Y-10745000D02*
X11291000Y-10665000D01*
X11211000Y-10585000D01*
X11131000Y-10665000D01*
X11211000Y-10745000D01*
X12573000Y-8208000D02*
X12653000Y-8128000D01*
X12573000Y-8048000D01*
X12493000Y-8128000D01*
X12573000Y-8208000D01*
X12573000Y-11764000D02*
X12653000Y-11684000D01*
X12573000Y-11604000D01*
X12493000Y-11684000D01*
X12573000Y-11764000D01*
X13716000Y-8208000D02*
X13796000Y-8128000D01*
X13716000Y-8048000D01*
X13636000Y-8128000D01*
X13716000Y-8208000D01*
X13716000Y-11764000D02*
X13796000Y-11684000D01*
X13716000Y-11604000D01*
X13636000Y-11684000D01*
X13716000Y-11764000D01*
X14859000Y-8208000D02*
X14939000Y-8128000D01*
X14859000Y-8048000D01*
X14779000Y-8128000D01*
X14859000Y-8208000D01*
X14859000Y-11764000D02*
X14939000Y-11684000D01*
X14859000Y-11604000D01*
X14779000Y-11684000D01*
X14859000Y-11764000D01*
X16129000Y-8208000D02*
X16209000Y-8128000D01*
X16129000Y-8048000D01*
X16049000Y-8128000D01*
X16129000Y-8208000D01*
X17272000Y-8208000D02*
X17352000Y-8128000D01*
X17272000Y-8048000D01*
X17192000Y-8128000D01*
X17272000Y-8208000D01*
X18415000Y-8208000D02*
X18495000Y-8128000D01*
X18415000Y-8048000D01*
X18335000Y-8128000D01*
X18415000Y-8208000D01*
D11*
X9904619Y-13523476D02*
X9904619Y-13323476D01*
X9952238Y-13323476D01*
X9980810Y-13333000D01*
X9999857Y-13352048D01*
X10009381Y-13371095D01*
X10018905Y-13409190D01*
X10018905Y-13437762D01*
X10009381Y-13475857D01*
X9999857Y-13494905D01*
X9980810Y-13513952D01*
X9952238Y-13523476D01*
X9904619Y-13523476D01*
X10104619Y-13523476D02*
X10104619Y-13390143D01*
X10104619Y-13428238D02*
X10114143Y-13409190D01*
X10123667Y-13399667D01*
X10142714Y-13390143D01*
X10161762Y-13390143D01*
X10228429Y-13523476D02*
X10228429Y-13390143D01*
X10228429Y-13323476D02*
X10218905Y-13333000D01*
X10228429Y-13342524D01*
X10237952Y-13333000D01*
X10228429Y-13323476D01*
X10228429Y-13342524D01*
X10352238Y-13523476D02*
X10333190Y-13513952D01*
X10323667Y-13494905D01*
X10323667Y-13323476D01*
X10457000Y-13523476D02*
X10437952Y-13513952D01*
X10428429Y-13494905D01*
X10428429Y-13323476D01*
X10685571Y-13523476D02*
X10685571Y-13323476D01*
X10752238Y-13466333D01*
X10818905Y-13323476D01*
X10818905Y-13523476D01*
X10999857Y-13523476D02*
X10999857Y-13418714D01*
X10990333Y-13399667D01*
X10971286Y-13390143D01*
X10933190Y-13390143D01*
X10914143Y-13399667D01*
X10999857Y-13513952D02*
X10980810Y-13523476D01*
X10933190Y-13523476D01*
X10914143Y-13513952D01*
X10904619Y-13494905D01*
X10904619Y-13475857D01*
X10914143Y-13456809D01*
X10933190Y-13447286D01*
X10980810Y-13447286D01*
X10999857Y-13437762D01*
X11095095Y-13390143D02*
X11095095Y-13590143D01*
X11095095Y-13399667D02*
X11114143Y-13390143D01*
X11152238Y-13390143D01*
X11171286Y-13399667D01*
X11180810Y-13409190D01*
X11190333Y-13428238D01*
X11190333Y-13485381D01*
X11180810Y-13504428D01*
X11171286Y-13513952D01*
X11152238Y-13523476D01*
X11114143Y-13523476D01*
X11095095Y-13513952D01*
X11276048Y-13504428D02*
X11285571Y-13513952D01*
X11276048Y-13523476D01*
X11266524Y-13513952D01*
X11276048Y-13504428D01*
X11276048Y-13523476D01*
X11276048Y-13399667D02*
X11285571Y-13409190D01*
X11276048Y-13418714D01*
X11266524Y-13409190D01*
X11276048Y-13399667D01*
X11276048Y-13418714D01*
D12*
X9567000Y-13813000D02*
X9647000Y-13893000D01*
X9647000Y-13813000D02*
X9567000Y-13893000D01*
D11*
X9942714Y-13743476D02*
X9961762Y-13743476D01*
X9980810Y-13753000D01*
X9990333Y-13762524D01*
X9999857Y-13781571D01*
X10009381Y-13819667D01*
X10009381Y-13867286D01*
X9999857Y-13905381D01*
X9990333Y-13924428D01*
X9980810Y-13933952D01*
X9961762Y-13943476D01*
X9942714Y-13943476D01*
X9923667Y-13933952D01*
X9914143Y-13924428D01*
X9904619Y-13905381D01*
X9895095Y-13867286D01*
X9895095Y-13819667D01*
X9904619Y-13781571D01*
X9914143Y-13762524D01*
X9923667Y-13753000D01*
X9942714Y-13743476D01*
X10095095Y-13924428D02*
X10104619Y-13933952D01*
X10095095Y-13943476D01*
X10085571Y-13933952D01*
X10095095Y-13924428D01*
X10095095Y-13943476D01*
X10218905Y-13829190D02*
X10199857Y-13819667D01*
X10190333Y-13810143D01*
X10180810Y-13791095D01*
X10180810Y-13781571D01*
X10190333Y-13762524D01*
X10199857Y-13753000D01*
X10218905Y-13743476D01*
X10257000Y-13743476D01*
X10276048Y-13753000D01*
X10285571Y-13762524D01*
X10295095Y-13781571D01*
X10295095Y-13791095D01*
X10285571Y-13810143D01*
X10276048Y-13819667D01*
X10257000Y-13829190D01*
X10218905Y-13829190D01*
X10199857Y-13838714D01*
X10190333Y-13848238D01*
X10180810Y-13867286D01*
X10180810Y-13905381D01*
X10190333Y-13924428D01*
X10199857Y-13933952D01*
X10218905Y-13943476D01*
X10257000Y-13943476D01*
X10276048Y-13933952D01*
X10285571Y-13924428D01*
X10295095Y-13905381D01*
X10295095Y-13867286D01*
X10285571Y-13848238D01*
X10276048Y-13838714D01*
X10257000Y-13829190D01*
X10418905Y-13743476D02*
X10437952Y-13743476D01*
X10457000Y-13753000D01*
X10466524Y-13762524D01*
X10476048Y-13781571D01*
X10485571Y-13819667D01*
X10485571Y-13867286D01*
X10476048Y-13905381D01*
X10466524Y-13924428D01*
X10457000Y-13933952D01*
X10437952Y-13943476D01*
X10418905Y-13943476D01*
X10399857Y-13933952D01*
X10390333Y-13924428D01*
X10380810Y-13905381D01*
X10371286Y-13867286D01*
X10371286Y-13819667D01*
X10380810Y-13781571D01*
X10390333Y-13762524D01*
X10399857Y-13753000D01*
X10418905Y-13743476D01*
X10609381Y-13743476D02*
X10628429Y-13743476D01*
X10647476Y-13753000D01*
X10657000Y-13762524D01*
X10666524Y-13781571D01*
X10676048Y-13819667D01*
X10676048Y-13867286D01*
X10666524Y-13905381D01*
X10657000Y-13924428D01*
X10647476Y-13933952D01*
X10628429Y-13943476D01*
X10609381Y-13943476D01*
X10590333Y-13933952D01*
X10580810Y-13924428D01*
X10571286Y-13905381D01*
X10561762Y-13867286D01*
X10561762Y-13819667D01*
X10571286Y-13781571D01*
X10580810Y-13762524D01*
X10590333Y-13753000D01*
X10609381Y-13743476D01*
X10761762Y-13943476D02*
X10761762Y-13810143D01*
X10761762Y-13829190D02*
X10771286Y-13819667D01*
X10790333Y-13810143D01*
X10818905Y-13810143D01*
X10837952Y-13819667D01*
X10847476Y-13838714D01*
X10847476Y-13943476D01*
X10847476Y-13838714D02*
X10857000Y-13819667D01*
X10876048Y-13810143D01*
X10904619Y-13810143D01*
X10923667Y-13819667D01*
X10933190Y-13838714D01*
X10933190Y-13943476D01*
X11028429Y-13943476D02*
X11028429Y-13810143D01*
X11028429Y-13829190D02*
X11037952Y-13819667D01*
X11057000Y-13810143D01*
X11085571Y-13810143D01*
X11104619Y-13819667D01*
X11114143Y-13838714D01*
X11114143Y-13943476D01*
X11114143Y-13838714D02*
X11123667Y-13819667D01*
X11142714Y-13810143D01*
X11171286Y-13810143D01*
X11190333Y-13819667D01*
X11199857Y-13838714D01*
X11199857Y-13943476D01*
X11590333Y-13733952D02*
X11418905Y-13991095D01*
X11847476Y-13743476D02*
X11866524Y-13743476D01*
X11885571Y-13753000D01*
X11895095Y-13762524D01*
X11904619Y-13781571D01*
X11914143Y-13819667D01*
X11914143Y-13867286D01*
X11904619Y-13905381D01*
X11895095Y-13924428D01*
X11885571Y-13933952D01*
X11866524Y-13943476D01*
X11847476Y-13943476D01*
X11828428Y-13933952D01*
X11818905Y-13924428D01*
X11809381Y-13905381D01*
X11799857Y-13867286D01*
X11799857Y-13819667D01*
X11809381Y-13781571D01*
X11818905Y-13762524D01*
X11828428Y-13753000D01*
X11847476Y-13743476D01*
X11999857Y-13924428D02*
X12009381Y-13933952D01*
X11999857Y-13943476D01*
X11990333Y-13933952D01*
X11999857Y-13924428D01*
X11999857Y-13943476D01*
X12133190Y-13743476D02*
X12152238Y-13743476D01*
X12171286Y-13753000D01*
X12180809Y-13762524D01*
X12190333Y-13781571D01*
X12199857Y-13819667D01*
X12199857Y-13867286D01*
X12190333Y-13905381D01*
X12180809Y-13924428D01*
X12171286Y-13933952D01*
X12152238Y-13943476D01*
X12133190Y-13943476D01*
X12114143Y-13933952D01*
X12104619Y-13924428D01*
X12095095Y-13905381D01*
X12085571Y-13867286D01*
X12085571Y-13819667D01*
X12095095Y-13781571D01*
X12104619Y-13762524D01*
X12114143Y-13753000D01*
X12133190Y-13743476D01*
X12266524Y-13743476D02*
X12390333Y-13743476D01*
X12323667Y-13819667D01*
X12352238Y-13819667D01*
X12371286Y-13829190D01*
X12380809Y-13838714D01*
X12390333Y-13857762D01*
X12390333Y-13905381D01*
X12380809Y-13924428D01*
X12371286Y-13933952D01*
X12352238Y-13943476D01*
X12295095Y-13943476D01*
X12276048Y-13933952D01*
X12266524Y-13924428D01*
X12580809Y-13943476D02*
X12466524Y-13943476D01*
X12523667Y-13943476D02*
X12523667Y-13743476D01*
X12504619Y-13772048D01*
X12485571Y-13791095D01*
X12466524Y-13800619D01*
X12761762Y-13743476D02*
X12666524Y-13743476D01*
X12657000Y-13838714D01*
X12666524Y-13829190D01*
X12685571Y-13819667D01*
X12733190Y-13819667D01*
X12752238Y-13829190D01*
X12761762Y-13838714D01*
X12771286Y-13857762D01*
X12771286Y-13905381D01*
X12761762Y-13924428D01*
X12752238Y-13933952D01*
X12733190Y-13943476D01*
X12685571Y-13943476D01*
X12666524Y-13933952D01*
X12657000Y-13924428D01*
X12847476Y-13743476D02*
X12847476Y-13781571D01*
X12923667Y-13743476D02*
X12923667Y-13781571D01*
X13218905Y-14019667D02*
X13209381Y-14010143D01*
X13190333Y-13981571D01*
X13180809Y-13962524D01*
X13171286Y-13933952D01*
X13161762Y-13886333D01*
X13161762Y-13848238D01*
X13171286Y-13800619D01*
X13180809Y-13772048D01*
X13190333Y-13753000D01*
X13209381Y-13724428D01*
X13218905Y-13714905D01*
X13276048Y-13743476D02*
X13399857Y-13743476D01*
X13333190Y-13819667D01*
X13361762Y-13819667D01*
X13380809Y-13829190D01*
X13390333Y-13838714D01*
X13399857Y-13857762D01*
X13399857Y-13905381D01*
X13390333Y-13924428D01*
X13380809Y-13933952D01*
X13361762Y-13943476D01*
X13304619Y-13943476D01*
X13285571Y-13933952D01*
X13276048Y-13924428D01*
X13571286Y-13810143D02*
X13571286Y-13943476D01*
X13523667Y-13733952D02*
X13476048Y-13876809D01*
X13599857Y-13876809D01*
X13828428Y-13943476D02*
X13828428Y-13743476D01*
X13914143Y-13943476D02*
X13914143Y-13838714D01*
X13904619Y-13819667D01*
X13885571Y-13810143D01*
X13857000Y-13810143D01*
X13837952Y-13819667D01*
X13828428Y-13829190D01*
X14037952Y-13943476D02*
X14018905Y-13933952D01*
X14009381Y-13924428D01*
X13999857Y-13905381D01*
X13999857Y-13848238D01*
X14009381Y-13829190D01*
X14018905Y-13819667D01*
X14037952Y-13810143D01*
X14066524Y-13810143D01*
X14085571Y-13819667D01*
X14095095Y-13829190D01*
X14104619Y-13848238D01*
X14104619Y-13905381D01*
X14095095Y-13924428D01*
X14085571Y-13933952D01*
X14066524Y-13943476D01*
X14037952Y-13943476D01*
X14218905Y-13943476D02*
X14199857Y-13933952D01*
X14190333Y-13914905D01*
X14190333Y-13743476D01*
X14371286Y-13933952D02*
X14352238Y-13943476D01*
X14314143Y-13943476D01*
X14295095Y-13933952D01*
X14285571Y-13914905D01*
X14285571Y-13838714D01*
X14295095Y-13819667D01*
X14314143Y-13810143D01*
X14352238Y-13810143D01*
X14371286Y-13819667D01*
X14380809Y-13838714D01*
X14380809Y-13857762D01*
X14285571Y-13876809D01*
X14457000Y-13933952D02*
X14476048Y-13943476D01*
X14514143Y-13943476D01*
X14533190Y-13933952D01*
X14542714Y-13914905D01*
X14542714Y-13905381D01*
X14533190Y-13886333D01*
X14514143Y-13876809D01*
X14485571Y-13876809D01*
X14466524Y-13867286D01*
X14457000Y-13848238D01*
X14457000Y-13838714D01*
X14466524Y-13819667D01*
X14485571Y-13810143D01*
X14514143Y-13810143D01*
X14533190Y-13819667D01*
X14609381Y-14019667D02*
X14618905Y-14010143D01*
X14637952Y-13981571D01*
X14647476Y-13962524D01*
X14657000Y-13933952D01*
X14666524Y-13886333D01*
X14666524Y-13848238D01*
X14657000Y-13800619D01*
X14647476Y-13772048D01*
X14637952Y-13753000D01*
X14618905Y-13724428D01*
X14609381Y-13714905D01*
D13*
X9647000Y-14117000D02*
G75*
G03*
X9647000Y-14117000I-45000J0D01*
G01*
D11*
X9942714Y-14007476D02*
X9961762Y-14007476D01*
X9980810Y-14017000D01*
X9990333Y-14026524D01*
X9999857Y-14045571D01*
X10009381Y-14083667D01*
X10009381Y-14131286D01*
X9999857Y-14169381D01*
X9990333Y-14188428D01*
X9980810Y-14197952D01*
X9961762Y-14207476D01*
X9942714Y-14207476D01*
X9923667Y-14197952D01*
X9914143Y-14188428D01*
X9904619Y-14169381D01*
X9895095Y-14131286D01*
X9895095Y-14083667D01*
X9904619Y-14045571D01*
X9914143Y-14026524D01*
X9923667Y-14017000D01*
X9942714Y-14007476D01*
X10095095Y-14188428D02*
X10104619Y-14197952D01*
X10095095Y-14207476D01*
X10085571Y-14197952D01*
X10095095Y-14188428D01*
X10095095Y-14207476D01*
X10199857Y-14207476D02*
X10237952Y-14207476D01*
X10257000Y-14197952D01*
X10266524Y-14188428D01*
X10285571Y-14159857D01*
X10295095Y-14121762D01*
X10295095Y-14045571D01*
X10285571Y-14026524D01*
X10276048Y-14017000D01*
X10257000Y-14007476D01*
X10218905Y-14007476D01*
X10199857Y-14017000D01*
X10190333Y-14026524D01*
X10180810Y-14045571D01*
X10180810Y-14093190D01*
X10190333Y-14112238D01*
X10199857Y-14121762D01*
X10218905Y-14131286D01*
X10257000Y-14131286D01*
X10276048Y-14121762D01*
X10285571Y-14112238D01*
X10295095Y-14093190D01*
X10418905Y-14007476D02*
X10437952Y-14007476D01*
X10457000Y-14017000D01*
X10466524Y-14026524D01*
X10476048Y-14045571D01*
X10485571Y-14083667D01*
X10485571Y-14131286D01*
X10476048Y-14169381D01*
X10466524Y-14188428D01*
X10457000Y-14197952D01*
X10437952Y-14207476D01*
X10418905Y-14207476D01*
X10399857Y-14197952D01*
X10390333Y-14188428D01*
X10380810Y-14169381D01*
X10371286Y-14131286D01*
X10371286Y-14083667D01*
X10380810Y-14045571D01*
X10390333Y-14026524D01*
X10399857Y-14017000D01*
X10418905Y-14007476D01*
X10609381Y-14007476D02*
X10628429Y-14007476D01*
X10647476Y-14017000D01*
X10657000Y-14026524D01*
X10666524Y-14045571D01*
X10676048Y-14083667D01*
X10676048Y-14131286D01*
X10666524Y-14169381D01*
X10657000Y-14188428D01*
X10647476Y-14197952D01*
X10628429Y-14207476D01*
X10609381Y-14207476D01*
X10590333Y-14197952D01*
X10580810Y-14188428D01*
X10571286Y-14169381D01*
X10561762Y-14131286D01*
X10561762Y-14083667D01*
X10571286Y-14045571D01*
X10580810Y-14026524D01*
X10590333Y-14017000D01*
X10609381Y-14007476D01*
X10761762Y-14207476D02*
X10761762Y-14074143D01*
X10761762Y-14093190D02*
X10771286Y-14083667D01*
X10790333Y-14074143D01*
X10818905Y-14074143D01*
X10837952Y-14083667D01*
X10847476Y-14102714D01*
X10847476Y-14207476D01*
X10847476Y-14102714D02*
X10857000Y-14083667D01*
X10876048Y-14074143D01*
X10904619Y-14074143D01*
X10923667Y-14083667D01*
X10933190Y-14102714D01*
X10933190Y-14207476D01*
X11028429Y-14207476D02*
X11028429Y-14074143D01*
X11028429Y-14093190D02*
X11037952Y-14083667D01*
X11057000Y-14074143D01*
X11085571Y-14074143D01*
X11104619Y-14083667D01*
X11114143Y-14102714D01*
X11114143Y-14207476D01*
X11114143Y-14102714D02*
X11123667Y-14083667D01*
X11142714Y-14074143D01*
X11171286Y-14074143D01*
X11190333Y-14083667D01*
X11199857Y-14102714D01*
X11199857Y-14207476D01*
X11590333Y-13997952D02*
X11418905Y-14255095D01*
X11847476Y-14007476D02*
X11866524Y-14007476D01*
X11885571Y-14017000D01*
X11895095Y-14026524D01*
X11904619Y-14045571D01*
X11914143Y-14083667D01*
X11914143Y-14131286D01*
X11904619Y-14169381D01*
X11895095Y-14188428D01*
X11885571Y-14197952D01*
X11866524Y-14207476D01*
X11847476Y-14207476D01*
X11828428Y-14197952D01*
X11818905Y-14188428D01*
X11809381Y-14169381D01*
X11799857Y-14131286D01*
X11799857Y-14083667D01*
X11809381Y-14045571D01*
X11818905Y-14026524D01*
X11828428Y-14017000D01*
X11847476Y-14007476D01*
X11999857Y-14188428D02*
X12009381Y-14197952D01*
X11999857Y-14207476D01*
X11990333Y-14197952D01*
X11999857Y-14188428D01*
X11999857Y-14207476D01*
X12133190Y-14007476D02*
X12152238Y-14007476D01*
X12171286Y-14017000D01*
X12180809Y-14026524D01*
X12190333Y-14045571D01*
X12199857Y-14083667D01*
X12199857Y-14131286D01*
X12190333Y-14169381D01*
X12180809Y-14188428D01*
X12171286Y-14197952D01*
X12152238Y-14207476D01*
X12133190Y-14207476D01*
X12114143Y-14197952D01*
X12104619Y-14188428D01*
X12095095Y-14169381D01*
X12085571Y-14131286D01*
X12085571Y-14083667D01*
X12095095Y-14045571D01*
X12104619Y-14026524D01*
X12114143Y-14017000D01*
X12133190Y-14007476D01*
X12266524Y-14007476D02*
X12390333Y-14007476D01*
X12323667Y-14083667D01*
X12352238Y-14083667D01*
X12371286Y-14093190D01*
X12380809Y-14102714D01*
X12390333Y-14121762D01*
X12390333Y-14169381D01*
X12380809Y-14188428D01*
X12371286Y-14197952D01*
X12352238Y-14207476D01*
X12295095Y-14207476D01*
X12276048Y-14197952D01*
X12266524Y-14188428D01*
X12571286Y-14007476D02*
X12476048Y-14007476D01*
X12466524Y-14102714D01*
X12476048Y-14093190D01*
X12495095Y-14083667D01*
X12542714Y-14083667D01*
X12561762Y-14093190D01*
X12571286Y-14102714D01*
X12580809Y-14121762D01*
X12580809Y-14169381D01*
X12571286Y-14188428D01*
X12561762Y-14197952D01*
X12542714Y-14207476D01*
X12495095Y-14207476D01*
X12476048Y-14197952D01*
X12466524Y-14188428D01*
X12752238Y-14074143D02*
X12752238Y-14207476D01*
X12704619Y-13997952D02*
X12657000Y-14140809D01*
X12780809Y-14140809D01*
X12847476Y-14007476D02*
X12847476Y-14045571D01*
X12923667Y-14007476D02*
X12923667Y-14045571D01*
X13218905Y-14283667D02*
X13209381Y-14274143D01*
X13190333Y-14245571D01*
X13180809Y-14226524D01*
X13171286Y-14197952D01*
X13161762Y-14150333D01*
X13161762Y-14112238D01*
X13171286Y-14064619D01*
X13180809Y-14036048D01*
X13190333Y-14017000D01*
X13209381Y-13988428D01*
X13218905Y-13978905D01*
X13380809Y-14007476D02*
X13342714Y-14007476D01*
X13323667Y-14017000D01*
X13314143Y-14026524D01*
X13295095Y-14055095D01*
X13285571Y-14093190D01*
X13285571Y-14169381D01*
X13295095Y-14188428D01*
X13304619Y-14197952D01*
X13323667Y-14207476D01*
X13361762Y-14207476D01*
X13380809Y-14197952D01*
X13390333Y-14188428D01*
X13399857Y-14169381D01*
X13399857Y-14121762D01*
X13390333Y-14102714D01*
X13380809Y-14093190D01*
X13361762Y-14083667D01*
X13323667Y-14083667D01*
X13304619Y-14093190D01*
X13295095Y-14102714D01*
X13285571Y-14121762D01*
X13637952Y-14207476D02*
X13637952Y-14007476D01*
X13723667Y-14207476D02*
X13723667Y-14102714D01*
X13714143Y-14083667D01*
X13695095Y-14074143D01*
X13666524Y-14074143D01*
X13647476Y-14083667D01*
X13637952Y-14093190D01*
X13847476Y-14207476D02*
X13828428Y-14197952D01*
X13818905Y-14188428D01*
X13809381Y-14169381D01*
X13809381Y-14112238D01*
X13818905Y-14093190D01*
X13828428Y-14083667D01*
X13847476Y-14074143D01*
X13876048Y-14074143D01*
X13895095Y-14083667D01*
X13904619Y-14093190D01*
X13914143Y-14112238D01*
X13914143Y-14169381D01*
X13904619Y-14188428D01*
X13895095Y-14197952D01*
X13876048Y-14207476D01*
X13847476Y-14207476D01*
X14028428Y-14207476D02*
X14009381Y-14197952D01*
X13999857Y-14178905D01*
X13999857Y-14007476D01*
X14180809Y-14197952D02*
X14161762Y-14207476D01*
X14123667Y-14207476D01*
X14104619Y-14197952D01*
X14095095Y-14178905D01*
X14095095Y-14102714D01*
X14104619Y-14083667D01*
X14123667Y-14074143D01*
X14161762Y-14074143D01*
X14180809Y-14083667D01*
X14190333Y-14102714D01*
X14190333Y-14121762D01*
X14095095Y-14140809D01*
X14266524Y-14197952D02*
X14285571Y-14207476D01*
X14323667Y-14207476D01*
X14342714Y-14197952D01*
X14352238Y-14178905D01*
X14352238Y-14169381D01*
X14342714Y-14150333D01*
X14323667Y-14140809D01*
X14295095Y-14140809D01*
X14276048Y-14131286D01*
X14266524Y-14112238D01*
X14266524Y-14102714D01*
X14276048Y-14083667D01*
X14295095Y-14074143D01*
X14323667Y-14074143D01*
X14342714Y-14083667D01*
X14418905Y-14283667D02*
X14428428Y-14274143D01*
X14447476Y-14245571D01*
X14457000Y-14226524D01*
X14466524Y-14197952D01*
X14476048Y-14150333D01*
X14476048Y-14112238D01*
X14466524Y-14064619D01*
X14457000Y-14036048D01*
X14447476Y-14017000D01*
X14428428Y-13988428D01*
X14418905Y-13978905D01*
D14*
X9599500Y-14333500D02*
X9599500Y-14428500D01*
X9552000Y-14381000D02*
X9647000Y-14381000D01*
D11*
X9942714Y-14271476D02*
X9961762Y-14271476D01*
X9980810Y-14281000D01*
X9990333Y-14290524D01*
X9999857Y-14309571D01*
X10009381Y-14347667D01*
X10009381Y-14395286D01*
X9999857Y-14433381D01*
X9990333Y-14452428D01*
X9980810Y-14461952D01*
X9961762Y-14471476D01*
X9942714Y-14471476D01*
X9923667Y-14461952D01*
X9914143Y-14452428D01*
X9904619Y-14433381D01*
X9895095Y-14395286D01*
X9895095Y-14347667D01*
X9904619Y-14309571D01*
X9914143Y-14290524D01*
X9923667Y-14281000D01*
X9942714Y-14271476D01*
X10095095Y-14452428D02*
X10104619Y-14461952D01*
X10095095Y-14471476D01*
X10085571Y-14461952D01*
X10095095Y-14452428D01*
X10095095Y-14471476D01*
X10199857Y-14471476D02*
X10237952Y-14471476D01*
X10257000Y-14461952D01*
X10266524Y-14452428D01*
X10285571Y-14423857D01*
X10295095Y-14385762D01*
X10295095Y-14309571D01*
X10285571Y-14290524D01*
X10276048Y-14281000D01*
X10257000Y-14271476D01*
X10218905Y-14271476D01*
X10199857Y-14281000D01*
X10190333Y-14290524D01*
X10180810Y-14309571D01*
X10180810Y-14357190D01*
X10190333Y-14376238D01*
X10199857Y-14385762D01*
X10218905Y-14395286D01*
X10257000Y-14395286D01*
X10276048Y-14385762D01*
X10285571Y-14376238D01*
X10295095Y-14357190D01*
X10476048Y-14271476D02*
X10380810Y-14271476D01*
X10371286Y-14366714D01*
X10380810Y-14357190D01*
X10399857Y-14347667D01*
X10447476Y-14347667D01*
X10466524Y-14357190D01*
X10476048Y-14366714D01*
X10485571Y-14385762D01*
X10485571Y-14433381D01*
X10476048Y-14452428D01*
X10466524Y-14461952D01*
X10447476Y-14471476D01*
X10399857Y-14471476D01*
X10380810Y-14461952D01*
X10371286Y-14452428D01*
X10609381Y-14271476D02*
X10628429Y-14271476D01*
X10647476Y-14281000D01*
X10657000Y-14290524D01*
X10666524Y-14309571D01*
X10676048Y-14347667D01*
X10676048Y-14395286D01*
X10666524Y-14433381D01*
X10657000Y-14452428D01*
X10647476Y-14461952D01*
X10628429Y-14471476D01*
X10609381Y-14471476D01*
X10590333Y-14461952D01*
X10580810Y-14452428D01*
X10571286Y-14433381D01*
X10561762Y-14395286D01*
X10561762Y-14347667D01*
X10571286Y-14309571D01*
X10580810Y-14290524D01*
X10590333Y-14281000D01*
X10609381Y-14271476D01*
X10761762Y-14471476D02*
X10761762Y-14338143D01*
X10761762Y-14357190D02*
X10771286Y-14347667D01*
X10790333Y-14338143D01*
X10818905Y-14338143D01*
X10837952Y-14347667D01*
X10847476Y-14366714D01*
X10847476Y-14471476D01*
X10847476Y-14366714D02*
X10857000Y-14347667D01*
X10876048Y-14338143D01*
X10904619Y-14338143D01*
X10923667Y-14347667D01*
X10933190Y-14366714D01*
X10933190Y-14471476D01*
X11028429Y-14471476D02*
X11028429Y-14338143D01*
X11028429Y-14357190D02*
X11037952Y-14347667D01*
X11057000Y-14338143D01*
X11085571Y-14338143D01*
X11104619Y-14347667D01*
X11114143Y-14366714D01*
X11114143Y-14471476D01*
X11114143Y-14366714D02*
X11123667Y-14347667D01*
X11142714Y-14338143D01*
X11171286Y-14338143D01*
X11190333Y-14347667D01*
X11199857Y-14366714D01*
X11199857Y-14471476D01*
X11590333Y-14261952D02*
X11418905Y-14519095D01*
X11847476Y-14271476D02*
X11866524Y-14271476D01*
X11885571Y-14281000D01*
X11895095Y-14290524D01*
X11904619Y-14309571D01*
X11914143Y-14347667D01*
X11914143Y-14395286D01*
X11904619Y-14433381D01*
X11895095Y-14452428D01*
X11885571Y-14461952D01*
X11866524Y-14471476D01*
X11847476Y-14471476D01*
X11828428Y-14461952D01*
X11818905Y-14452428D01*
X11809381Y-14433381D01*
X11799857Y-14395286D01*
X11799857Y-14347667D01*
X11809381Y-14309571D01*
X11818905Y-14290524D01*
X11828428Y-14281000D01*
X11847476Y-14271476D01*
X11999857Y-14452428D02*
X12009381Y-14461952D01*
X11999857Y-14471476D01*
X11990333Y-14461952D01*
X11999857Y-14452428D01*
X11999857Y-14471476D01*
X12133190Y-14271476D02*
X12152238Y-14271476D01*
X12171286Y-14281000D01*
X12180809Y-14290524D01*
X12190333Y-14309571D01*
X12199857Y-14347667D01*
X12199857Y-14395286D01*
X12190333Y-14433381D01*
X12180809Y-14452428D01*
X12171286Y-14461952D01*
X12152238Y-14471476D01*
X12133190Y-14471476D01*
X12114143Y-14461952D01*
X12104619Y-14452428D01*
X12095095Y-14433381D01*
X12085571Y-14395286D01*
X12085571Y-14347667D01*
X12095095Y-14309571D01*
X12104619Y-14290524D01*
X12114143Y-14281000D01*
X12133190Y-14271476D01*
X12266524Y-14271476D02*
X12390333Y-14271476D01*
X12323667Y-14347667D01*
X12352238Y-14347667D01*
X12371286Y-14357190D01*
X12380809Y-14366714D01*
X12390333Y-14385762D01*
X12390333Y-14433381D01*
X12380809Y-14452428D01*
X12371286Y-14461952D01*
X12352238Y-14471476D01*
X12295095Y-14471476D01*
X12276048Y-14461952D01*
X12266524Y-14452428D01*
X12457000Y-14271476D02*
X12590333Y-14271476D01*
X12504619Y-14471476D01*
X12752238Y-14338143D02*
X12752238Y-14471476D01*
X12704619Y-14261952D02*
X12657000Y-14404809D01*
X12780809Y-14404809D01*
X12847476Y-14271476D02*
X12847476Y-14309571D01*
X12923667Y-14271476D02*
X12923667Y-14309571D01*
X13218905Y-14547667D02*
X13209381Y-14538143D01*
X13190333Y-14509571D01*
X13180809Y-14490524D01*
X13171286Y-14461952D01*
X13161762Y-14414333D01*
X13161762Y-14376238D01*
X13171286Y-14328619D01*
X13180809Y-14300048D01*
X13190333Y-14281000D01*
X13209381Y-14252428D01*
X13218905Y-14242905D01*
X13304619Y-14471476D02*
X13342714Y-14471476D01*
X13361762Y-14461952D01*
X13371286Y-14452428D01*
X13390333Y-14423857D01*
X13399857Y-14385762D01*
X13399857Y-14309571D01*
X13390333Y-14290524D01*
X13380809Y-14281000D01*
X13361762Y-14271476D01*
X13323667Y-14271476D01*
X13304619Y-14281000D01*
X13295095Y-14290524D01*
X13285571Y-14309571D01*
X13285571Y-14357190D01*
X13295095Y-14376238D01*
X13304619Y-14385762D01*
X13323667Y-14395286D01*
X13361762Y-14395286D01*
X13380809Y-14385762D01*
X13390333Y-14376238D01*
X13399857Y-14357190D01*
X13637952Y-14471476D02*
X13637952Y-14271476D01*
X13723667Y-14471476D02*
X13723667Y-14366714D01*
X13714143Y-14347667D01*
X13695095Y-14338143D01*
X13666524Y-14338143D01*
X13647476Y-14347667D01*
X13637952Y-14357190D01*
X13847476Y-14471476D02*
X13828428Y-14461952D01*
X13818905Y-14452428D01*
X13809381Y-14433381D01*
X13809381Y-14376238D01*
X13818905Y-14357190D01*
X13828428Y-14347667D01*
X13847476Y-14338143D01*
X13876048Y-14338143D01*
X13895095Y-14347667D01*
X13904619Y-14357190D01*
X13914143Y-14376238D01*
X13914143Y-14433381D01*
X13904619Y-14452428D01*
X13895095Y-14461952D01*
X13876048Y-14471476D01*
X13847476Y-14471476D01*
X14028428Y-14471476D02*
X14009381Y-14461952D01*
X13999857Y-14442905D01*
X13999857Y-14271476D01*
X14180809Y-14461952D02*
X14161762Y-14471476D01*
X14123667Y-14471476D01*
X14104619Y-14461952D01*
X14095095Y-14442905D01*
X14095095Y-14366714D01*
X14104619Y-14347667D01*
X14123667Y-14338143D01*
X14161762Y-14338143D01*
X14180809Y-14347667D01*
X14190333Y-14366714D01*
X14190333Y-14385762D01*
X14095095Y-14404809D01*
X14266524Y-14461952D02*
X14285571Y-14471476D01*
X14323667Y-14471476D01*
X14342714Y-14461952D01*
X14352238Y-14442905D01*
X14352238Y-14433381D01*
X14342714Y-14414333D01*
X14323667Y-14404809D01*
X14295095Y-14404809D01*
X14276048Y-14395286D01*
X14266524Y-14376238D01*
X14266524Y-14366714D01*
X14276048Y-14347667D01*
X14295095Y-14338143D01*
X14323667Y-14338143D01*
X14342714Y-14347667D01*
X14418905Y-14547667D02*
X14428428Y-14538143D01*
X14447476Y-14509571D01*
X14457000Y-14490524D01*
X14466524Y-14461952D01*
X14476048Y-14414333D01*
X14476048Y-14376238D01*
X14466524Y-14328619D01*
X14457000Y-14300048D01*
X14447476Y-14281000D01*
X14428428Y-14252428D01*
X14418905Y-14242905D01*
D15*
X9629427Y-14687427D02*
X9629427Y-14602573D01*
X9544573Y-14602573D01*
X9544573Y-14687427D01*
X9629427Y-14687427D01*
D11*
X10009381Y-14735476D02*
X9895095Y-14735476D01*
X9952238Y-14735476D02*
X9952238Y-14535476D01*
X9933190Y-14564048D01*
X9914143Y-14583095D01*
X9895095Y-14592619D01*
X10095095Y-14716428D02*
X10104619Y-14725952D01*
X10095095Y-14735476D01*
X10085571Y-14725952D01*
X10095095Y-14716428D01*
X10095095Y-14735476D01*
X10180810Y-14554524D02*
X10190333Y-14545000D01*
X10209381Y-14535476D01*
X10257000Y-14535476D01*
X10276048Y-14545000D01*
X10285571Y-14554524D01*
X10295095Y-14573571D01*
X10295095Y-14592619D01*
X10285571Y-14621190D01*
X10171286Y-14735476D01*
X10295095Y-14735476D01*
X10418905Y-14535476D02*
X10437952Y-14535476D01*
X10457000Y-14545000D01*
X10466524Y-14554524D01*
X10476048Y-14573571D01*
X10485571Y-14611667D01*
X10485571Y-14659286D01*
X10476048Y-14697381D01*
X10466524Y-14716428D01*
X10457000Y-14725952D01*
X10437952Y-14735476D01*
X10418905Y-14735476D01*
X10399857Y-14725952D01*
X10390333Y-14716428D01*
X10380810Y-14697381D01*
X10371286Y-14659286D01*
X10371286Y-14611667D01*
X10380810Y-14573571D01*
X10390333Y-14554524D01*
X10399857Y-14545000D01*
X10418905Y-14535476D01*
X10609381Y-14535476D02*
X10628429Y-14535476D01*
X10647476Y-14545000D01*
X10657000Y-14554524D01*
X10666524Y-14573571D01*
X10676048Y-14611667D01*
X10676048Y-14659286D01*
X10666524Y-14697381D01*
X10657000Y-14716428D01*
X10647476Y-14725952D01*
X10628429Y-14735476D01*
X10609381Y-14735476D01*
X10590333Y-14725952D01*
X10580810Y-14716428D01*
X10571286Y-14697381D01*
X10561762Y-14659286D01*
X10561762Y-14611667D01*
X10571286Y-14573571D01*
X10580810Y-14554524D01*
X10590333Y-14545000D01*
X10609381Y-14535476D01*
X10761762Y-14735476D02*
X10761762Y-14602143D01*
X10761762Y-14621190D02*
X10771286Y-14611667D01*
X10790333Y-14602143D01*
X10818905Y-14602143D01*
X10837952Y-14611667D01*
X10847476Y-14630714D01*
X10847476Y-14735476D01*
X10847476Y-14630714D02*
X10857000Y-14611667D01*
X10876048Y-14602143D01*
X10904619Y-14602143D01*
X10923667Y-14611667D01*
X10933190Y-14630714D01*
X10933190Y-14735476D01*
X11028429Y-14735476D02*
X11028429Y-14602143D01*
X11028429Y-14621190D02*
X11037952Y-14611667D01*
X11057000Y-14602143D01*
X11085571Y-14602143D01*
X11104619Y-14611667D01*
X11114143Y-14630714D01*
X11114143Y-14735476D01*
X11114143Y-14630714D02*
X11123667Y-14611667D01*
X11142714Y-14602143D01*
X11171286Y-14602143D01*
X11190333Y-14611667D01*
X11199857Y-14630714D01*
X11199857Y-14735476D01*
X11590333Y-14525952D02*
X11418905Y-14783095D01*
X11847476Y-14535476D02*
X11866524Y-14535476D01*
X11885571Y-14545000D01*
X11895095Y-14554524D01*
X11904619Y-14573571D01*
X11914143Y-14611667D01*
X11914143Y-14659286D01*
X11904619Y-14697381D01*
X11895095Y-14716428D01*
X11885571Y-14725952D01*
X11866524Y-14735476D01*
X11847476Y-14735476D01*
X11828428Y-14725952D01*
X11818905Y-14716428D01*
X11809381Y-14697381D01*
X11799857Y-14659286D01*
X11799857Y-14611667D01*
X11809381Y-14573571D01*
X11818905Y-14554524D01*
X11828428Y-14545000D01*
X11847476Y-14535476D01*
X11999857Y-14716428D02*
X12009381Y-14725952D01*
X11999857Y-14735476D01*
X11990333Y-14725952D01*
X11999857Y-14716428D01*
X11999857Y-14735476D01*
X12133190Y-14535476D02*
X12152238Y-14535476D01*
X12171286Y-14545000D01*
X12180809Y-14554524D01*
X12190333Y-14573571D01*
X12199857Y-14611667D01*
X12199857Y-14659286D01*
X12190333Y-14697381D01*
X12180809Y-14716428D01*
X12171286Y-14725952D01*
X12152238Y-14735476D01*
X12133190Y-14735476D01*
X12114143Y-14725952D01*
X12104619Y-14716428D01*
X12095095Y-14697381D01*
X12085571Y-14659286D01*
X12085571Y-14611667D01*
X12095095Y-14573571D01*
X12104619Y-14554524D01*
X12114143Y-14545000D01*
X12133190Y-14535476D01*
X12371286Y-14602143D02*
X12371286Y-14735476D01*
X12323667Y-14525952D02*
X12276048Y-14668809D01*
X12399857Y-14668809D01*
X12457000Y-14535476D02*
X12590333Y-14535476D01*
X12504619Y-14735476D01*
X12657000Y-14554524D02*
X12666524Y-14545000D01*
X12685571Y-14535476D01*
X12733190Y-14535476D01*
X12752238Y-14545000D01*
X12761762Y-14554524D01*
X12771286Y-14573571D01*
X12771286Y-14592619D01*
X12761762Y-14621190D01*
X12647476Y-14735476D01*
X12771286Y-14735476D01*
X12847476Y-14535476D02*
X12847476Y-14573571D01*
X12923667Y-14535476D02*
X12923667Y-14573571D01*
X13218905Y-14811667D02*
X13209381Y-14802143D01*
X13190333Y-14773571D01*
X13180809Y-14754524D01*
X13171286Y-14725952D01*
X13161762Y-14678333D01*
X13161762Y-14640238D01*
X13171286Y-14592619D01*
X13180809Y-14564048D01*
X13190333Y-14545000D01*
X13209381Y-14516428D01*
X13218905Y-14506905D01*
X13399857Y-14735476D02*
X13285571Y-14735476D01*
X13342714Y-14735476D02*
X13342714Y-14535476D01*
X13323667Y-14564048D01*
X13304619Y-14583095D01*
X13285571Y-14592619D01*
X13466524Y-14535476D02*
X13590333Y-14535476D01*
X13523667Y-14611667D01*
X13552238Y-14611667D01*
X13571286Y-14621190D01*
X13580809Y-14630714D01*
X13590333Y-14649762D01*
X13590333Y-14697381D01*
X13580809Y-14716428D01*
X13571286Y-14725952D01*
X13552238Y-14735476D01*
X13495095Y-14735476D01*
X13476048Y-14725952D01*
X13466524Y-14716428D01*
X13828428Y-14735476D02*
X13828428Y-14535476D01*
X13914143Y-14735476D02*
X13914143Y-14630714D01*
X13904619Y-14611667D01*
X13885571Y-14602143D01*
X13857000Y-14602143D01*
X13837952Y-14611667D01*
X13828428Y-14621190D01*
X14037952Y-14735476D02*
X14018905Y-14725952D01*
X14009381Y-14716428D01*
X13999857Y-14697381D01*
X13999857Y-14640238D01*
X14009381Y-14621190D01*
X14018905Y-14611667D01*
X14037952Y-14602143D01*
X14066524Y-14602143D01*
X14085571Y-14611667D01*
X14095095Y-14621190D01*
X14104619Y-14640238D01*
X14104619Y-14697381D01*
X14095095Y-14716428D01*
X14085571Y-14725952D01*
X14066524Y-14735476D01*
X14037952Y-14735476D01*
X14218905Y-14735476D02*
X14199857Y-14725952D01*
X14190333Y-14706905D01*
X14190333Y-14535476D01*
X14371286Y-14725952D02*
X14352238Y-14735476D01*
X14314143Y-14735476D01*
X14295095Y-14725952D01*
X14285571Y-14706905D01*
X14285571Y-14630714D01*
X14295095Y-14611667D01*
X14314143Y-14602143D01*
X14352238Y-14602143D01*
X14371286Y-14611667D01*
X14380809Y-14630714D01*
X14380809Y-14649762D01*
X14285571Y-14668809D01*
X14457000Y-14725952D02*
X14476048Y-14735476D01*
X14514143Y-14735476D01*
X14533190Y-14725952D01*
X14542714Y-14706905D01*
X14542714Y-14697381D01*
X14533190Y-14678333D01*
X14514143Y-14668809D01*
X14485571Y-14668809D01*
X14466524Y-14659286D01*
X14457000Y-14640238D01*
X14457000Y-14630714D01*
X14466524Y-14611667D01*
X14485571Y-14602143D01*
X14514143Y-14602143D01*
X14533190Y-14611667D01*
X14609381Y-14811667D02*
X14618905Y-14802143D01*
X14637952Y-14773571D01*
X14647476Y-14754524D01*
X14657000Y-14725952D01*
X14666524Y-14678333D01*
X14666524Y-14640238D01*
X14657000Y-14592619D01*
X14647476Y-14564048D01*
X14637952Y-14545000D01*
X14618905Y-14516428D01*
X14609381Y-14506905D01*
D16*
X9567000Y-14989000D02*
X9647000Y-14909000D01*
X9567000Y-14829000D01*
X9487000Y-14909000D01*
X9567000Y-14989000D01*
D11*
X10009381Y-14999476D02*
X9895095Y-14999476D01*
X9952238Y-14999476D02*
X9952238Y-14799476D01*
X9933190Y-14828048D01*
X9914143Y-14847095D01*
X9895095Y-14856619D01*
X10095095Y-14980428D02*
X10104619Y-14989952D01*
X10095095Y-14999476D01*
X10085571Y-14989952D01*
X10095095Y-14980428D01*
X10095095Y-14999476D01*
X10276048Y-14799476D02*
X10237952Y-14799476D01*
X10218905Y-14809000D01*
X10209381Y-14818524D01*
X10190333Y-14847095D01*
X10180810Y-14885190D01*
X10180810Y-14961381D01*
X10190333Y-14980428D01*
X10199857Y-14989952D01*
X10218905Y-14999476D01*
X10257000Y-14999476D01*
X10276048Y-14989952D01*
X10285571Y-14980428D01*
X10295095Y-14961381D01*
X10295095Y-14913762D01*
X10285571Y-14894714D01*
X10276048Y-14885190D01*
X10257000Y-14875667D01*
X10218905Y-14875667D01*
X10199857Y-14885190D01*
X10190333Y-14894714D01*
X10180810Y-14913762D01*
X10418905Y-14799476D02*
X10437952Y-14799476D01*
X10457000Y-14809000D01*
X10466524Y-14818524D01*
X10476048Y-14837571D01*
X10485571Y-14875667D01*
X10485571Y-14923286D01*
X10476048Y-14961381D01*
X10466524Y-14980428D01*
X10457000Y-14989952D01*
X10437952Y-14999476D01*
X10418905Y-14999476D01*
X10399857Y-14989952D01*
X10390333Y-14980428D01*
X10380810Y-14961381D01*
X10371286Y-14923286D01*
X10371286Y-14875667D01*
X10380810Y-14837571D01*
X10390333Y-14818524D01*
X10399857Y-14809000D01*
X10418905Y-14799476D01*
X10609381Y-14799476D02*
X10628429Y-14799476D01*
X10647476Y-14809000D01*
X10657000Y-14818524D01*
X10666524Y-14837571D01*
X10676048Y-14875667D01*
X10676048Y-14923286D01*
X10666524Y-14961381D01*
X10657000Y-14980428D01*
X10647476Y-14989952D01*
X10628429Y-14999476D01*
X10609381Y-14999476D01*
X10590333Y-14989952D01*
X10580810Y-14980428D01*
X10571286Y-14961381D01*
X10561762Y-14923286D01*
X10561762Y-14875667D01*
X10571286Y-14837571D01*
X10580810Y-14818524D01*
X10590333Y-14809000D01*
X10609381Y-14799476D01*
X10761762Y-14999476D02*
X10761762Y-14866143D01*
X10761762Y-14885190D02*
X10771286Y-14875667D01*
X10790333Y-14866143D01*
X10818905Y-14866143D01*
X10837952Y-14875667D01*
X10847476Y-14894714D01*
X10847476Y-14999476D01*
X10847476Y-14894714D02*
X10857000Y-14875667D01*
X10876048Y-14866143D01*
X10904619Y-14866143D01*
X10923667Y-14875667D01*
X10933190Y-14894714D01*
X10933190Y-14999476D01*
X11028429Y-14999476D02*
X11028429Y-14866143D01*
X11028429Y-14885190D02*
X11037952Y-14875667D01*
X11057000Y-14866143D01*
X11085571Y-14866143D01*
X11104619Y-14875667D01*
X11114143Y-14894714D01*
X11114143Y-14999476D01*
X11114143Y-14894714D02*
X11123667Y-14875667D01*
X11142714Y-14866143D01*
X11171286Y-14866143D01*
X11190333Y-14875667D01*
X11199857Y-14894714D01*
X11199857Y-14999476D01*
X11590333Y-14789952D02*
X11418905Y-15047095D01*
X11847476Y-14799476D02*
X11866524Y-14799476D01*
X11885571Y-14809000D01*
X11895095Y-14818524D01*
X11904619Y-14837571D01*
X11914143Y-14875667D01*
X11914143Y-14923286D01*
X11904619Y-14961381D01*
X11895095Y-14980428D01*
X11885571Y-14989952D01*
X11866524Y-14999476D01*
X11847476Y-14999476D01*
X11828428Y-14989952D01*
X11818905Y-14980428D01*
X11809381Y-14961381D01*
X11799857Y-14923286D01*
X11799857Y-14875667D01*
X11809381Y-14837571D01*
X11818905Y-14818524D01*
X11828428Y-14809000D01*
X11847476Y-14799476D01*
X11999857Y-14980428D02*
X12009381Y-14989952D01*
X11999857Y-14999476D01*
X11990333Y-14989952D01*
X11999857Y-14980428D01*
X11999857Y-14999476D01*
X12133190Y-14799476D02*
X12152238Y-14799476D01*
X12171286Y-14809000D01*
X12180809Y-14818524D01*
X12190333Y-14837571D01*
X12199857Y-14875667D01*
X12199857Y-14923286D01*
X12190333Y-14961381D01*
X12180809Y-14980428D01*
X12171286Y-14989952D01*
X12152238Y-14999476D01*
X12133190Y-14999476D01*
X12114143Y-14989952D01*
X12104619Y-14980428D01*
X12095095Y-14961381D01*
X12085571Y-14923286D01*
X12085571Y-14875667D01*
X12095095Y-14837571D01*
X12104619Y-14818524D01*
X12114143Y-14809000D01*
X12133190Y-14799476D01*
X12371286Y-14799476D02*
X12333190Y-14799476D01*
X12314143Y-14809000D01*
X12304619Y-14818524D01*
X12285571Y-14847095D01*
X12276048Y-14885190D01*
X12276048Y-14961381D01*
X12285571Y-14980428D01*
X12295095Y-14989952D01*
X12314143Y-14999476D01*
X12352238Y-14999476D01*
X12371286Y-14989952D01*
X12380809Y-14980428D01*
X12390333Y-14961381D01*
X12390333Y-14913762D01*
X12380809Y-14894714D01*
X12371286Y-14885190D01*
X12352238Y-14875667D01*
X12314143Y-14875667D01*
X12295095Y-14885190D01*
X12285571Y-14894714D01*
X12276048Y-14913762D01*
X12457000Y-14799476D02*
X12580809Y-14799476D01*
X12514143Y-14875667D01*
X12542714Y-14875667D01*
X12561762Y-14885190D01*
X12571286Y-14894714D01*
X12580809Y-14913762D01*
X12580809Y-14961381D01*
X12571286Y-14980428D01*
X12561762Y-14989952D01*
X12542714Y-14999476D01*
X12485571Y-14999476D01*
X12466524Y-14989952D01*
X12457000Y-14980428D01*
X12704619Y-14799476D02*
X12723667Y-14799476D01*
X12742714Y-14809000D01*
X12752238Y-14818524D01*
X12761762Y-14837571D01*
X12771286Y-14875667D01*
X12771286Y-14923286D01*
X12761762Y-14961381D01*
X12752238Y-14980428D01*
X12742714Y-14989952D01*
X12723667Y-14999476D01*
X12704619Y-14999476D01*
X12685571Y-14989952D01*
X12676048Y-14980428D01*
X12666524Y-14961381D01*
X12657000Y-14923286D01*
X12657000Y-14875667D01*
X12666524Y-14837571D01*
X12676048Y-14818524D01*
X12685571Y-14809000D01*
X12704619Y-14799476D01*
X12847476Y-14799476D02*
X12847476Y-14837571D01*
X12923667Y-14799476D02*
X12923667Y-14837571D01*
X13218905Y-15075667D02*
X13209381Y-15066143D01*
X13190333Y-15037571D01*
X13180809Y-15018524D01*
X13171286Y-14989952D01*
X13161762Y-14942333D01*
X13161762Y-14904238D01*
X13171286Y-14856619D01*
X13180809Y-14828048D01*
X13190333Y-14809000D01*
X13209381Y-14780428D01*
X13218905Y-14770905D01*
X13399857Y-14999476D02*
X13285571Y-14999476D01*
X13342714Y-14999476D02*
X13342714Y-14799476D01*
X13323667Y-14828048D01*
X13304619Y-14847095D01*
X13285571Y-14856619D01*
X13466524Y-14799476D02*
X13590333Y-14799476D01*
X13523667Y-14875667D01*
X13552238Y-14875667D01*
X13571286Y-14885190D01*
X13580809Y-14894714D01*
X13590333Y-14913762D01*
X13590333Y-14961381D01*
X13580809Y-14980428D01*
X13571286Y-14989952D01*
X13552238Y-14999476D01*
X13495095Y-14999476D01*
X13476048Y-14989952D01*
X13466524Y-14980428D01*
X13828428Y-14999476D02*
X13828428Y-14799476D01*
X13914143Y-14999476D02*
X13914143Y-14894714D01*
X13904619Y-14875667D01*
X13885571Y-14866143D01*
X13857000Y-14866143D01*
X13837952Y-14875667D01*
X13828428Y-14885190D01*
X14037952Y-14999476D02*
X14018905Y-14989952D01*
X14009381Y-14980428D01*
X13999857Y-14961381D01*
X13999857Y-14904238D01*
X14009381Y-14885190D01*
X14018905Y-14875667D01*
X14037952Y-14866143D01*
X14066524Y-14866143D01*
X14085571Y-14875667D01*
X14095095Y-14885190D01*
X14104619Y-14904238D01*
X14104619Y-14961381D01*
X14095095Y-14980428D01*
X14085571Y-14989952D01*
X14066524Y-14999476D01*
X14037952Y-14999476D01*
X14218905Y-14999476D02*
X14199857Y-14989952D01*
X14190333Y-14970905D01*
X14190333Y-14799476D01*
X14371286Y-14989952D02*
X14352238Y-14999476D01*
X14314143Y-14999476D01*
X14295095Y-14989952D01*
X14285571Y-14970905D01*
X14285571Y-14894714D01*
X14295095Y-14875667D01*
X14314143Y-14866143D01*
X14352238Y-14866143D01*
X14371286Y-14875667D01*
X14380809Y-14894714D01*
X14380809Y-14913762D01*
X14285571Y-14932809D01*
X14457000Y-14989952D02*
X14476048Y-14999476D01*
X14514143Y-14999476D01*
X14533190Y-14989952D01*
X14542714Y-14970905D01*
X14542714Y-14961381D01*
X14533190Y-14942333D01*
X14514143Y-14932809D01*
X14485571Y-14932809D01*
X14466524Y-14923286D01*
X14457000Y-14904238D01*
X14457000Y-14894714D01*
X14466524Y-14875667D01*
X14485571Y-14866143D01*
X14514143Y-14866143D01*
X14533190Y-14875667D01*
X14609381Y-15075667D02*
X14618905Y-15066143D01*
X14637952Y-15037571D01*
X14647476Y-15018524D01*
X14657000Y-14989952D01*
X14666524Y-14942333D01*
X14666524Y-14904238D01*
X14657000Y-14856619D01*
X14647476Y-14828048D01*
X14637952Y-14809000D01*
X14618905Y-14780428D01*
X14609381Y-14770905D01*
M02*
