G04 #@! TF.GenerationSoftware,KiCad,Pcbnew,(6.0.11)*
G04 #@! TF.CreationDate,2023-02-03T17:13:15+09:00*
G04 #@! TF.ProjectId,12V_Dual_5V_PSU,3132565f-4475-4616-9c5f-35565f505355,Ver. 1.1*
G04 #@! TF.SameCoordinates,Original*
G04 #@! TF.FileFunction,Legend,Top*
G04 #@! TF.FilePolarity,Positive*
%FSLAX46Y46*%
G04 Gerber Fmt 4.6, Leading zero omitted, Abs format (unit mm)*
G04 Created by KiCad (PCBNEW (6.0.11)) date 2023-02-03 17:13:15*
%MOMM*%
%LPD*%
G01*
G04 APERTURE LIST*
G04 Aperture macros list*
%AMRoundRect*
0 Rectangle with rounded corners*
0 $1 Rounding radius*
0 $2 $3 $4 $5 $6 $7 $8 $9 X,Y pos of 4 corners*
0 Add a 4 corners polygon primitive as box body*
4,1,4,$2,$3,$4,$5,$6,$7,$8,$9,$2,$3,0*
0 Add four circle primitives for the rounded corners*
1,1,$1+$1,$2,$3*
1,1,$1+$1,$4,$5*
1,1,$1+$1,$6,$7*
1,1,$1+$1,$8,$9*
0 Add four rect primitives between the rounded corners*
20,1,$1+$1,$2,$3,$4,$5,0*
20,1,$1+$1,$4,$5,$6,$7,0*
20,1,$1+$1,$6,$7,$8,$9,0*
20,1,$1+$1,$8,$9,$2,$3,0*%
G04 Aperture macros list end*
%ADD10C,0.150000*%
%ADD11C,0.100000*%
%ADD12C,0.500000*%
%ADD13C,0.200000*%
%ADD14C,0.300000*%
%ADD15C,0.120000*%
%ADD16C,1.600000*%
%ADD17R,1.600000X1.600000*%
%ADD18O,1.600000X1.600000*%
%ADD19R,3.200000X3.200000*%
%ADD20C,3.200000*%
%ADD21RoundRect,0.250000X-0.725000X0.600000X-0.725000X-0.600000X0.725000X-0.600000X0.725000X0.600000X0*%
%ADD22O,1.950000X1.700000*%
%ADD23R,1.905000X2.000000*%
%ADD24O,1.905000X2.000000*%
%ADD25C,2.600000*%
%ADD26RoundRect,0.250000X0.725000X-0.600000X0.725000X0.600000X-0.725000X0.600000X-0.725000X-0.600000X0*%
%ADD27R,1.800000X1.800000*%
%ADD28C,1.800000*%
%ADD29R,2.400000X2.400000*%
%ADD30C,2.400000*%
G04 APERTURE END LIST*
D10*
X178887380Y-118141428D02*
X177887380Y-118141428D01*
X177887380Y-117903333D01*
X177935000Y-117760476D01*
X178030238Y-117665238D01*
X178125476Y-117617619D01*
X178315952Y-117570000D01*
X178458809Y-117570000D01*
X178649285Y-117617619D01*
X178744523Y-117665238D01*
X178839761Y-117760476D01*
X178887380Y-117903333D01*
X178887380Y-118141428D01*
X178792142Y-116570000D02*
X178839761Y-116617619D01*
X178887380Y-116760476D01*
X178887380Y-116855714D01*
X178839761Y-116998571D01*
X178744523Y-117093809D01*
X178649285Y-117141428D01*
X178458809Y-117189047D01*
X178315952Y-117189047D01*
X178125476Y-117141428D01*
X178030238Y-117093809D01*
X177935000Y-116998571D01*
X177887380Y-116855714D01*
X177887380Y-116760476D01*
X177935000Y-116617619D01*
X177982619Y-116570000D01*
X178982619Y-116379523D02*
X178982619Y-115617619D01*
X177887380Y-115189047D02*
X177887380Y-114998571D01*
X177935000Y-114903333D01*
X178030238Y-114808095D01*
X178220714Y-114760476D01*
X178554047Y-114760476D01*
X178744523Y-114808095D01*
X178839761Y-114903333D01*
X178887380Y-114998571D01*
X178887380Y-115189047D01*
X178839761Y-115284285D01*
X178744523Y-115379523D01*
X178554047Y-115427142D01*
X178220714Y-115427142D01*
X178030238Y-115379523D01*
X177935000Y-115284285D01*
X177887380Y-115189047D01*
X177887380Y-114331904D02*
X178696904Y-114331904D01*
X178792142Y-114284285D01*
X178839761Y-114236666D01*
X178887380Y-114141428D01*
X178887380Y-113950952D01*
X178839761Y-113855714D01*
X178792142Y-113808095D01*
X178696904Y-113760476D01*
X177887380Y-113760476D01*
X177887380Y-113427142D02*
X177887380Y-112855714D01*
X178887380Y-113141428D02*
X177887380Y-113141428D01*
X105243333Y-97239047D02*
X105243333Y-97715238D01*
X104957619Y-97143809D02*
X105957619Y-97477142D01*
X104957619Y-97810476D01*
X105052857Y-98715238D02*
X105005238Y-98667619D01*
X104957619Y-98524761D01*
X104957619Y-98429523D01*
X105005238Y-98286666D01*
X105100476Y-98191428D01*
X105195714Y-98143809D01*
X105386190Y-98096190D01*
X105529047Y-98096190D01*
X105719523Y-98143809D01*
X105814761Y-98191428D01*
X105910000Y-98286666D01*
X105957619Y-98429523D01*
X105957619Y-98524761D01*
X105910000Y-98667619D01*
X105862380Y-98715238D01*
X104862380Y-98905714D02*
X104862380Y-99667619D01*
X104957619Y-99905714D02*
X105957619Y-99905714D01*
X104957619Y-100381904D02*
X105957619Y-100381904D01*
X104957619Y-100953333D01*
X105957619Y-100953333D01*
X97083571Y-92393333D02*
X97131190Y-92440952D01*
X97178809Y-92536190D01*
X97083571Y-92726666D01*
X97131190Y-92821904D01*
X97178809Y-92869523D01*
X96702619Y-93774285D02*
X96702619Y-93202857D01*
X96702619Y-93488571D02*
X97702619Y-93488571D01*
X97559761Y-93393333D01*
X97464523Y-93298095D01*
X97416904Y-93202857D01*
X97702619Y-94679047D02*
X97702619Y-94202857D01*
X97226428Y-94155238D01*
X97274047Y-94202857D01*
X97321666Y-94298095D01*
X97321666Y-94536190D01*
X97274047Y-94631428D01*
X97226428Y-94679047D01*
X97131190Y-94726666D01*
X96893095Y-94726666D01*
X96797857Y-94679047D01*
X96750238Y-94631428D01*
X96702619Y-94536190D01*
X96702619Y-94298095D01*
X96750238Y-94202857D01*
X96797857Y-94155238D01*
X97702619Y-95012380D02*
X96702619Y-95345714D01*
X97702619Y-95679047D01*
X97655000Y-98060000D02*
X97702619Y-97964761D01*
X97702619Y-97821904D01*
X97655000Y-97679047D01*
X97559761Y-97583809D01*
X97464523Y-97536190D01*
X97274047Y-97488571D01*
X97131190Y-97488571D01*
X96940714Y-97536190D01*
X96845476Y-97583809D01*
X96750238Y-97679047D01*
X96702619Y-97821904D01*
X96702619Y-97917142D01*
X96750238Y-98060000D01*
X96797857Y-98107619D01*
X97131190Y-98107619D01*
X97131190Y-97917142D01*
X97655000Y-100583809D02*
X97702619Y-100488571D01*
X97702619Y-100345714D01*
X97655000Y-100202857D01*
X97559761Y-100107619D01*
X97464523Y-100060000D01*
X97274047Y-100012380D01*
X97131190Y-100012380D01*
X96940714Y-100060000D01*
X96845476Y-100107619D01*
X96750238Y-100202857D01*
X96702619Y-100345714D01*
X96702619Y-100440952D01*
X96750238Y-100583809D01*
X96797857Y-100631428D01*
X97131190Y-100631428D01*
X97131190Y-100440952D01*
X97083571Y-102440952D02*
X97131190Y-102488571D01*
X97178809Y-102583809D01*
X97083571Y-102774285D01*
X97131190Y-102869523D01*
X97178809Y-102917142D01*
X96702619Y-103821904D02*
X96702619Y-103250476D01*
X96702619Y-103536190D02*
X97702619Y-103536190D01*
X97559761Y-103440952D01*
X97464523Y-103345714D01*
X97416904Y-103250476D01*
X97702619Y-104726666D02*
X97702619Y-104250476D01*
X97226428Y-104202857D01*
X97274047Y-104250476D01*
X97321666Y-104345714D01*
X97321666Y-104583809D01*
X97274047Y-104679047D01*
X97226428Y-104726666D01*
X97131190Y-104774285D01*
X96893095Y-104774285D01*
X96797857Y-104726666D01*
X96750238Y-104679047D01*
X96702619Y-104583809D01*
X96702619Y-104345714D01*
X96750238Y-104250476D01*
X96797857Y-104202857D01*
X97702619Y-105060000D02*
X96702619Y-105393333D01*
X97702619Y-105726666D01*
D11*
X186747142Y-122452619D02*
X186747142Y-121843095D01*
X187051904Y-121043095D02*
X187051904Y-121500238D01*
X187051904Y-121271666D02*
X186251904Y-121271666D01*
X186366190Y-121347857D01*
X186442380Y-121424047D01*
X186480476Y-121500238D01*
X186328095Y-120738333D02*
X186290000Y-120700238D01*
X186251904Y-120624047D01*
X186251904Y-120433571D01*
X186290000Y-120357380D01*
X186328095Y-120319285D01*
X186404285Y-120281190D01*
X186480476Y-120281190D01*
X186594761Y-120319285D01*
X187051904Y-120776428D01*
X187051904Y-120281190D01*
X186251904Y-120052619D02*
X187051904Y-119785952D01*
X186251904Y-119519285D01*
X186290000Y-118224047D02*
X186251904Y-118300238D01*
X186251904Y-118414523D01*
X186290000Y-118528809D01*
X186366190Y-118605000D01*
X186442380Y-118643095D01*
X186594761Y-118681190D01*
X186709047Y-118681190D01*
X186861428Y-118643095D01*
X186937619Y-118605000D01*
X187013809Y-118528809D01*
X187051904Y-118414523D01*
X187051904Y-118338333D01*
X187013809Y-118224047D01*
X186975714Y-118185952D01*
X186709047Y-118185952D01*
X186709047Y-118338333D01*
X186747142Y-117233571D02*
X186747142Y-116624047D01*
X187051904Y-116928809D02*
X186442380Y-116928809D01*
X187051904Y-115824047D02*
X187051904Y-116281190D01*
X187051904Y-116052619D02*
X186251904Y-116052619D01*
X186366190Y-116128809D01*
X186442380Y-116205000D01*
X186480476Y-116281190D01*
X186328095Y-115519285D02*
X186290000Y-115481190D01*
X186251904Y-115405000D01*
X186251904Y-115214523D01*
X186290000Y-115138333D01*
X186328095Y-115100238D01*
X186404285Y-115062142D01*
X186480476Y-115062142D01*
X186594761Y-115100238D01*
X187051904Y-115557380D01*
X187051904Y-115062142D01*
X186251904Y-114833571D02*
X187051904Y-114566904D01*
X186251904Y-114300238D01*
X186290000Y-113005000D02*
X186251904Y-113081190D01*
X186251904Y-113195476D01*
X186290000Y-113309761D01*
X186366190Y-113385952D01*
X186442380Y-113424047D01*
X186594761Y-113462142D01*
X186709047Y-113462142D01*
X186861428Y-113424047D01*
X186937619Y-113385952D01*
X187013809Y-113309761D01*
X187051904Y-113195476D01*
X187051904Y-113119285D01*
X187013809Y-113005000D01*
X186975714Y-112966904D01*
X186709047Y-112966904D01*
X186709047Y-113119285D01*
X186747142Y-112014523D02*
X186747142Y-111405000D01*
X187051904Y-111709761D02*
X186442380Y-111709761D01*
X186251904Y-110643095D02*
X186251904Y-111024047D01*
X186632857Y-111062142D01*
X186594761Y-111024047D01*
X186556666Y-110947857D01*
X186556666Y-110757380D01*
X186594761Y-110681190D01*
X186632857Y-110643095D01*
X186709047Y-110605000D01*
X186899523Y-110605000D01*
X186975714Y-110643095D01*
X187013809Y-110681190D01*
X187051904Y-110757380D01*
X187051904Y-110947857D01*
X187013809Y-111024047D01*
X186975714Y-111062142D01*
X186251904Y-110376428D02*
X187051904Y-110109761D01*
X186251904Y-109843095D01*
D12*
X191555714Y-114695714D02*
X191555714Y-113695714D01*
X193127142Y-113267142D02*
X193127142Y-114695714D01*
X190127142Y-114695714D01*
X190127142Y-113267142D01*
X193127142Y-110267142D02*
X191698571Y-111267142D01*
X193127142Y-111981428D02*
X190127142Y-111981428D01*
X190127142Y-110838571D01*
X190270000Y-110552857D01*
X190412857Y-110410000D01*
X190698571Y-110267142D01*
X191127142Y-110267142D01*
X191412857Y-110410000D01*
X191555714Y-110552857D01*
X191698571Y-110838571D01*
X191698571Y-111981428D01*
X193127142Y-108981428D02*
X190127142Y-108981428D01*
X193127142Y-107267142D02*
X191412857Y-108552857D01*
X190127142Y-107267142D02*
X191841428Y-108981428D01*
X193412857Y-106695714D02*
X193412857Y-104410000D01*
X193127142Y-103695714D02*
X190127142Y-103695714D01*
X190127142Y-102552857D01*
X190270000Y-102267142D01*
X190412857Y-102124285D01*
X190698571Y-101981428D01*
X191127142Y-101981428D01*
X191412857Y-102124285D01*
X191555714Y-102267142D01*
X191698571Y-102552857D01*
X191698571Y-103695714D01*
X192984285Y-100838571D02*
X193127142Y-100410000D01*
X193127142Y-99695714D01*
X192984285Y-99410000D01*
X192841428Y-99267142D01*
X192555714Y-99124285D01*
X192270000Y-99124285D01*
X191984285Y-99267142D01*
X191841428Y-99410000D01*
X191698571Y-99695714D01*
X191555714Y-100267142D01*
X191412857Y-100552857D01*
X191270000Y-100695714D01*
X190984285Y-100838571D01*
X190698571Y-100838571D01*
X190412857Y-100695714D01*
X190270000Y-100552857D01*
X190127142Y-100267142D01*
X190127142Y-99552857D01*
X190270000Y-99124285D01*
X190127142Y-97838571D02*
X192555714Y-97838571D01*
X192841428Y-97695714D01*
X192984285Y-97552857D01*
X193127142Y-97267142D01*
X193127142Y-96695714D01*
X192984285Y-96410000D01*
X192841428Y-96267142D01*
X192555714Y-96124285D01*
X190127142Y-96124285D01*
D13*
X103617619Y-67762380D02*
X103617619Y-66762380D01*
X104046190Y-67762380D02*
X104046190Y-67238571D01*
X103998571Y-67143333D01*
X103903333Y-67095714D01*
X103760476Y-67095714D01*
X103665238Y-67143333D01*
X103617619Y-67190952D01*
X104379523Y-67095714D02*
X104760476Y-67095714D01*
X104522380Y-66762380D02*
X104522380Y-67619523D01*
X104570000Y-67714761D01*
X104665238Y-67762380D01*
X104760476Y-67762380D01*
X104950952Y-67095714D02*
X105331904Y-67095714D01*
X105093809Y-66762380D02*
X105093809Y-67619523D01*
X105141428Y-67714761D01*
X105236666Y-67762380D01*
X105331904Y-67762380D01*
X105665238Y-67095714D02*
X105665238Y-68095714D01*
X105665238Y-67143333D02*
X105760476Y-67095714D01*
X105950952Y-67095714D01*
X106046190Y-67143333D01*
X106093809Y-67190952D01*
X106141428Y-67286190D01*
X106141428Y-67571904D01*
X106093809Y-67667142D01*
X106046190Y-67714761D01*
X105950952Y-67762380D01*
X105760476Y-67762380D01*
X105665238Y-67714761D01*
X106522380Y-67714761D02*
X106617619Y-67762380D01*
X106808095Y-67762380D01*
X106903333Y-67714761D01*
X106950952Y-67619523D01*
X106950952Y-67571904D01*
X106903333Y-67476666D01*
X106808095Y-67429047D01*
X106665238Y-67429047D01*
X106570000Y-67381428D01*
X106522380Y-67286190D01*
X106522380Y-67238571D01*
X106570000Y-67143333D01*
X106665238Y-67095714D01*
X106808095Y-67095714D01*
X106903333Y-67143333D01*
X107379523Y-67667142D02*
X107427142Y-67714761D01*
X107379523Y-67762380D01*
X107331904Y-67714761D01*
X107379523Y-67667142D01*
X107379523Y-67762380D01*
X107379523Y-67143333D02*
X107427142Y-67190952D01*
X107379523Y-67238571D01*
X107331904Y-67190952D01*
X107379523Y-67143333D01*
X107379523Y-67238571D01*
X108570000Y-66714761D02*
X107712857Y-68000476D01*
X109617619Y-66714761D02*
X108760476Y-68000476D01*
X110379523Y-67762380D02*
X110379523Y-66762380D01*
X110379523Y-67714761D02*
X110284285Y-67762380D01*
X110093809Y-67762380D01*
X109998571Y-67714761D01*
X109950952Y-67667142D01*
X109903333Y-67571904D01*
X109903333Y-67286190D01*
X109950952Y-67190952D01*
X109998571Y-67143333D01*
X110093809Y-67095714D01*
X110284285Y-67095714D01*
X110379523Y-67143333D01*
X111284285Y-67762380D02*
X111284285Y-67238571D01*
X111236666Y-67143333D01*
X111141428Y-67095714D01*
X110950952Y-67095714D01*
X110855714Y-67143333D01*
X111284285Y-67714761D02*
X111189047Y-67762380D01*
X110950952Y-67762380D01*
X110855714Y-67714761D01*
X110808095Y-67619523D01*
X110808095Y-67524285D01*
X110855714Y-67429047D01*
X110950952Y-67381428D01*
X111189047Y-67381428D01*
X111284285Y-67333809D01*
X112189047Y-67762380D02*
X112189047Y-66762380D01*
X112189047Y-67714761D02*
X112093809Y-67762380D01*
X111903333Y-67762380D01*
X111808095Y-67714761D01*
X111760476Y-67667142D01*
X111712857Y-67571904D01*
X111712857Y-67286190D01*
X111760476Y-67190952D01*
X111808095Y-67143333D01*
X111903333Y-67095714D01*
X112093809Y-67095714D01*
X112189047Y-67143333D01*
X112808095Y-67190952D02*
X112712857Y-67143333D01*
X112665238Y-67095714D01*
X112617619Y-67000476D01*
X112617619Y-66952857D01*
X112665238Y-66857619D01*
X112712857Y-66810000D01*
X112808095Y-66762380D01*
X112998571Y-66762380D01*
X113093809Y-66810000D01*
X113141428Y-66857619D01*
X113189047Y-66952857D01*
X113189047Y-67000476D01*
X113141428Y-67095714D01*
X113093809Y-67143333D01*
X112998571Y-67190952D01*
X112808095Y-67190952D01*
X112712857Y-67238571D01*
X112665238Y-67286190D01*
X112617619Y-67381428D01*
X112617619Y-67571904D01*
X112665238Y-67667142D01*
X112712857Y-67714761D01*
X112808095Y-67762380D01*
X112998571Y-67762380D01*
X113093809Y-67714761D01*
X113141428Y-67667142D01*
X113189047Y-67571904D01*
X113189047Y-67381428D01*
X113141428Y-67286190D01*
X113093809Y-67238571D01*
X112998571Y-67190952D01*
X113760476Y-67190952D02*
X113665238Y-67143333D01*
X113617619Y-67095714D01*
X113570000Y-67000476D01*
X113570000Y-66952857D01*
X113617619Y-66857619D01*
X113665238Y-66810000D01*
X113760476Y-66762380D01*
X113950952Y-66762380D01*
X114046190Y-66810000D01*
X114093809Y-66857619D01*
X114141428Y-66952857D01*
X114141428Y-67000476D01*
X114093809Y-67095714D01*
X114046190Y-67143333D01*
X113950952Y-67190952D01*
X113760476Y-67190952D01*
X113665238Y-67238571D01*
X113617619Y-67286190D01*
X113570000Y-67381428D01*
X113570000Y-67571904D01*
X113617619Y-67667142D01*
X113665238Y-67714761D01*
X113760476Y-67762380D01*
X113950952Y-67762380D01*
X114046190Y-67714761D01*
X114093809Y-67667142D01*
X114141428Y-67571904D01*
X114141428Y-67381428D01*
X114093809Y-67286190D01*
X114046190Y-67238571D01*
X113950952Y-67190952D01*
X114617619Y-67762380D02*
X114808095Y-67762380D01*
X114903333Y-67714761D01*
X114950952Y-67667142D01*
X115046190Y-67524285D01*
X115093809Y-67333809D01*
X115093809Y-66952857D01*
X115046190Y-66857619D01*
X114998571Y-66810000D01*
X114903333Y-66762380D01*
X114712857Y-66762380D01*
X114617619Y-66810000D01*
X114570000Y-66857619D01*
X114522380Y-66952857D01*
X114522380Y-67190952D01*
X114570000Y-67286190D01*
X114617619Y-67333809D01*
X114712857Y-67381428D01*
X114903333Y-67381428D01*
X114998571Y-67333809D01*
X115046190Y-67286190D01*
X115093809Y-67190952D01*
X115427142Y-66762380D02*
X116046190Y-66762380D01*
X115712857Y-67143333D01*
X115855714Y-67143333D01*
X115950952Y-67190952D01*
X115998571Y-67238571D01*
X116046190Y-67333809D01*
X116046190Y-67571904D01*
X115998571Y-67667142D01*
X115950952Y-67714761D01*
X115855714Y-67762380D01*
X115570000Y-67762380D01*
X115474761Y-67714761D01*
X115427142Y-67667142D01*
X116474761Y-67667142D02*
X116522380Y-67714761D01*
X116474761Y-67762380D01*
X116427142Y-67714761D01*
X116474761Y-67667142D01*
X116474761Y-67762380D01*
X116950952Y-67762380D02*
X116950952Y-66762380D01*
X116950952Y-67143333D02*
X117046190Y-67095714D01*
X117236666Y-67095714D01*
X117331904Y-67143333D01*
X117379523Y-67190952D01*
X117427142Y-67286190D01*
X117427142Y-67571904D01*
X117379523Y-67667142D01*
X117331904Y-67714761D01*
X117236666Y-67762380D01*
X117046190Y-67762380D01*
X116950952Y-67714761D01*
X117998571Y-67762380D02*
X117903333Y-67714761D01*
X117855714Y-67619523D01*
X117855714Y-66762380D01*
X118522380Y-67762380D02*
X118427142Y-67714761D01*
X118379523Y-67667142D01*
X118331904Y-67571904D01*
X118331904Y-67286190D01*
X118379523Y-67190952D01*
X118427142Y-67143333D01*
X118522380Y-67095714D01*
X118665238Y-67095714D01*
X118760476Y-67143333D01*
X118808095Y-67190952D01*
X118855714Y-67286190D01*
X118855714Y-67571904D01*
X118808095Y-67667142D01*
X118760476Y-67714761D01*
X118665238Y-67762380D01*
X118522380Y-67762380D01*
X119712857Y-67095714D02*
X119712857Y-67905238D01*
X119665238Y-68000476D01*
X119617619Y-68048095D01*
X119522380Y-68095714D01*
X119379523Y-68095714D01*
X119284285Y-68048095D01*
X119712857Y-67714761D02*
X119617619Y-67762380D01*
X119427142Y-67762380D01*
X119331904Y-67714761D01*
X119284285Y-67667142D01*
X119236666Y-67571904D01*
X119236666Y-67286190D01*
X119284285Y-67190952D01*
X119331904Y-67143333D01*
X119427142Y-67095714D01*
X119617619Y-67095714D01*
X119712857Y-67143333D01*
X120141428Y-67714761D02*
X120236666Y-67762380D01*
X120427142Y-67762380D01*
X120522380Y-67714761D01*
X120570000Y-67619523D01*
X120570000Y-67571904D01*
X120522380Y-67476666D01*
X120427142Y-67429047D01*
X120284285Y-67429047D01*
X120189047Y-67381428D01*
X120141428Y-67286190D01*
X120141428Y-67238571D01*
X120189047Y-67143333D01*
X120284285Y-67095714D01*
X120427142Y-67095714D01*
X120522380Y-67143333D01*
X120998571Y-67095714D02*
X120998571Y-68095714D01*
X120998571Y-67143333D02*
X121093809Y-67095714D01*
X121284285Y-67095714D01*
X121379523Y-67143333D01*
X121427142Y-67190952D01*
X121474761Y-67286190D01*
X121474761Y-67571904D01*
X121427142Y-67667142D01*
X121379523Y-67714761D01*
X121284285Y-67762380D01*
X121093809Y-67762380D01*
X120998571Y-67714761D01*
X122046190Y-67762380D02*
X121950952Y-67714761D01*
X121903333Y-67667142D01*
X121855714Y-67571904D01*
X121855714Y-67286190D01*
X121903333Y-67190952D01*
X121950952Y-67143333D01*
X122046190Y-67095714D01*
X122189047Y-67095714D01*
X122284285Y-67143333D01*
X122331904Y-67190952D01*
X122379523Y-67286190D01*
X122379523Y-67571904D01*
X122331904Y-67667142D01*
X122284285Y-67714761D01*
X122189047Y-67762380D01*
X122046190Y-67762380D01*
X122665238Y-67095714D02*
X123046190Y-67095714D01*
X122808095Y-66762380D02*
X122808095Y-67619523D01*
X122855714Y-67714761D01*
X122950952Y-67762380D01*
X123046190Y-67762380D01*
X123379523Y-67667142D02*
X123427142Y-67714761D01*
X123379523Y-67762380D01*
X123331904Y-67714761D01*
X123379523Y-67667142D01*
X123379523Y-67762380D01*
X124284285Y-67714761D02*
X124189047Y-67762380D01*
X123998571Y-67762380D01*
X123903333Y-67714761D01*
X123855714Y-67667142D01*
X123808095Y-67571904D01*
X123808095Y-67286190D01*
X123855714Y-67190952D01*
X123903333Y-67143333D01*
X123998571Y-67095714D01*
X124189047Y-67095714D01*
X124284285Y-67143333D01*
X124855714Y-67762380D02*
X124760476Y-67714761D01*
X124712857Y-67667142D01*
X124665238Y-67571904D01*
X124665238Y-67286190D01*
X124712857Y-67190952D01*
X124760476Y-67143333D01*
X124855714Y-67095714D01*
X124998571Y-67095714D01*
X125093809Y-67143333D01*
X125141428Y-67190952D01*
X125189047Y-67286190D01*
X125189047Y-67571904D01*
X125141428Y-67667142D01*
X125093809Y-67714761D01*
X124998571Y-67762380D01*
X124855714Y-67762380D01*
X125617619Y-67762380D02*
X125617619Y-67095714D01*
X125617619Y-67190952D02*
X125665238Y-67143333D01*
X125760476Y-67095714D01*
X125903333Y-67095714D01*
X125998571Y-67143333D01*
X126046190Y-67238571D01*
X126046190Y-67762380D01*
X126046190Y-67238571D02*
X126093809Y-67143333D01*
X126189047Y-67095714D01*
X126331904Y-67095714D01*
X126427142Y-67143333D01*
X126474761Y-67238571D01*
X126474761Y-67762380D01*
X127665238Y-66714761D02*
X126808095Y-68000476D01*
D14*
X191583571Y-92586428D02*
X193083571Y-92086428D01*
X191583571Y-91586428D01*
X193012142Y-90515000D02*
X193083571Y-90657857D01*
X193083571Y-90943571D01*
X193012142Y-91086428D01*
X192869285Y-91157857D01*
X192297857Y-91157857D01*
X192155000Y-91086428D01*
X192083571Y-90943571D01*
X192083571Y-90657857D01*
X192155000Y-90515000D01*
X192297857Y-90443571D01*
X192440714Y-90443571D01*
X192583571Y-91157857D01*
X193083571Y-89800714D02*
X192083571Y-89800714D01*
X192369285Y-89800714D02*
X192226428Y-89729285D01*
X192155000Y-89657857D01*
X192083571Y-89515000D01*
X192083571Y-89372142D01*
X192940714Y-88872142D02*
X193012142Y-88800714D01*
X193083571Y-88872142D01*
X193012142Y-88943571D01*
X192940714Y-88872142D01*
X193083571Y-88872142D01*
X193083571Y-86229285D02*
X193083571Y-87086428D01*
X193083571Y-86657857D02*
X191583571Y-86657857D01*
X191797857Y-86800714D01*
X191940714Y-86943571D01*
X192012142Y-87086428D01*
X192940714Y-85586428D02*
X193012142Y-85515000D01*
X193083571Y-85586428D01*
X193012142Y-85657857D01*
X192940714Y-85586428D01*
X193083571Y-85586428D01*
X193083571Y-84086428D02*
X193083571Y-84943571D01*
X193083571Y-84515000D02*
X191583571Y-84515000D01*
X191797857Y-84657857D01*
X191940714Y-84800714D01*
X192012142Y-84943571D01*
D10*
X165568333Y-90527142D02*
X165520714Y-90574761D01*
X165377857Y-90622380D01*
X165282619Y-90622380D01*
X165139761Y-90574761D01*
X165044523Y-90479523D01*
X164996904Y-90384285D01*
X164949285Y-90193809D01*
X164949285Y-90050952D01*
X164996904Y-89860476D01*
X165044523Y-89765238D01*
X165139761Y-89670000D01*
X165282619Y-89622380D01*
X165377857Y-89622380D01*
X165520714Y-89670000D01*
X165568333Y-89717619D01*
X165901666Y-89622380D02*
X166520714Y-89622380D01*
X166187380Y-90003333D01*
X166330238Y-90003333D01*
X166425476Y-90050952D01*
X166473095Y-90098571D01*
X166520714Y-90193809D01*
X166520714Y-90431904D01*
X166473095Y-90527142D01*
X166425476Y-90574761D01*
X166330238Y-90622380D01*
X166044523Y-90622380D01*
X165949285Y-90574761D01*
X165901666Y-90527142D01*
X136421904Y-102472380D02*
X136421904Y-101472380D01*
X136660000Y-101472380D01*
X136802857Y-101520000D01*
X136898095Y-101615238D01*
X136945714Y-101710476D01*
X136993333Y-101900952D01*
X136993333Y-102043809D01*
X136945714Y-102234285D01*
X136898095Y-102329523D01*
X136802857Y-102424761D01*
X136660000Y-102472380D01*
X136421904Y-102472380D01*
X137850476Y-101805714D02*
X137850476Y-102472380D01*
X137612380Y-101424761D02*
X137374285Y-102139047D01*
X137993333Y-102139047D01*
X133088095Y-102792380D02*
X133088095Y-101792380D01*
X133659523Y-102792380D02*
X133230952Y-102220952D01*
X133659523Y-101792380D02*
X133088095Y-102363809D01*
X177633333Y-103152380D02*
X177300000Y-102676190D01*
X177061904Y-103152380D02*
X177061904Y-102152380D01*
X177442857Y-102152380D01*
X177538095Y-102200000D01*
X177585714Y-102247619D01*
X177633333Y-102342857D01*
X177633333Y-102485714D01*
X177585714Y-102580952D01*
X177538095Y-102628571D01*
X177442857Y-102676190D01*
X177061904Y-102676190D01*
X178585714Y-103152380D02*
X178014285Y-103152380D01*
X178300000Y-103152380D02*
X178300000Y-102152380D01*
X178204761Y-102295238D01*
X178109523Y-102390476D01*
X178014285Y-102438095D01*
X171971904Y-96337380D02*
X171971904Y-95337380D01*
X172210000Y-95337380D01*
X172352857Y-95385000D01*
X172448095Y-95480238D01*
X172495714Y-95575476D01*
X172543333Y-95765952D01*
X172543333Y-95908809D01*
X172495714Y-96099285D01*
X172448095Y-96194523D01*
X172352857Y-96289761D01*
X172210000Y-96337380D01*
X171971904Y-96337380D01*
X172924285Y-95432619D02*
X172971904Y-95385000D01*
X173067142Y-95337380D01*
X173305238Y-95337380D01*
X173400476Y-95385000D01*
X173448095Y-95432619D01*
X173495714Y-95527857D01*
X173495714Y-95623095D01*
X173448095Y-95765952D01*
X172876666Y-96337380D01*
X173495714Y-96337380D01*
X168638095Y-96337380D02*
X168638095Y-95337380D01*
X169209523Y-96337380D02*
X168780952Y-95765952D01*
X169209523Y-95337380D02*
X168638095Y-95908809D01*
X109262380Y-99848095D02*
X108262380Y-99848095D01*
X108262380Y-99610000D01*
X108310000Y-99467142D01*
X108405238Y-99371904D01*
X108500476Y-99324285D01*
X108690952Y-99276666D01*
X108833809Y-99276666D01*
X109024285Y-99324285D01*
X109119523Y-99371904D01*
X109214761Y-99467142D01*
X109262380Y-99610000D01*
X109262380Y-99848095D01*
X109262380Y-98324285D02*
X109262380Y-98895714D01*
X109262380Y-98610000D02*
X108262380Y-98610000D01*
X108405238Y-98705238D01*
X108500476Y-98800476D01*
X108548095Y-98895714D01*
X177887380Y-122623333D02*
X178601666Y-122623333D01*
X178744523Y-122670952D01*
X178839761Y-122766190D01*
X178887380Y-122909047D01*
X178887380Y-123004285D01*
X177982619Y-122194761D02*
X177935000Y-122147142D01*
X177887380Y-122051904D01*
X177887380Y-121813809D01*
X177935000Y-121718571D01*
X177982619Y-121670952D01*
X178077857Y-121623333D01*
X178173095Y-121623333D01*
X178315952Y-121670952D01*
X178887380Y-122242380D01*
X178887380Y-121623333D01*
X177633333Y-108232380D02*
X177300000Y-107756190D01*
X177061904Y-108232380D02*
X177061904Y-107232380D01*
X177442857Y-107232380D01*
X177538095Y-107280000D01*
X177585714Y-107327619D01*
X177633333Y-107422857D01*
X177633333Y-107565714D01*
X177585714Y-107660952D01*
X177538095Y-107708571D01*
X177442857Y-107756190D01*
X177061904Y-107756190D01*
X178014285Y-107327619D02*
X178061904Y-107280000D01*
X178157142Y-107232380D01*
X178395238Y-107232380D01*
X178490476Y-107280000D01*
X178538095Y-107327619D01*
X178585714Y-107422857D01*
X178585714Y-107518095D01*
X178538095Y-107660952D01*
X177966666Y-108232380D01*
X178585714Y-108232380D01*
X148407380Y-89638095D02*
X147407380Y-89638095D01*
X147407380Y-89400000D01*
X147455000Y-89257142D01*
X147550238Y-89161904D01*
X147645476Y-89114285D01*
X147835952Y-89066666D01*
X147978809Y-89066666D01*
X148169285Y-89114285D01*
X148264523Y-89161904D01*
X148359761Y-89257142D01*
X148407380Y-89400000D01*
X148407380Y-89638095D01*
X147407380Y-88161904D02*
X147407380Y-88638095D01*
X147883571Y-88685714D01*
X147835952Y-88638095D01*
X147788333Y-88542857D01*
X147788333Y-88304761D01*
X147835952Y-88209523D01*
X147883571Y-88161904D01*
X147978809Y-88114285D01*
X148216904Y-88114285D01*
X148312142Y-88161904D01*
X148359761Y-88209523D01*
X148407380Y-88304761D01*
X148407380Y-88542857D01*
X148359761Y-88638095D01*
X148312142Y-88685714D01*
X148407380Y-92971904D02*
X147407380Y-92971904D01*
X148407380Y-92400476D02*
X147835952Y-92829047D01*
X147407380Y-92400476D02*
X147978809Y-92971904D01*
X155932142Y-105576666D02*
X155979761Y-105624285D01*
X156027380Y-105767142D01*
X156027380Y-105862380D01*
X155979761Y-106005238D01*
X155884523Y-106100476D01*
X155789285Y-106148095D01*
X155598809Y-106195714D01*
X155455952Y-106195714D01*
X155265476Y-106148095D01*
X155170238Y-106100476D01*
X155075000Y-106005238D01*
X155027380Y-105862380D01*
X155027380Y-105767142D01*
X155075000Y-105624285D01*
X155122619Y-105576666D01*
X156027380Y-105100476D02*
X156027380Y-104910000D01*
X155979761Y-104814761D01*
X155932142Y-104767142D01*
X155789285Y-104671904D01*
X155598809Y-104624285D01*
X155217857Y-104624285D01*
X155122619Y-104671904D01*
X155075000Y-104719523D01*
X155027380Y-104814761D01*
X155027380Y-105005238D01*
X155075000Y-105100476D01*
X155122619Y-105148095D01*
X155217857Y-105195714D01*
X155455952Y-105195714D01*
X155551190Y-105148095D01*
X155598809Y-105100476D01*
X155646428Y-105005238D01*
X155646428Y-104814761D01*
X155598809Y-104719523D01*
X155551190Y-104671904D01*
X155455952Y-104624285D01*
X130262380Y-86874904D02*
X131071904Y-86874904D01*
X131167142Y-86827285D01*
X131214761Y-86779666D01*
X131262380Y-86684428D01*
X131262380Y-86493952D01*
X131214761Y-86398714D01*
X131167142Y-86351095D01*
X131071904Y-86303476D01*
X130262380Y-86303476D01*
X130357619Y-85874904D02*
X130310000Y-85827285D01*
X130262380Y-85732047D01*
X130262380Y-85493952D01*
X130310000Y-85398714D01*
X130357619Y-85351095D01*
X130452857Y-85303476D01*
X130548095Y-85303476D01*
X130690952Y-85351095D01*
X131262380Y-85922523D01*
X131262380Y-85303476D01*
X177633333Y-90527142D02*
X177585714Y-90574761D01*
X177442857Y-90622380D01*
X177347619Y-90622380D01*
X177204761Y-90574761D01*
X177109523Y-90479523D01*
X177061904Y-90384285D01*
X177014285Y-90193809D01*
X177014285Y-90050952D01*
X177061904Y-89860476D01*
X177109523Y-89765238D01*
X177204761Y-89670000D01*
X177347619Y-89622380D01*
X177442857Y-89622380D01*
X177585714Y-89670000D01*
X177633333Y-89717619D01*
X178490476Y-89622380D02*
X178300000Y-89622380D01*
X178204761Y-89670000D01*
X178157142Y-89717619D01*
X178061904Y-89860476D01*
X178014285Y-90050952D01*
X178014285Y-90431904D01*
X178061904Y-90527142D01*
X178109523Y-90574761D01*
X178204761Y-90622380D01*
X178395238Y-90622380D01*
X178490476Y-90574761D01*
X178538095Y-90527142D01*
X178585714Y-90431904D01*
X178585714Y-90193809D01*
X178538095Y-90098571D01*
X178490476Y-90050952D01*
X178395238Y-90003333D01*
X178204761Y-90003333D01*
X178109523Y-90050952D01*
X178061904Y-90098571D01*
X178014285Y-90193809D01*
X156662380Y-71723095D02*
X155662380Y-71723095D01*
X156138571Y-71723095D02*
X156138571Y-71151666D01*
X156662380Y-71151666D02*
X155662380Y-71151666D01*
X156614761Y-70723095D02*
X156662380Y-70580238D01*
X156662380Y-70342142D01*
X156614761Y-70246904D01*
X156567142Y-70199285D01*
X156471904Y-70151666D01*
X156376666Y-70151666D01*
X156281428Y-70199285D01*
X156233809Y-70246904D01*
X156186190Y-70342142D01*
X156138571Y-70532619D01*
X156090952Y-70627857D01*
X156043333Y-70675476D01*
X155948095Y-70723095D01*
X155852857Y-70723095D01*
X155757619Y-70675476D01*
X155710000Y-70627857D01*
X155662380Y-70532619D01*
X155662380Y-70294523D01*
X155710000Y-70151666D01*
X156662380Y-69199285D02*
X156662380Y-69770714D01*
X156662380Y-69485000D02*
X155662380Y-69485000D01*
X155805238Y-69580238D01*
X155900476Y-69675476D01*
X155948095Y-69770714D01*
X103806666Y-90892380D02*
X103806666Y-91606666D01*
X103759047Y-91749523D01*
X103663809Y-91844761D01*
X103520952Y-91892380D01*
X103425714Y-91892380D01*
X104806666Y-91892380D02*
X104235238Y-91892380D01*
X104520952Y-91892380D02*
X104520952Y-90892380D01*
X104425714Y-91035238D01*
X104330476Y-91130476D01*
X104235238Y-91178095D01*
X129373333Y-90527142D02*
X129325714Y-90574761D01*
X129182857Y-90622380D01*
X129087619Y-90622380D01*
X128944761Y-90574761D01*
X128849523Y-90479523D01*
X128801904Y-90384285D01*
X128754285Y-90193809D01*
X128754285Y-90050952D01*
X128801904Y-89860476D01*
X128849523Y-89765238D01*
X128944761Y-89670000D01*
X129087619Y-89622380D01*
X129182857Y-89622380D01*
X129325714Y-89670000D01*
X129373333Y-89717619D01*
X130230476Y-89955714D02*
X130230476Y-90622380D01*
X129992380Y-89574761D02*
X129754285Y-90289047D01*
X130373333Y-90289047D01*
X155932142Y-116212857D02*
X155979761Y-116260476D01*
X156027380Y-116403333D01*
X156027380Y-116498571D01*
X155979761Y-116641428D01*
X155884523Y-116736666D01*
X155789285Y-116784285D01*
X155598809Y-116831904D01*
X155455952Y-116831904D01*
X155265476Y-116784285D01*
X155170238Y-116736666D01*
X155075000Y-116641428D01*
X155027380Y-116498571D01*
X155027380Y-116403333D01*
X155075000Y-116260476D01*
X155122619Y-116212857D01*
X156027380Y-115260476D02*
X156027380Y-115831904D01*
X156027380Y-115546190D02*
X155027380Y-115546190D01*
X155170238Y-115641428D01*
X155265476Y-115736666D01*
X155313095Y-115831904D01*
X155027380Y-114641428D02*
X155027380Y-114546190D01*
X155075000Y-114450952D01*
X155122619Y-114403333D01*
X155217857Y-114355714D01*
X155408333Y-114308095D01*
X155646428Y-114308095D01*
X155836904Y-114355714D01*
X155932142Y-114403333D01*
X155979761Y-114450952D01*
X156027380Y-114546190D01*
X156027380Y-114641428D01*
X155979761Y-114736666D01*
X155932142Y-114784285D01*
X155836904Y-114831904D01*
X155646428Y-114879523D01*
X155408333Y-114879523D01*
X155217857Y-114831904D01*
X155122619Y-114784285D01*
X155075000Y-114736666D01*
X155027380Y-114641428D01*
X126817380Y-109958095D02*
X125817380Y-109958095D01*
X125817380Y-109720000D01*
X125865000Y-109577142D01*
X125960238Y-109481904D01*
X126055476Y-109434285D01*
X126245952Y-109386666D01*
X126388809Y-109386666D01*
X126579285Y-109434285D01*
X126674523Y-109481904D01*
X126769761Y-109577142D01*
X126817380Y-109720000D01*
X126817380Y-109958095D01*
X125817380Y-108529523D02*
X125817380Y-108720000D01*
X125865000Y-108815238D01*
X125912619Y-108862857D01*
X126055476Y-108958095D01*
X126245952Y-109005714D01*
X126626904Y-109005714D01*
X126722142Y-108958095D01*
X126769761Y-108910476D01*
X126817380Y-108815238D01*
X126817380Y-108624761D01*
X126769761Y-108529523D01*
X126722142Y-108481904D01*
X126626904Y-108434285D01*
X126388809Y-108434285D01*
X126293571Y-108481904D01*
X126245952Y-108529523D01*
X126198333Y-108624761D01*
X126198333Y-108815238D01*
X126245952Y-108910476D01*
X126293571Y-108958095D01*
X126388809Y-109005714D01*
X126817380Y-105671904D02*
X125817380Y-105671904D01*
X126817380Y-105100476D02*
X126245952Y-105529047D01*
X125817380Y-105100476D02*
X126388809Y-105671904D01*
X166187380Y-106148095D02*
X165187380Y-106148095D01*
X165187380Y-105910000D01*
X165235000Y-105767142D01*
X165330238Y-105671904D01*
X165425476Y-105624285D01*
X165615952Y-105576666D01*
X165758809Y-105576666D01*
X165949285Y-105624285D01*
X166044523Y-105671904D01*
X166139761Y-105767142D01*
X166187380Y-105910000D01*
X166187380Y-106148095D01*
X165615952Y-105005238D02*
X165568333Y-105100476D01*
X165520714Y-105148095D01*
X165425476Y-105195714D01*
X165377857Y-105195714D01*
X165282619Y-105148095D01*
X165235000Y-105100476D01*
X165187380Y-105005238D01*
X165187380Y-104814761D01*
X165235000Y-104719523D01*
X165282619Y-104671904D01*
X165377857Y-104624285D01*
X165425476Y-104624285D01*
X165520714Y-104671904D01*
X165568333Y-104719523D01*
X165615952Y-104814761D01*
X165615952Y-105005238D01*
X165663571Y-105100476D01*
X165711190Y-105148095D01*
X165806428Y-105195714D01*
X165996904Y-105195714D01*
X166092142Y-105148095D01*
X166139761Y-105100476D01*
X166187380Y-105005238D01*
X166187380Y-104814761D01*
X166139761Y-104719523D01*
X166092142Y-104671904D01*
X165996904Y-104624285D01*
X165806428Y-104624285D01*
X165711190Y-104671904D01*
X165663571Y-104719523D01*
X165615952Y-104814761D01*
X142073333Y-108307142D02*
X142025714Y-108354761D01*
X141882857Y-108402380D01*
X141787619Y-108402380D01*
X141644761Y-108354761D01*
X141549523Y-108259523D01*
X141501904Y-108164285D01*
X141454285Y-107973809D01*
X141454285Y-107830952D01*
X141501904Y-107640476D01*
X141549523Y-107545238D01*
X141644761Y-107450000D01*
X141787619Y-107402380D01*
X141882857Y-107402380D01*
X142025714Y-107450000D01*
X142073333Y-107497619D01*
X142978095Y-107402380D02*
X142501904Y-107402380D01*
X142454285Y-107878571D01*
X142501904Y-107830952D01*
X142597142Y-107783333D01*
X142835238Y-107783333D01*
X142930476Y-107830952D01*
X142978095Y-107878571D01*
X143025714Y-107973809D01*
X143025714Y-108211904D01*
X142978095Y-108307142D01*
X142930476Y-108354761D01*
X142835238Y-108402380D01*
X142597142Y-108402380D01*
X142501904Y-108354761D01*
X142454285Y-108307142D01*
X142073333Y-90527142D02*
X142025714Y-90574761D01*
X141882857Y-90622380D01*
X141787619Y-90622380D01*
X141644761Y-90574761D01*
X141549523Y-90479523D01*
X141501904Y-90384285D01*
X141454285Y-90193809D01*
X141454285Y-90050952D01*
X141501904Y-89860476D01*
X141549523Y-89765238D01*
X141644761Y-89670000D01*
X141787619Y-89622380D01*
X141882857Y-89622380D01*
X142025714Y-89670000D01*
X142073333Y-89717619D01*
X142406666Y-89622380D02*
X143073333Y-89622380D01*
X142644761Y-90622380D01*
X130262380Y-112101904D02*
X131071904Y-112101904D01*
X131167142Y-112054285D01*
X131214761Y-112006666D01*
X131262380Y-111911428D01*
X131262380Y-111720952D01*
X131214761Y-111625714D01*
X131167142Y-111578095D01*
X131071904Y-111530476D01*
X130262380Y-111530476D01*
X130262380Y-111149523D02*
X130262380Y-110530476D01*
X130643333Y-110863809D01*
X130643333Y-110720952D01*
X130690952Y-110625714D01*
X130738571Y-110578095D01*
X130833809Y-110530476D01*
X131071904Y-110530476D01*
X131167142Y-110578095D01*
X131214761Y-110625714D01*
X131262380Y-110720952D01*
X131262380Y-111006666D01*
X131214761Y-111101904D01*
X131167142Y-111149523D01*
X100327142Y-120756666D02*
X100374761Y-120804285D01*
X100422380Y-120947142D01*
X100422380Y-121042380D01*
X100374761Y-121185238D01*
X100279523Y-121280476D01*
X100184285Y-121328095D01*
X99993809Y-121375714D01*
X99850952Y-121375714D01*
X99660476Y-121328095D01*
X99565238Y-121280476D01*
X99470000Y-121185238D01*
X99422380Y-121042380D01*
X99422380Y-120947142D01*
X99470000Y-120804285D01*
X99517619Y-120756666D01*
X99517619Y-120375714D02*
X99470000Y-120328095D01*
X99422380Y-120232857D01*
X99422380Y-119994761D01*
X99470000Y-119899523D01*
X99517619Y-119851904D01*
X99612857Y-119804285D01*
X99708095Y-119804285D01*
X99850952Y-119851904D01*
X100422380Y-120423333D01*
X100422380Y-119804285D01*
X121102380Y-71723095D02*
X120102380Y-71723095D01*
X120578571Y-71723095D02*
X120578571Y-71151666D01*
X121102380Y-71151666D02*
X120102380Y-71151666D01*
X121054761Y-70723095D02*
X121102380Y-70580238D01*
X121102380Y-70342142D01*
X121054761Y-70246904D01*
X121007142Y-70199285D01*
X120911904Y-70151666D01*
X120816666Y-70151666D01*
X120721428Y-70199285D01*
X120673809Y-70246904D01*
X120626190Y-70342142D01*
X120578571Y-70532619D01*
X120530952Y-70627857D01*
X120483333Y-70675476D01*
X120388095Y-70723095D01*
X120292857Y-70723095D01*
X120197619Y-70675476D01*
X120150000Y-70627857D01*
X120102380Y-70532619D01*
X120102380Y-70294523D01*
X120150000Y-70151666D01*
X120197619Y-69770714D02*
X120150000Y-69723095D01*
X120102380Y-69627857D01*
X120102380Y-69389761D01*
X120150000Y-69294523D01*
X120197619Y-69246904D01*
X120292857Y-69199285D01*
X120388095Y-69199285D01*
X120530952Y-69246904D01*
X121102380Y-69818333D01*
X121102380Y-69199285D01*
X166187380Y-101068095D02*
X165187380Y-101068095D01*
X165187380Y-100830000D01*
X165235000Y-100687142D01*
X165330238Y-100591904D01*
X165425476Y-100544285D01*
X165615952Y-100496666D01*
X165758809Y-100496666D01*
X165949285Y-100544285D01*
X166044523Y-100591904D01*
X166139761Y-100687142D01*
X166187380Y-100830000D01*
X166187380Y-101068095D01*
X165187380Y-100163333D02*
X165187380Y-99496666D01*
X166187380Y-99925238D01*
X155932142Y-126372857D02*
X155979761Y-126420476D01*
X156027380Y-126563333D01*
X156027380Y-126658571D01*
X155979761Y-126801428D01*
X155884523Y-126896666D01*
X155789285Y-126944285D01*
X155598809Y-126991904D01*
X155455952Y-126991904D01*
X155265476Y-126944285D01*
X155170238Y-126896666D01*
X155075000Y-126801428D01*
X155027380Y-126658571D01*
X155027380Y-126563333D01*
X155075000Y-126420476D01*
X155122619Y-126372857D01*
X156027380Y-125420476D02*
X156027380Y-125991904D01*
X156027380Y-125706190D02*
X155027380Y-125706190D01*
X155170238Y-125801428D01*
X155265476Y-125896666D01*
X155313095Y-125991904D01*
X156027380Y-124468095D02*
X156027380Y-125039523D01*
X156027380Y-124753809D02*
X155027380Y-124753809D01*
X155170238Y-124849047D01*
X155265476Y-124944285D01*
X155313095Y-125039523D01*
X165822380Y-87221904D02*
X166631904Y-87221904D01*
X166727142Y-87174285D01*
X166774761Y-87126666D01*
X166822380Y-87031428D01*
X166822380Y-86840952D01*
X166774761Y-86745714D01*
X166727142Y-86698095D01*
X166631904Y-86650476D01*
X165822380Y-86650476D01*
X166822380Y-85650476D02*
X166822380Y-86221904D01*
X166822380Y-85936190D02*
X165822380Y-85936190D01*
X165965238Y-86031428D01*
X166060476Y-86126666D01*
X166108095Y-86221904D01*
X100327142Y-77696666D02*
X100374761Y-77744285D01*
X100422380Y-77887142D01*
X100422380Y-77982380D01*
X100374761Y-78125238D01*
X100279523Y-78220476D01*
X100184285Y-78268095D01*
X99993809Y-78315714D01*
X99850952Y-78315714D01*
X99660476Y-78268095D01*
X99565238Y-78220476D01*
X99470000Y-78125238D01*
X99422380Y-77982380D01*
X99422380Y-77887142D01*
X99470000Y-77744285D01*
X99517619Y-77696666D01*
X100422380Y-76744285D02*
X100422380Y-77315714D01*
X100422380Y-77030000D02*
X99422380Y-77030000D01*
X99565238Y-77125238D01*
X99660476Y-77220476D01*
X99708095Y-77315714D01*
X121356380Y-128746095D02*
X120356380Y-128746095D01*
X120832571Y-128746095D02*
X120832571Y-128174666D01*
X121356380Y-128174666D02*
X120356380Y-128174666D01*
X121308761Y-127746095D02*
X121356380Y-127603238D01*
X121356380Y-127365142D01*
X121308761Y-127269904D01*
X121261142Y-127222285D01*
X121165904Y-127174666D01*
X121070666Y-127174666D01*
X120975428Y-127222285D01*
X120927809Y-127269904D01*
X120880190Y-127365142D01*
X120832571Y-127555619D01*
X120784952Y-127650857D01*
X120737333Y-127698476D01*
X120642095Y-127746095D01*
X120546857Y-127746095D01*
X120451619Y-127698476D01*
X120404000Y-127650857D01*
X120356380Y-127555619D01*
X120356380Y-127317523D01*
X120404000Y-127174666D01*
X120356380Y-126841333D02*
X120356380Y-126222285D01*
X120737333Y-126555619D01*
X120737333Y-126412761D01*
X120784952Y-126317523D01*
X120832571Y-126269904D01*
X120927809Y-126222285D01*
X121165904Y-126222285D01*
X121261142Y-126269904D01*
X121308761Y-126317523D01*
X121356380Y-126412761D01*
X121356380Y-126698476D01*
X121308761Y-126793714D01*
X121261142Y-126841333D01*
X177633333Y-128552380D02*
X177300000Y-128076190D01*
X177061904Y-128552380D02*
X177061904Y-127552380D01*
X177442857Y-127552380D01*
X177538095Y-127600000D01*
X177585714Y-127647619D01*
X177633333Y-127742857D01*
X177633333Y-127885714D01*
X177585714Y-127980952D01*
X177538095Y-128028571D01*
X177442857Y-128076190D01*
X177061904Y-128076190D01*
X177966666Y-127552380D02*
X178585714Y-127552380D01*
X178252380Y-127933333D01*
X178395238Y-127933333D01*
X178490476Y-127980952D01*
X178538095Y-128028571D01*
X178585714Y-128123809D01*
X178585714Y-128361904D01*
X178538095Y-128457142D01*
X178490476Y-128504761D01*
X178395238Y-128552380D01*
X178109523Y-128552380D01*
X178014285Y-128504761D01*
X177966666Y-128457142D01*
X136421904Y-96337380D02*
X136421904Y-95337380D01*
X136660000Y-95337380D01*
X136802857Y-95385000D01*
X136898095Y-95480238D01*
X136945714Y-95575476D01*
X136993333Y-95765952D01*
X136993333Y-95908809D01*
X136945714Y-96099285D01*
X136898095Y-96194523D01*
X136802857Y-96289761D01*
X136660000Y-96337380D01*
X136421904Y-96337380D01*
X137326666Y-95337380D02*
X137945714Y-95337380D01*
X137612380Y-95718333D01*
X137755238Y-95718333D01*
X137850476Y-95765952D01*
X137898095Y-95813571D01*
X137945714Y-95908809D01*
X137945714Y-96146904D01*
X137898095Y-96242142D01*
X137850476Y-96289761D01*
X137755238Y-96337380D01*
X137469523Y-96337380D01*
X137374285Y-96289761D01*
X137326666Y-96242142D01*
X133088095Y-96337380D02*
X133088095Y-95337380D01*
X133659523Y-96337380D02*
X133230952Y-95765952D01*
X133659523Y-95337380D02*
X133088095Y-95908809D01*
X166187380Y-126468095D02*
X165187380Y-126468095D01*
X165187380Y-126230000D01*
X165235000Y-126087142D01*
X165330238Y-125991904D01*
X165425476Y-125944285D01*
X165615952Y-125896666D01*
X165758809Y-125896666D01*
X165949285Y-125944285D01*
X166044523Y-125991904D01*
X166139761Y-126087142D01*
X166187380Y-126230000D01*
X166187380Y-126468095D01*
X166187380Y-125420476D02*
X166187380Y-125230000D01*
X166139761Y-125134761D01*
X166092142Y-125087142D01*
X165949285Y-124991904D01*
X165758809Y-124944285D01*
X165377857Y-124944285D01*
X165282619Y-124991904D01*
X165235000Y-125039523D01*
X165187380Y-125134761D01*
X165187380Y-125325238D01*
X165235000Y-125420476D01*
X165282619Y-125468095D01*
X165377857Y-125515714D01*
X165615952Y-125515714D01*
X165711190Y-125468095D01*
X165758809Y-125420476D01*
X165806428Y-125325238D01*
X165806428Y-125134761D01*
X165758809Y-125039523D01*
X165711190Y-124991904D01*
X165615952Y-124944285D01*
X130643333Y-106402142D02*
X130595714Y-106449761D01*
X130452857Y-106497380D01*
X130357619Y-106497380D01*
X130214761Y-106449761D01*
X130119523Y-106354523D01*
X130071904Y-106259285D01*
X130024285Y-106068809D01*
X130024285Y-105925952D01*
X130071904Y-105735476D01*
X130119523Y-105640238D01*
X130214761Y-105545000D01*
X130357619Y-105497380D01*
X130452857Y-105497380D01*
X130595714Y-105545000D01*
X130643333Y-105592619D01*
X131214761Y-105925952D02*
X131119523Y-105878333D01*
X131071904Y-105830714D01*
X131024285Y-105735476D01*
X131024285Y-105687857D01*
X131071904Y-105592619D01*
X131119523Y-105545000D01*
X131214761Y-105497380D01*
X131405238Y-105497380D01*
X131500476Y-105545000D01*
X131548095Y-105592619D01*
X131595714Y-105687857D01*
X131595714Y-105735476D01*
X131548095Y-105830714D01*
X131500476Y-105878333D01*
X131405238Y-105925952D01*
X131214761Y-105925952D01*
X131119523Y-105973571D01*
X131071904Y-106021190D01*
X131024285Y-106116428D01*
X131024285Y-106306904D01*
X131071904Y-106402142D01*
X131119523Y-106449761D01*
X131214761Y-106497380D01*
X131405238Y-106497380D01*
X131500476Y-106449761D01*
X131548095Y-106402142D01*
X131595714Y-106306904D01*
X131595714Y-106116428D01*
X131548095Y-106021190D01*
X131500476Y-105973571D01*
X131405238Y-105925952D01*
D15*
X168261000Y-91090000D02*
X169519000Y-91090000D01*
X168261000Y-89250000D02*
X169519000Y-89250000D01*
X135760000Y-103020000D02*
X135760000Y-105260000D01*
X139930000Y-104140000D02*
X139280000Y-104140000D01*
X139280000Y-105260000D02*
X139280000Y-103020000D01*
X135040000Y-103020000D02*
X135040000Y-105260000D01*
X134390000Y-104140000D02*
X135040000Y-104140000D01*
X135040000Y-105260000D02*
X139280000Y-105260000D01*
X135640000Y-103020000D02*
X135640000Y-105260000D01*
X135880000Y-103020000D02*
X135880000Y-105260000D01*
X139280000Y-103020000D02*
X135040000Y-103020000D01*
X173760000Y-100330000D02*
X174530000Y-100330000D01*
X181840000Y-100330000D02*
X181070000Y-100330000D01*
X174530000Y-98960000D02*
X174530000Y-101700000D01*
X181070000Y-98960000D02*
X174530000Y-98960000D01*
X174530000Y-101700000D02*
X181070000Y-101700000D01*
X181070000Y-101700000D02*
X181070000Y-98960000D01*
X170590000Y-92860000D02*
X170590000Y-95100000D01*
X171430000Y-92860000D02*
X171430000Y-95100000D01*
X175480000Y-93980000D02*
X174830000Y-93980000D01*
X170590000Y-95100000D02*
X174830000Y-95100000D01*
X171310000Y-92860000D02*
X171310000Y-95100000D01*
X171190000Y-92860000D02*
X171190000Y-95100000D01*
X174830000Y-92860000D02*
X170590000Y-92860000D01*
X169940000Y-93980000D02*
X170590000Y-93980000D01*
X174830000Y-95100000D02*
X174830000Y-92860000D01*
X113310000Y-98110000D02*
X113310000Y-100010000D01*
X113310000Y-108210000D02*
X113310000Y-110210000D01*
X109710000Y-91110000D02*
X110210000Y-91110000D01*
X113310000Y-103110000D02*
X113310000Y-105110000D01*
X113310000Y-93410000D02*
X113310000Y-94910000D01*
X109710000Y-110210000D02*
X109710000Y-87910000D01*
X113310000Y-87910000D02*
X113310000Y-89410000D01*
X109710000Y-87910000D02*
X113310000Y-87910000D01*
X113310000Y-110210000D02*
X109710000Y-110210000D01*
X185340000Y-123050000D02*
X185340000Y-107930000D01*
X183080000Y-123040000D02*
X183080000Y-122290000D01*
X183080000Y-107940000D02*
X183080000Y-108690000D01*
X185630000Y-108890000D02*
X185630000Y-107640000D01*
X180130000Y-122290000D02*
X180130000Y-115490000D01*
X179370000Y-123050000D02*
X185340000Y-123050000D01*
X185330000Y-107940000D02*
X184580000Y-107940000D01*
X180130000Y-108690000D02*
X180130000Y-115490000D01*
X185330000Y-119740000D02*
X185330000Y-111240000D01*
X184580000Y-111240000D02*
X184580000Y-119740000D01*
X184580000Y-119740000D02*
X185330000Y-119740000D01*
X184580000Y-121240000D02*
X184580000Y-123040000D01*
X185330000Y-121240000D02*
X184580000Y-121240000D01*
X179370000Y-107930000D02*
X179370000Y-123050000D01*
X185630000Y-107640000D02*
X184380000Y-107640000D01*
X184580000Y-109740000D02*
X185330000Y-109740000D01*
X183080000Y-122290000D02*
X180130000Y-122290000D01*
X185330000Y-111240000D02*
X184580000Y-111240000D01*
X185330000Y-109740000D02*
X185330000Y-107940000D01*
X184580000Y-107940000D02*
X184580000Y-109740000D01*
X183080000Y-108690000D02*
X180130000Y-108690000D01*
X185340000Y-107930000D02*
X179370000Y-107930000D01*
X184580000Y-123040000D02*
X185330000Y-123040000D01*
X185330000Y-123040000D02*
X185330000Y-121240000D01*
X181840000Y-105410000D02*
X181070000Y-105410000D01*
X181070000Y-106780000D02*
X181070000Y-104040000D01*
X181070000Y-104040000D02*
X174530000Y-104040000D01*
X174530000Y-106780000D02*
X181070000Y-106780000D01*
X174530000Y-104040000D02*
X174530000Y-106780000D01*
X173760000Y-105410000D02*
X174530000Y-105410000D01*
X147020000Y-86780000D02*
X144780000Y-86780000D01*
X144780000Y-90420000D02*
X147020000Y-90420000D01*
X144780000Y-90300000D02*
X147020000Y-90300000D01*
X145900000Y-91670000D02*
X145900000Y-91020000D01*
X144780000Y-86780000D02*
X144780000Y-91020000D01*
X144780000Y-90180000D02*
X147020000Y-90180000D01*
X144780000Y-91020000D02*
X147020000Y-91020000D01*
X145900000Y-86130000D02*
X145900000Y-86780000D01*
X147020000Y-91020000D02*
X147020000Y-86780000D01*
X158549000Y-108222000D02*
X158549000Y-106450000D01*
X159990000Y-108637000D02*
X159990000Y-102183000D01*
X158589000Y-108244000D02*
X158589000Y-106450000D01*
X158509000Y-108200000D02*
X158509000Y-106450000D01*
X158509000Y-104370000D02*
X158509000Y-102620000D01*
X159269000Y-104370000D02*
X159269000Y-102300000D01*
X158869000Y-108380000D02*
X158869000Y-106450000D01*
X158149000Y-104370000D02*
X158149000Y-102862000D01*
X159590000Y-104370000D02*
X159590000Y-102228000D01*
X159069000Y-108457000D02*
X159069000Y-106450000D01*
X159790000Y-108621000D02*
X159790000Y-106450000D01*
X157349000Y-107060000D02*
X157349000Y-103760000D01*
X158549000Y-104370000D02*
X158549000Y-102598000D01*
X158189000Y-107988000D02*
X158189000Y-106450000D01*
X157869000Y-104370000D02*
X157869000Y-103105000D01*
X158269000Y-104370000D02*
X158269000Y-102774000D01*
X159189000Y-108496000D02*
X159189000Y-106450000D01*
X157749000Y-107592000D02*
X157749000Y-103228000D01*
X159630000Y-108599000D02*
X159630000Y-106450000D01*
X158389000Y-108126000D02*
X158389000Y-106450000D01*
X157149000Y-106672000D02*
X157149000Y-104148000D01*
X159269000Y-108520000D02*
X159269000Y-106450000D01*
X157309000Y-106991000D02*
X157309000Y-103829000D01*
X157109000Y-106575000D02*
X157109000Y-104245000D01*
X157469000Y-107244000D02*
X157469000Y-103576000D01*
X157709000Y-107547000D02*
X157709000Y-103273000D01*
X159309000Y-108531000D02*
X159309000Y-106450000D01*
X157789000Y-107634000D02*
X157789000Y-103186000D01*
X159109000Y-108471000D02*
X159109000Y-106450000D01*
X158269000Y-108046000D02*
X158269000Y-106450000D01*
X159670000Y-104370000D02*
X159670000Y-102215000D01*
X158789000Y-108344000D02*
X158789000Y-106450000D01*
X157429000Y-107186000D02*
X157429000Y-103634000D01*
X158629000Y-104370000D02*
X158629000Y-102554000D01*
X158469000Y-104370000D02*
X158469000Y-102644000D01*
X159910000Y-104370000D02*
X159910000Y-102188000D01*
X159550000Y-108585000D02*
X159550000Y-106450000D01*
X159550000Y-104370000D02*
X159550000Y-102235000D01*
X159149000Y-104370000D02*
X159149000Y-102336000D01*
X158949000Y-104370000D02*
X158949000Y-102408000D01*
X159510000Y-108577000D02*
X159510000Y-106450000D01*
X159750000Y-104370000D02*
X159750000Y-102204000D01*
X159349000Y-104370000D02*
X159349000Y-102279000D01*
X159149000Y-108484000D02*
X159149000Y-106450000D01*
X158709000Y-104370000D02*
X158709000Y-102514000D01*
X158309000Y-108074000D02*
X158309000Y-106450000D01*
X157549000Y-107354000D02*
X157549000Y-103466000D01*
X158349000Y-104370000D02*
X158349000Y-102720000D01*
X158669000Y-108286000D02*
X158669000Y-106450000D01*
X159109000Y-104370000D02*
X159109000Y-102349000D01*
X157069000Y-106469000D02*
X157069000Y-104351000D01*
X157509000Y-107300000D02*
X157509000Y-103520000D01*
X158989000Y-104370000D02*
X158989000Y-102392000D01*
X158829000Y-104370000D02*
X158829000Y-102458000D01*
X158069000Y-104370000D02*
X158069000Y-102926000D01*
X157029000Y-106350000D02*
X157029000Y-104470000D01*
X156949000Y-106043000D02*
X156949000Y-104777000D01*
X159950000Y-108634000D02*
X159950000Y-102186000D01*
X159349000Y-108541000D02*
X159349000Y-106450000D01*
X159750000Y-108616000D02*
X159750000Y-106450000D01*
X159630000Y-104370000D02*
X159630000Y-102221000D01*
X158869000Y-104370000D02*
X158869000Y-102440000D01*
X159029000Y-104370000D02*
X159029000Y-102377000D01*
X157589000Y-107405000D02*
X157589000Y-103415000D01*
X157389000Y-107124000D02*
X157389000Y-103696000D01*
X159229000Y-108508000D02*
X159229000Y-106450000D01*
X160070000Y-108640000D02*
X160070000Y-102180000D01*
X158909000Y-108396000D02*
X158909000Y-106450000D01*
X159710000Y-108611000D02*
X159710000Y-106450000D01*
X163335241Y-107564000D02*
X163335241Y-106934000D01*
X158069000Y-107894000D02*
X158069000Y-106450000D01*
X159870000Y-108628000D02*
X159870000Y-106450000D01*
X159389000Y-108551000D02*
X159389000Y-106450000D01*
X159670000Y-108605000D02*
X159670000Y-106450000D01*
X158029000Y-104370000D02*
X158029000Y-102960000D01*
X159189000Y-104370000D02*
X159189000Y-102324000D01*
X159790000Y-104370000D02*
X159790000Y-102199000D01*
X159069000Y-104370000D02*
X159069000Y-102363000D01*
X158589000Y-104370000D02*
X158589000Y-102576000D01*
X158749000Y-108326000D02*
X158749000Y-106450000D01*
X159470000Y-104370000D02*
X159470000Y-102251000D01*
X158909000Y-104370000D02*
X158909000Y-102424000D01*
X158109000Y-107926000D02*
X158109000Y-106450000D01*
X157869000Y-107715000D02*
X157869000Y-106450000D01*
X157669000Y-107502000D02*
X157669000Y-103318000D01*
X157949000Y-107790000D02*
X157949000Y-106450000D01*
X158429000Y-104370000D02*
X158429000Y-102668000D01*
X158629000Y-108266000D02*
X158629000Y-106450000D01*
X158189000Y-104370000D02*
X158189000Y-102832000D01*
X157909000Y-107753000D02*
X157909000Y-106450000D01*
X159830000Y-104370000D02*
X159830000Y-102195000D01*
X159710000Y-104370000D02*
X159710000Y-102209000D01*
X157189000Y-106760000D02*
X157189000Y-104060000D01*
X158229000Y-104370000D02*
X158229000Y-102803000D01*
X159870000Y-104370000D02*
X159870000Y-102192000D01*
X157269000Y-106919000D02*
X157269000Y-103901000D01*
X160110000Y-108640000D02*
X160110000Y-102180000D01*
X158669000Y-104370000D02*
X158669000Y-102534000D01*
X157989000Y-104370000D02*
X157989000Y-102994000D01*
X157229000Y-106842000D02*
X157229000Y-103978000D01*
X159029000Y-108443000D02*
X159029000Y-106450000D01*
X159910000Y-108632000D02*
X159910000Y-106450000D01*
X158029000Y-107860000D02*
X158029000Y-106450000D01*
X157989000Y-107826000D02*
X157989000Y-106450000D01*
X158469000Y-108176000D02*
X158469000Y-106450000D01*
X159830000Y-108625000D02*
X159830000Y-106450000D01*
X163650241Y-107249000D02*
X163020241Y-107249000D01*
X159389000Y-104370000D02*
X159389000Y-102269000D01*
X158149000Y-107958000D02*
X158149000Y-106450000D01*
X160150000Y-108640000D02*
X160150000Y-102180000D01*
X157909000Y-104370000D02*
X157909000Y-103067000D01*
X158829000Y-108362000D02*
X158829000Y-106450000D01*
X158349000Y-108100000D02*
X158349000Y-106450000D01*
X159309000Y-104370000D02*
X159309000Y-102289000D01*
X158429000Y-108152000D02*
X158429000Y-106450000D01*
X158789000Y-104370000D02*
X158789000Y-102476000D01*
X158109000Y-104370000D02*
X158109000Y-102894000D01*
X158949000Y-108412000D02*
X158949000Y-106450000D01*
X159470000Y-108569000D02*
X159470000Y-106450000D01*
X157629000Y-107454000D02*
X157629000Y-103366000D01*
X159590000Y-108592000D02*
X159590000Y-106450000D01*
X158229000Y-108017000D02*
X158229000Y-106450000D01*
X158309000Y-104370000D02*
X158309000Y-102746000D01*
X158989000Y-108428000D02*
X158989000Y-106450000D01*
X157949000Y-104370000D02*
X157949000Y-103030000D01*
X158389000Y-104370000D02*
X158389000Y-102694000D01*
X159510000Y-104370000D02*
X159510000Y-102243000D01*
X156909000Y-105812000D02*
X156909000Y-105008000D01*
X159229000Y-104370000D02*
X159229000Y-102312000D01*
X156989000Y-106212000D02*
X156989000Y-104608000D01*
X159429000Y-108560000D02*
X159429000Y-106450000D01*
X159429000Y-104370000D02*
X159429000Y-102260000D01*
X160030000Y-108638000D02*
X160030000Y-102182000D01*
X158749000Y-104370000D02*
X158749000Y-102494000D01*
X158709000Y-108306000D02*
X158709000Y-106450000D01*
X157829000Y-107675000D02*
X157829000Y-103145000D01*
X163420000Y-105410000D02*
G75*
G03*
X163420000Y-105410000I-3270000J0D01*
G01*
X131910000Y-86787000D02*
X133517000Y-86787000D01*
X131910000Y-84027000D02*
X142410000Y-84027000D01*
X135310000Y-84027000D02*
X135310000Y-86045000D01*
X140803000Y-86787000D02*
X142410000Y-86787000D01*
X135723000Y-86787000D02*
X136058000Y-86787000D01*
X142410000Y-84027000D02*
X142410000Y-88968000D01*
X139011000Y-84027000D02*
X139011000Y-86045000D01*
X131910000Y-88968000D02*
X142410000Y-88968000D01*
X138263000Y-86787000D02*
X138598000Y-86787000D01*
X131910000Y-84027000D02*
X131910000Y-88968000D01*
X174599000Y-91090000D02*
X173341000Y-91090000D01*
X174599000Y-89250000D02*
X173341000Y-89250000D01*
X164592000Y-68580000D02*
X164592000Y-79756000D01*
X163576000Y-79756000D02*
X163576000Y-68580000D01*
X186690000Y-68580000D02*
X187706000Y-68580000D01*
X158750000Y-83820000D02*
X158750000Y-98552000D01*
X158750000Y-68580000D02*
X158750000Y-79756000D01*
X181864000Y-79756000D02*
X186690000Y-79756000D01*
X180848000Y-79756000D02*
X180848000Y-68580000D01*
X187706000Y-68834000D02*
X187706000Y-98552000D01*
X170434000Y-68580000D02*
X170434000Y-79756000D01*
X180848000Y-68580000D02*
X181864000Y-68580000D01*
X164592000Y-79756000D02*
X169418000Y-79756000D01*
X176022000Y-79756000D02*
X180848000Y-79756000D01*
X169418000Y-68580000D02*
X170434000Y-68580000D01*
X169418000Y-79756000D02*
X169418000Y-68580000D01*
X175006000Y-68580000D02*
X176022000Y-68580000D01*
X186690000Y-98552000D02*
X186690000Y-83820000D01*
X157734000Y-68580000D02*
X158750000Y-68580000D01*
X187706000Y-98552000D02*
X186690000Y-98552000D01*
X158750000Y-98552000D02*
X157734000Y-98552000D01*
X186690000Y-79756000D02*
X186690000Y-68580000D01*
X170434000Y-79756000D02*
X175006000Y-79756000D01*
X163576000Y-68580000D02*
X164592000Y-68580000D01*
X187706000Y-68580000D02*
X187706000Y-68834000D01*
X157734000Y-98552000D02*
X157734000Y-68580000D01*
X181864000Y-68580000D02*
X181864000Y-79756000D01*
X186690000Y-83820000D02*
X158750000Y-83820000D01*
X158750000Y-79756000D02*
X163576000Y-79756000D01*
X176022000Y-68580000D02*
X176022000Y-79756000D01*
X175006000Y-79756000D02*
X175006000Y-68580000D01*
X100970000Y-92820000D02*
X100970000Y-93570000D01*
X98420000Y-104470000D02*
X98420000Y-105720000D01*
X103920000Y-93570000D02*
X103920000Y-99120000D01*
X99470000Y-96120000D02*
X98720000Y-96120000D01*
X99470000Y-94620000D02*
X99470000Y-92820000D01*
X99470000Y-92820000D02*
X98720000Y-92820000D01*
X100970000Y-104670000D02*
X103920000Y-104670000D01*
X98710000Y-92810000D02*
X98710000Y-105430000D01*
X100970000Y-105420000D02*
X100970000Y-104670000D01*
X98720000Y-102120000D02*
X99470000Y-102120000D01*
X104680000Y-92810000D02*
X98710000Y-92810000D01*
X98720000Y-94620000D02*
X99470000Y-94620000D01*
X98720000Y-92820000D02*
X98720000Y-94620000D01*
X99470000Y-105420000D02*
X99470000Y-103620000D01*
X104680000Y-105430000D02*
X104680000Y-92810000D01*
X100970000Y-93570000D02*
X103920000Y-93570000D01*
X98720000Y-105420000D02*
X99470000Y-105420000D01*
X98720000Y-96120000D02*
X98720000Y-102120000D01*
X98720000Y-103620000D02*
X98720000Y-105420000D01*
X103920000Y-104670000D02*
X103920000Y-99120000D01*
X98420000Y-105720000D02*
X99670000Y-105720000D01*
X99470000Y-102120000D02*
X99470000Y-96120000D01*
X98710000Y-105430000D02*
X104680000Y-105430000D01*
X99470000Y-103620000D02*
X98720000Y-103620000D01*
X132701000Y-89250000D02*
X133959000Y-89250000D01*
X132701000Y-91090000D02*
X133959000Y-91090000D01*
X158959000Y-114530000D02*
X158959000Y-112523000D01*
X159279000Y-114530000D02*
X159279000Y-112429000D01*
X157759000Y-114530000D02*
X157759000Y-113265000D01*
X158479000Y-118404000D02*
X158479000Y-116610000D01*
X158119000Y-118177000D02*
X158119000Y-116610000D01*
X157959000Y-118054000D02*
X157959000Y-116610000D01*
X158559000Y-114530000D02*
X158559000Y-112694000D01*
X157679000Y-117794000D02*
X157679000Y-113346000D01*
X159600000Y-118771000D02*
X159600000Y-116610000D01*
X158759000Y-114530000D02*
X158759000Y-112600000D01*
X159119000Y-114530000D02*
X159119000Y-112472000D01*
X156879000Y-116372000D02*
X156879000Y-114768000D01*
X158079000Y-114530000D02*
X158079000Y-112992000D01*
X159159000Y-118680000D02*
X159159000Y-116610000D01*
X159039000Y-114530000D02*
X159039000Y-112496000D01*
X158799000Y-114530000D02*
X158799000Y-112584000D01*
X158879000Y-118588000D02*
X158879000Y-116610000D01*
X159720000Y-118785000D02*
X159720000Y-116610000D01*
X157959000Y-114530000D02*
X157959000Y-113086000D01*
X159720000Y-114530000D02*
X159720000Y-112355000D01*
X158919000Y-114530000D02*
X158919000Y-112537000D01*
X157279000Y-117284000D02*
X157279000Y-113856000D01*
X158719000Y-118522000D02*
X158719000Y-116610000D01*
X157359000Y-117404000D02*
X157359000Y-113736000D01*
X158439000Y-114530000D02*
X158439000Y-112758000D01*
X159680000Y-118781000D02*
X159680000Y-116610000D01*
X157239000Y-117220000D02*
X157239000Y-113920000D01*
X158199000Y-118234000D02*
X158199000Y-116610000D01*
X159360000Y-114530000D02*
X159360000Y-112411000D01*
X158119000Y-114530000D02*
X158119000Y-112963000D01*
X159560000Y-118765000D02*
X159560000Y-116610000D01*
X157639000Y-117752000D02*
X157639000Y-113388000D01*
X157599000Y-117707000D02*
X157599000Y-113433000D01*
X157839000Y-117950000D02*
X157839000Y-116610000D01*
X157919000Y-114530000D02*
X157919000Y-113120000D01*
X157439000Y-117514000D02*
X157439000Y-113626000D01*
X157159000Y-117079000D02*
X157159000Y-114061000D01*
X158199000Y-114530000D02*
X158199000Y-112906000D01*
X157999000Y-114530000D02*
X157999000Y-113054000D01*
X158599000Y-114530000D02*
X158599000Y-112674000D01*
X158159000Y-114530000D02*
X158159000Y-112934000D01*
X163225241Y-117724000D02*
X163225241Y-117094000D01*
X159960000Y-118800000D02*
X159960000Y-112340000D01*
X159760000Y-114530000D02*
X159760000Y-112352000D01*
X158959000Y-118617000D02*
X158959000Y-116610000D01*
X158679000Y-114530000D02*
X158679000Y-112636000D01*
X158839000Y-118572000D02*
X158839000Y-116610000D01*
X158999000Y-114530000D02*
X158999000Y-112509000D01*
X157119000Y-117002000D02*
X157119000Y-114138000D01*
X158319000Y-118312000D02*
X158319000Y-116610000D01*
X157079000Y-116920000D02*
X157079000Y-114220000D01*
X157919000Y-118020000D02*
X157919000Y-116610000D01*
X159319000Y-118720000D02*
X159319000Y-116610000D01*
X159440000Y-114530000D02*
X159440000Y-112395000D01*
X158039000Y-114530000D02*
X158039000Y-113022000D01*
X158639000Y-114530000D02*
X158639000Y-112654000D01*
X160000000Y-118800000D02*
X160000000Y-112340000D01*
X159360000Y-118729000D02*
X159360000Y-116610000D01*
X158399000Y-114530000D02*
X158399000Y-112780000D01*
X159920000Y-118798000D02*
X159920000Y-112342000D01*
X159800000Y-114530000D02*
X159800000Y-112348000D01*
X158359000Y-118336000D02*
X158359000Y-116610000D01*
X159560000Y-114530000D02*
X159560000Y-112375000D01*
X158479000Y-114530000D02*
X158479000Y-112736000D01*
X158159000Y-118206000D02*
X158159000Y-116610000D01*
X159640000Y-118776000D02*
X159640000Y-116610000D01*
X163540241Y-117409000D02*
X162910241Y-117409000D01*
X157799000Y-117913000D02*
X157799000Y-116610000D01*
X156919000Y-116510000D02*
X156919000Y-114630000D01*
X158839000Y-114530000D02*
X158839000Y-112568000D01*
X157559000Y-117662000D02*
X157559000Y-113478000D01*
X156999000Y-116735000D02*
X156999000Y-114405000D01*
X159199000Y-114530000D02*
X159199000Y-112449000D01*
X158679000Y-118504000D02*
X158679000Y-116610000D01*
X157759000Y-117875000D02*
X157759000Y-116610000D01*
X159480000Y-118752000D02*
X159480000Y-116610000D01*
X157039000Y-116832000D02*
X157039000Y-114308000D01*
X158239000Y-118260000D02*
X158239000Y-116610000D01*
X158039000Y-118118000D02*
X158039000Y-116610000D01*
X158279000Y-118286000D02*
X158279000Y-116610000D01*
X160040000Y-118800000D02*
X160040000Y-112340000D01*
X159199000Y-118691000D02*
X159199000Y-116610000D01*
X158879000Y-114530000D02*
X158879000Y-112552000D01*
X157879000Y-117986000D02*
X157879000Y-116610000D01*
X159520000Y-114530000D02*
X159520000Y-112381000D01*
X158919000Y-118603000D02*
X158919000Y-116610000D01*
X158599000Y-118466000D02*
X158599000Y-116610000D01*
X157799000Y-114530000D02*
X157799000Y-113227000D01*
X156959000Y-116629000D02*
X156959000Y-114511000D01*
X157399000Y-117460000D02*
X157399000Y-113680000D01*
X158799000Y-118556000D02*
X158799000Y-116610000D01*
X158319000Y-114530000D02*
X158319000Y-112828000D01*
X158079000Y-118148000D02*
X158079000Y-116610000D01*
X158999000Y-118631000D02*
X158999000Y-116610000D01*
X159400000Y-118737000D02*
X159400000Y-116610000D01*
X159039000Y-118644000D02*
X159039000Y-116610000D01*
X159760000Y-118788000D02*
X159760000Y-116610000D01*
X157519000Y-117614000D02*
X157519000Y-113526000D01*
X158519000Y-118426000D02*
X158519000Y-116610000D01*
X158399000Y-118360000D02*
X158399000Y-116610000D01*
X159880000Y-118797000D02*
X159880000Y-112343000D01*
X159840000Y-118794000D02*
X159840000Y-112346000D01*
X157479000Y-117565000D02*
X157479000Y-113575000D01*
X158239000Y-114530000D02*
X158239000Y-112880000D01*
X158359000Y-114530000D02*
X158359000Y-112804000D01*
X157839000Y-114530000D02*
X157839000Y-113190000D01*
X159400000Y-114530000D02*
X159400000Y-112403000D01*
X159079000Y-114530000D02*
X159079000Y-112484000D01*
X158639000Y-118486000D02*
X158639000Y-116610000D01*
X159520000Y-118759000D02*
X159520000Y-116610000D01*
X159440000Y-118745000D02*
X159440000Y-116610000D01*
X159159000Y-114530000D02*
X159159000Y-112460000D01*
X158719000Y-114530000D02*
X158719000Y-112618000D01*
X159600000Y-114530000D02*
X159600000Y-112369000D01*
X158559000Y-118446000D02*
X158559000Y-116610000D01*
X157999000Y-118086000D02*
X157999000Y-116610000D01*
X158519000Y-114530000D02*
X158519000Y-112714000D01*
X159680000Y-114530000D02*
X159680000Y-112359000D01*
X159480000Y-114530000D02*
X159480000Y-112388000D01*
X159800000Y-118792000D02*
X159800000Y-116610000D01*
X159279000Y-118711000D02*
X159279000Y-116610000D01*
X159239000Y-118701000D02*
X159239000Y-116610000D01*
X158439000Y-118382000D02*
X158439000Y-116610000D01*
X159119000Y-118668000D02*
X159119000Y-116610000D01*
X159319000Y-114530000D02*
X159319000Y-112420000D01*
X159239000Y-114530000D02*
X159239000Y-112439000D01*
X157719000Y-117835000D02*
X157719000Y-113305000D01*
X157879000Y-114530000D02*
X157879000Y-113154000D01*
X156799000Y-115972000D02*
X156799000Y-115168000D01*
X157319000Y-117346000D02*
X157319000Y-113794000D01*
X158759000Y-118540000D02*
X158759000Y-116610000D01*
X158279000Y-114530000D02*
X158279000Y-112854000D01*
X159079000Y-118656000D02*
X159079000Y-116610000D01*
X157199000Y-117151000D02*
X157199000Y-113989000D01*
X159640000Y-114530000D02*
X159640000Y-112364000D01*
X156839000Y-116203000D02*
X156839000Y-114937000D01*
X163310000Y-115570000D02*
G75*
G03*
X163310000Y-115570000I-3270000J0D01*
G01*
X127150000Y-107100000D02*
X127150000Y-111340000D01*
X129390000Y-107940000D02*
X127150000Y-107940000D01*
X128270000Y-111990000D02*
X128270000Y-111340000D01*
X129390000Y-107700000D02*
X127150000Y-107700000D01*
X128270000Y-106450000D02*
X128270000Y-107100000D01*
X129390000Y-107820000D02*
X127150000Y-107820000D01*
X127150000Y-111340000D02*
X129390000Y-111340000D01*
X129390000Y-107100000D02*
X127150000Y-107100000D01*
X129390000Y-111340000D02*
X129390000Y-107100000D01*
X167350000Y-104174000D02*
X167350000Y-104330000D01*
X167350000Y-106490000D02*
X167350000Y-106646000D01*
X170582335Y-104331392D02*
G75*
G03*
X167350000Y-104174484I-1672335J-1078608D01*
G01*
X167869039Y-106490000D02*
G75*
G03*
X169951130Y-106489837I1040961J1080000D01*
G01*
X167350000Y-106645516D02*
G75*
G03*
X170582335Y-106488608I1560000J1235516D01*
G01*
X169951130Y-104330163D02*
G75*
G03*
X167869039Y-104330000I-1041130J-1079837D01*
G01*
X139079000Y-108870000D02*
X137821000Y-108870000D01*
X139079000Y-107030000D02*
X137821000Y-107030000D01*
X139079000Y-89250000D02*
X137821000Y-89250000D01*
X139079000Y-91090000D02*
X137821000Y-91090000D01*
X131910000Y-114166000D02*
X131910000Y-109225000D01*
X142410000Y-114166000D02*
X142410000Y-109225000D01*
X139010000Y-114166000D02*
X139010000Y-112148000D01*
X142410000Y-111406000D02*
X140803000Y-111406000D01*
X142410000Y-114166000D02*
X131910000Y-114166000D01*
X135309000Y-114166000D02*
X135309000Y-112148000D01*
X138597000Y-111406000D02*
X138262000Y-111406000D01*
X142410000Y-109225000D02*
X131910000Y-109225000D01*
X136057000Y-111406000D02*
X135722000Y-111406000D01*
X133517000Y-111406000D02*
X131910000Y-111406000D01*
X101324000Y-118869000D02*
X117116000Y-118869000D01*
X101261000Y-119189000D02*
X117179000Y-119189000D01*
X101276000Y-119109000D02*
X117164000Y-119109000D01*
X110660000Y-117509000D02*
X116694000Y-117509000D01*
X101175000Y-119829000D02*
X117265000Y-119829000D01*
X106742000Y-112869000D02*
X111698000Y-112869000D01*
X104665000Y-129279491D02*
X104665000Y-127679491D01*
X110660000Y-117229000D02*
X116573000Y-117229000D01*
X103160000Y-115229000D02*
X115280000Y-115229000D01*
X110660000Y-116029000D02*
X115899000Y-116029000D01*
X101942000Y-117069000D02*
X107780000Y-117069000D01*
X104366000Y-114109000D02*
X114074000Y-114109000D01*
X101241000Y-119309000D02*
X117199000Y-119309000D01*
X103618000Y-114749000D02*
X114822000Y-114749000D01*
X102042000Y-116869000D02*
X107780000Y-116869000D01*
X110660000Y-117869000D02*
X116831000Y-117869000D01*
X101421000Y-118469000D02*
X117019000Y-118469000D01*
X101962000Y-117029000D02*
X107780000Y-117029000D01*
X102461000Y-116149000D02*
X107780000Y-116149000D01*
X107468000Y-112669000D02*
X110972000Y-112669000D01*
X101268000Y-119149000D02*
X117172000Y-119149000D01*
X101432000Y-118429000D02*
X117008000Y-118429000D01*
X102021000Y-116909000D02*
X107780000Y-116909000D01*
X101168000Y-119910000D02*
X117272000Y-119910000D01*
X101466000Y-118309000D02*
X116974000Y-118309000D01*
X101652000Y-117749000D02*
X107780000Y-117749000D01*
X101139000Y-120590000D02*
X117301000Y-120590000D01*
X103268000Y-115109000D02*
X115172000Y-115109000D01*
X110660000Y-117949000D02*
X116859000Y-117949000D01*
X101443000Y-118389000D02*
X116997000Y-118389000D01*
X110660000Y-118229000D02*
X116950000Y-118229000D01*
X105356000Y-113469000D02*
X113084000Y-113469000D01*
X110660000Y-115989000D02*
X115872000Y-115989000D01*
X101780000Y-117429000D02*
X107780000Y-117429000D01*
X110660000Y-117749000D02*
X116788000Y-117749000D01*
X110660000Y-116389000D02*
X116130000Y-116389000D01*
X102171000Y-116629000D02*
X107780000Y-116629000D01*
X101333000Y-118829000D02*
X117107000Y-118829000D01*
X110660000Y-117589000D02*
X116726000Y-117589000D01*
X110660000Y-115909000D02*
X115816000Y-115909000D01*
X104884000Y-113749000D02*
X113556000Y-113749000D01*
X101515000Y-118149000D02*
X107780000Y-118149000D01*
X110660000Y-117069000D02*
X116498000Y-117069000D01*
X110660000Y-116869000D02*
X116398000Y-116869000D01*
X103342000Y-115029000D02*
X115098000Y-115029000D01*
X101171000Y-119869000D02*
X117269000Y-119869000D01*
X102063000Y-116829000D02*
X107780000Y-116829000D01*
X102239000Y-116509000D02*
X107780000Y-116509000D01*
X110660000Y-117269000D02*
X116591000Y-117269000D01*
X101567000Y-117989000D02*
X107780000Y-117989000D01*
X110660000Y-116989000D02*
X116459000Y-116989000D01*
X102286000Y-116429000D02*
X107780000Y-116429000D01*
X110660000Y-118029000D02*
X116886000Y-118029000D01*
X106196000Y-113069000D02*
X112244000Y-113069000D01*
X103660000Y-114709000D02*
X114780000Y-114709000D01*
X104112000Y-114309000D02*
X114328000Y-114309000D01*
X102435000Y-116189000D02*
X107780000Y-116189000D01*
X110660000Y-116549000D02*
X116224000Y-116549000D01*
X101746000Y-117509000D02*
X107780000Y-117509000D01*
X101527000Y-118109000D02*
X107780000Y-118109000D01*
X102148000Y-116669000D02*
X107780000Y-116669000D01*
X101623000Y-117829000D02*
X107780000Y-117829000D01*
X101248000Y-119269000D02*
X117192000Y-119269000D01*
X110660000Y-115869000D02*
X115788000Y-115869000D01*
X110660000Y-117829000D02*
X116817000Y-117829000D01*
X103023000Y-115389000D02*
X115417000Y-115389000D01*
X110660000Y-116269000D02*
X116056000Y-116269000D01*
X104586000Y-113949000D02*
X113854000Y-113949000D01*
X106100000Y-113109000D02*
X112340000Y-113109000D01*
X105663000Y-113309000D02*
X112777000Y-113309000D01*
X110660000Y-116949000D02*
X116439000Y-116949000D01*
X101206000Y-119549000D02*
X117234000Y-119549000D01*
X101151000Y-120150000D02*
X117289000Y-120150000D01*
X103536000Y-114829000D02*
X114904000Y-114829000D01*
X101410000Y-118509000D02*
X117030000Y-118509000D01*
X110660000Y-117469000D02*
X116677000Y-117469000D01*
X103865000Y-128479491D02*
X105465000Y-128479491D01*
X104211000Y-114229000D02*
X114229000Y-114229000D01*
X101315000Y-118909000D02*
X117125000Y-118909000D01*
X103125000Y-115269000D02*
X115315000Y-115269000D01*
X102681000Y-115829000D02*
X107780000Y-115829000D01*
X101797000Y-117389000D02*
X107780000Y-117389000D01*
X102770000Y-115709000D02*
X107780000Y-115709000D01*
X106623000Y-112909000D02*
X111817000Y-112909000D01*
X101342000Y-118789000D02*
X117098000Y-118789000D01*
X102262000Y-116469000D02*
X107780000Y-116469000D01*
X102384000Y-116269000D02*
X107780000Y-116269000D01*
X101162000Y-119990000D02*
X117278000Y-119990000D01*
X106296000Y-113029000D02*
X112144000Y-113029000D01*
X108122000Y-112549000D02*
X110318000Y-112549000D01*
X110660000Y-115469000D02*
X115483000Y-115469000D01*
X103418000Y-114949000D02*
X115022000Y-114949000D01*
X104643000Y-113909000D02*
X113797000Y-113909000D01*
X110660000Y-116709000D02*
X116314000Y-116709000D01*
X101159000Y-120030000D02*
X117281000Y-120030000D01*
X101638000Y-117789000D02*
X107780000Y-117789000D01*
X101667000Y-117709000D02*
X107780000Y-117709000D01*
X101981000Y-116989000D02*
X107780000Y-116989000D01*
X103832000Y-114549000D02*
X114608000Y-114549000D01*
X104064000Y-114349000D02*
X114376000Y-114349000D01*
X104420000Y-114069000D02*
X114020000Y-114069000D01*
X110660000Y-115749000D02*
X115700000Y-115749000D01*
X101144000Y-120310000D02*
X117296000Y-120310000D01*
X101229000Y-119389000D02*
X117211000Y-119389000D01*
X106400000Y-112989000D02*
X112040000Y-112989000D01*
X110660000Y-115629000D02*
X115610000Y-115629000D01*
X110660000Y-117309000D02*
X116609000Y-117309000D01*
X102568000Y-115989000D02*
X107780000Y-115989000D01*
X101390000Y-118589000D02*
X117050000Y-118589000D01*
X106509000Y-112949000D02*
X111931000Y-112949000D01*
X103969000Y-114429000D02*
X114471000Y-114429000D01*
X101502000Y-118189000D02*
X107780000Y-118189000D01*
X105011000Y-113669000D02*
X113429000Y-113669000D01*
X110660000Y-116429000D02*
X116154000Y-116429000D01*
X110660000Y-116669000D02*
X116292000Y-116669000D01*
X103057000Y-115349000D02*
X115383000Y-115349000D01*
X106869000Y-112829000D02*
X111571000Y-112829000D01*
X103380000Y-114989000D02*
X115060000Y-114989000D01*
X110660000Y-116189000D02*
X116005000Y-116189000D01*
X105583000Y-113349000D02*
X112857000Y-113349000D01*
X110660000Y-115589000D02*
X115578000Y-115589000D01*
X110660000Y-118109000D02*
X116913000Y-118109000D01*
X102990000Y-115429000D02*
X107780000Y-115429000D01*
X101490000Y-118229000D02*
X107780000Y-118229000D01*
X101212000Y-119509000D02*
X117228000Y-119509000D01*
X101904000Y-117149000D02*
X107780000Y-117149000D01*
X102800000Y-115669000D02*
X107780000Y-115669000D01*
X101235000Y-119349000D02*
X117205000Y-119349000D01*
X103231000Y-115149000D02*
X115209000Y-115149000D01*
X107002000Y-112789000D02*
X111438000Y-112789000D01*
X102126000Y-116709000D02*
X107780000Y-116709000D01*
X102359000Y-116309000D02*
X107780000Y-116309000D01*
X107146000Y-112749000D02*
X111294000Y-112749000D01*
X103923000Y-114469000D02*
X114517000Y-114469000D01*
X103745000Y-114629000D02*
X114695000Y-114629000D01*
X110660000Y-117989000D02*
X116873000Y-117989000D01*
X101223000Y-119429000D02*
X117217000Y-119429000D01*
X110660000Y-116789000D02*
X116356000Y-116789000D01*
X110660000Y-116469000D02*
X116178000Y-116469000D01*
X101142000Y-120390000D02*
X117298000Y-120390000D01*
X102957000Y-115469000D02*
X107780000Y-115469000D01*
X105917000Y-113189000D02*
X112523000Y-113189000D01*
X103577000Y-114789000D02*
X114863000Y-114789000D01*
X101179000Y-119789000D02*
X117261000Y-119789000D01*
X101540000Y-118069000D02*
X107780000Y-118069000D01*
X101455000Y-118349000D02*
X116985000Y-118349000D01*
X110660000Y-116229000D02*
X116031000Y-116229000D01*
X110660000Y-117909000D02*
X116845000Y-117909000D01*
X104016000Y-114389000D02*
X114424000Y-114389000D01*
X102925000Y-115509000D02*
X107780000Y-115509000D01*
X110660000Y-117549000D02*
X116710000Y-117549000D01*
X101187000Y-119709000D02*
X117253000Y-119709000D01*
X103457000Y-114909000D02*
X114983000Y-114909000D01*
X105830000Y-113229000D02*
X112610000Y-113229000D01*
X101149000Y-120190000D02*
X117291000Y-120190000D01*
X101351000Y-118749000D02*
X117089000Y-118749000D01*
X101683000Y-117669000D02*
X107780000Y-117669000D01*
X101923000Y-117109000D02*
X107780000Y-117109000D01*
X110660000Y-118189000D02*
X116938000Y-118189000D01*
X110660000Y-116589000D02*
X116247000Y-116589000D01*
X101291000Y-119029000D02*
X117149000Y-119029000D01*
X101143000Y-120350000D02*
X117297000Y-120350000D01*
X102084000Y-116789000D02*
X107780000Y-116789000D01*
X101140000Y-120550000D02*
X117300000Y-120550000D01*
X110660000Y-116149000D02*
X115979000Y-116149000D01*
X110660000Y-115429000D02*
X115450000Y-115429000D01*
X102310000Y-116389000D02*
X107780000Y-116389000D01*
X101478000Y-118269000D02*
X107780000Y-118269000D01*
X105745000Y-113269000D02*
X112695000Y-113269000D01*
X101554000Y-118029000D02*
X107780000Y-118029000D01*
X110660000Y-117789000D02*
X116802000Y-117789000D01*
X110660000Y-117349000D02*
X116626000Y-117349000D01*
X110660000Y-116109000D02*
X115953000Y-116109000D01*
X110660000Y-115669000D02*
X115640000Y-115669000D01*
X105213000Y-113549000D02*
X113227000Y-113549000D01*
X104947000Y-113709000D02*
X113493000Y-113709000D01*
X101183000Y-119749000D02*
X117257000Y-119749000D01*
X102893000Y-115549000D02*
X107780000Y-115549000D01*
X103195000Y-115189000D02*
X115245000Y-115189000D01*
X101140000Y-120470000D02*
X117300000Y-120470000D01*
X110660000Y-115549000D02*
X115547000Y-115549000D01*
X102710000Y-115789000D02*
X107780000Y-115789000D01*
X107869000Y-112589000D02*
X110571000Y-112589000D01*
X104822000Y-113789000D02*
X113618000Y-113789000D01*
X103788000Y-114589000D02*
X114652000Y-114589000D01*
X107656000Y-112629000D02*
X110784000Y-112629000D01*
X110660000Y-116069000D02*
X115926000Y-116069000D01*
X110660000Y-118149000D02*
X116925000Y-118149000D01*
X104262000Y-114189000D02*
X114178000Y-114189000D01*
X102514000Y-116069000D02*
X107780000Y-116069000D01*
X110660000Y-116829000D02*
X116377000Y-116829000D01*
X103702000Y-114669000D02*
X114738000Y-114669000D01*
X102216000Y-116549000D02*
X107780000Y-116549000D01*
X101154000Y-120110000D02*
X117286000Y-120110000D01*
X102334000Y-116349000D02*
X107780000Y-116349000D01*
X101254000Y-119229000D02*
X117186000Y-119229000D01*
X102105000Y-116749000D02*
X107780000Y-116749000D01*
X101146000Y-120270000D02*
X117294000Y-120270000D01*
X110660000Y-117629000D02*
X116742000Y-117629000D01*
X102740000Y-115749000D02*
X107780000Y-115749000D01*
X110660000Y-115829000D02*
X115759000Y-115829000D01*
X101886000Y-117189000D02*
X107780000Y-117189000D01*
X102193000Y-116589000D02*
X107780000Y-116589000D01*
X107300000Y-112709000D02*
X111140000Y-112709000D01*
X105144000Y-113589000D02*
X113296000Y-113589000D01*
X101400000Y-118549000D02*
X117040000Y-118549000D01*
X110660000Y-116509000D02*
X116201000Y-116509000D01*
X110660000Y-117189000D02*
X116554000Y-117189000D01*
X101867000Y-117229000D02*
X107780000Y-117229000D01*
X101360000Y-118709000D02*
X117080000Y-118709000D01*
X110660000Y-115709000D02*
X115670000Y-115709000D01*
X101831000Y-117309000D02*
X107780000Y-117309000D01*
X101698000Y-117629000D02*
X107780000Y-117629000D01*
X101714000Y-117589000D02*
X107780000Y-117589000D01*
X101307000Y-118949000D02*
X117133000Y-118949000D01*
X101141000Y-120430000D02*
X117299000Y-120430000D01*
X110660000Y-117669000D02*
X116757000Y-117669000D01*
X102624000Y-115909000D02*
X107780000Y-115909000D01*
X110660000Y-117029000D02*
X116478000Y-117029000D01*
X104474000Y-114029000D02*
X113966000Y-114029000D01*
X110660000Y-117149000D02*
X116536000Y-117149000D01*
X110660000Y-117389000D02*
X116643000Y-117389000D01*
X102409000Y-116229000D02*
X107780000Y-116229000D01*
X110660000Y-116309000D02*
X116081000Y-116309000D01*
X104161000Y-114269000D02*
X114279000Y-114269000D01*
X104701000Y-113869000D02*
X113739000Y-113869000D01*
X101581000Y-117949000D02*
X107780000Y-117949000D01*
X110660000Y-118069000D02*
X116900000Y-118069000D01*
X101201000Y-119589000D02*
X117239000Y-119589000D01*
X108455000Y-112509000D02*
X109985000Y-112509000D01*
X101217000Y-119469000D02*
X117223000Y-119469000D01*
X102541000Y-116029000D02*
X107780000Y-116029000D01*
X101730000Y-117549000D02*
X107780000Y-117549000D01*
X110660000Y-115789000D02*
X115730000Y-115789000D01*
X101595000Y-117909000D02*
X107780000Y-117909000D01*
X101147000Y-120230000D02*
X117293000Y-120230000D01*
X101299000Y-118989000D02*
X117141000Y-118989000D01*
X106007000Y-113149000D02*
X112433000Y-113149000D01*
X101849000Y-117269000D02*
X107780000Y-117269000D01*
X101380000Y-118629000D02*
X117060000Y-118629000D01*
X110660000Y-116629000D02*
X116269000Y-116629000D01*
X104314000Y-114149000D02*
X114126000Y-114149000D01*
X105430000Y-113429000D02*
X113010000Y-113429000D01*
X110660000Y-117709000D02*
X116773000Y-117709000D01*
X101370000Y-118669000D02*
X117070000Y-118669000D01*
X102862000Y-115589000D02*
X107780000Y-115589000D01*
X102001000Y-116949000D02*
X107780000Y-116949000D01*
X101156000Y-120070000D02*
X117284000Y-120070000D01*
X110660000Y-118269000D02*
X116962000Y-118269000D01*
X101609000Y-117869000D02*
X107780000Y-117869000D01*
X110660000Y-116349000D02*
X116106000Y-116349000D01*
X105284000Y-113509000D02*
X113156000Y-113509000D01*
X102487000Y-116109000D02*
X107780000Y-116109000D01*
X110660000Y-116749000D02*
X116335000Y-116749000D01*
X104529000Y-113989000D02*
X113911000Y-113989000D01*
X103304000Y-115069000D02*
X115136000Y-115069000D01*
X110660000Y-117429000D02*
X116660000Y-117429000D01*
X104761000Y-113829000D02*
X113679000Y-113829000D01*
X103877000Y-114509000D02*
X114563000Y-114509000D01*
X101192000Y-119669000D02*
X117248000Y-119669000D01*
X102596000Y-115949000D02*
X107780000Y-115949000D01*
X103091000Y-115309000D02*
X115349000Y-115309000D01*
X102652000Y-115869000D02*
X107780000Y-115869000D01*
X103496000Y-114869000D02*
X114944000Y-114869000D01*
X101763000Y-117469000D02*
X107780000Y-117469000D01*
X110660000Y-115509000D02*
X115515000Y-115509000D01*
X105077000Y-113629000D02*
X113363000Y-113629000D01*
X110660000Y-115949000D02*
X115844000Y-115949000D01*
X105505000Y-113389000D02*
X112935000Y-113389000D01*
X101140000Y-120510000D02*
X117300000Y-120510000D01*
X110660000Y-116909000D02*
X116419000Y-116909000D01*
X101196000Y-119629000D02*
X117244000Y-119629000D01*
X110660000Y-117109000D02*
X116517000Y-117109000D01*
X101165000Y-119950000D02*
X117275000Y-119950000D01*
X101814000Y-117349000D02*
X107780000Y-117349000D01*
X101283000Y-119069000D02*
X117157000Y-119069000D01*
X102830000Y-115629000D02*
X107780000Y-115629000D01*
X117340000Y-120590000D02*
G75*
G03*
X117340000Y-120590000I-8120000J0D01*
G01*
X129032000Y-79756000D02*
X133858000Y-79756000D01*
X128016000Y-68580000D02*
X129032000Y-68580000D01*
X123190000Y-68580000D02*
X123190000Y-79756000D01*
X152146000Y-68580000D02*
X152146000Y-68834000D01*
X122174000Y-68580000D02*
X123190000Y-68580000D01*
X151130000Y-79756000D02*
X151130000Y-68580000D01*
X151130000Y-68580000D02*
X152146000Y-68580000D01*
X123190000Y-83820000D02*
X123190000Y-98552000D01*
X122174000Y-98552000D02*
X122174000Y-68580000D01*
X152146000Y-68834000D02*
X152146000Y-98552000D01*
X139446000Y-68580000D02*
X140462000Y-68580000D01*
X133858000Y-68580000D02*
X134874000Y-68580000D01*
X145288000Y-79756000D02*
X145288000Y-68580000D01*
X139446000Y-79756000D02*
X139446000Y-68580000D01*
X152146000Y-98552000D02*
X151130000Y-98552000D01*
X146304000Y-79756000D02*
X151130000Y-79756000D01*
X145288000Y-68580000D02*
X146304000Y-68580000D01*
X129032000Y-68580000D02*
X129032000Y-79756000D01*
X123190000Y-98552000D02*
X122174000Y-98552000D01*
X134874000Y-68580000D02*
X134874000Y-79756000D01*
X128016000Y-79756000D02*
X128016000Y-68580000D01*
X151130000Y-83820000D02*
X123190000Y-83820000D01*
X140462000Y-68580000D02*
X140462000Y-79756000D01*
X140462000Y-79756000D02*
X145288000Y-79756000D01*
X134874000Y-79756000D02*
X139446000Y-79756000D01*
X146304000Y-68580000D02*
X146304000Y-79756000D01*
X151130000Y-98552000D02*
X151130000Y-83820000D01*
X133858000Y-79756000D02*
X133858000Y-68580000D01*
X123190000Y-79756000D02*
X128016000Y-79756000D01*
X167350000Y-101410000D02*
X167350000Y-101566000D01*
X167350000Y-99094000D02*
X167350000Y-99250000D01*
X170582335Y-99251392D02*
G75*
G03*
X167350000Y-99094484I-1672335J-1078608D01*
G01*
X169951130Y-99250163D02*
G75*
G03*
X167869039Y-99250000I-1041130J-1079837D01*
G01*
X167350000Y-101565516D02*
G75*
G03*
X170582335Y-101408608I1560000J1235516D01*
G01*
X167869039Y-101410000D02*
G75*
G03*
X169951130Y-101409837I1040961J1080000D01*
G01*
X160620000Y-126770000D02*
X160620000Y-128889000D01*
X161221000Y-122760000D02*
X161221000Y-124690000D01*
X160781000Y-126770000D02*
X160781000Y-128851000D01*
X160981000Y-126770000D02*
X160981000Y-128791000D01*
X161541000Y-126770000D02*
X161541000Y-128542000D01*
X160861000Y-122632000D02*
X160861000Y-124690000D01*
X160500000Y-126770000D02*
X160500000Y-128912000D01*
X162021000Y-126770000D02*
X162021000Y-128214000D01*
X160020000Y-122500000D02*
X160020000Y-128960000D01*
X161701000Y-126770000D02*
X161701000Y-128446000D01*
X160300000Y-126770000D02*
X160300000Y-128941000D01*
X162541000Y-123786000D02*
X162541000Y-127674000D01*
X161701000Y-123014000D02*
X161701000Y-124690000D01*
X161341000Y-122814000D02*
X161341000Y-124690000D01*
X161301000Y-126770000D02*
X161301000Y-128664000D01*
X161501000Y-122896000D02*
X161501000Y-124690000D01*
X160981000Y-122669000D02*
X160981000Y-124690000D01*
X161181000Y-122744000D02*
X161181000Y-124690000D01*
X161781000Y-123066000D02*
X161781000Y-124690000D01*
X161781000Y-126770000D02*
X161781000Y-128394000D01*
X160180000Y-126770000D02*
X160180000Y-128952000D01*
X162861000Y-124298000D02*
X162861000Y-127162000D01*
X160941000Y-122656000D02*
X160941000Y-124690000D01*
X160661000Y-122580000D02*
X160661000Y-124690000D01*
X162141000Y-123350000D02*
X162141000Y-124690000D01*
X162701000Y-124016000D02*
X162701000Y-127444000D01*
X161861000Y-126770000D02*
X161861000Y-128337000D01*
X161261000Y-122778000D02*
X161261000Y-124690000D01*
X162941000Y-124468000D02*
X162941000Y-126992000D01*
X160701000Y-122589000D02*
X160701000Y-124690000D01*
X161021000Y-122683000D02*
X161021000Y-124690000D01*
X161661000Y-122988000D02*
X161661000Y-124690000D01*
X161461000Y-122874000D02*
X161461000Y-124690000D01*
X160460000Y-122541000D02*
X160460000Y-124690000D01*
X160260000Y-122515000D02*
X160260000Y-124690000D01*
X160781000Y-122609000D02*
X160781000Y-124690000D01*
X161861000Y-123123000D02*
X161861000Y-124690000D01*
X160540000Y-126770000D02*
X160540000Y-128905000D01*
X160861000Y-126770000D02*
X160861000Y-128828000D01*
X161741000Y-126770000D02*
X161741000Y-128420000D01*
X161501000Y-126770000D02*
X161501000Y-128564000D01*
X161381000Y-126770000D02*
X161381000Y-128626000D01*
X160420000Y-122535000D02*
X160420000Y-124690000D01*
X163061000Y-124790000D02*
X163061000Y-126670000D01*
X161741000Y-123040000D02*
X161741000Y-124690000D01*
X162901000Y-124380000D02*
X162901000Y-127080000D01*
X161941000Y-123182000D02*
X161941000Y-124690000D01*
X162501000Y-123735000D02*
X162501000Y-127725000D01*
X161981000Y-123214000D02*
X161981000Y-124690000D01*
X160420000Y-126770000D02*
X160420000Y-128925000D01*
X160580000Y-122563000D02*
X160580000Y-124690000D01*
X160901000Y-122644000D02*
X160901000Y-124690000D01*
X159980000Y-122500000D02*
X159980000Y-128960000D01*
X161581000Y-126770000D02*
X161581000Y-128520000D01*
X160580000Y-126770000D02*
X160580000Y-128897000D01*
X162061000Y-123280000D02*
X162061000Y-124690000D01*
X160260000Y-126770000D02*
X160260000Y-128945000D01*
X162821000Y-124221000D02*
X162821000Y-127239000D01*
X161101000Y-126770000D02*
X161101000Y-128748000D01*
X160220000Y-122512000D02*
X160220000Y-124690000D01*
X161261000Y-126770000D02*
X161261000Y-128682000D01*
X160140000Y-122506000D02*
X160140000Y-128954000D01*
X160540000Y-122555000D02*
X160540000Y-124690000D01*
X162221000Y-123425000D02*
X162221000Y-124690000D01*
X161541000Y-122918000D02*
X161541000Y-124690000D01*
X161901000Y-123152000D02*
X161901000Y-124690000D01*
X161901000Y-126770000D02*
X161901000Y-128308000D01*
X162581000Y-123840000D02*
X162581000Y-127620000D01*
X162341000Y-123548000D02*
X162341000Y-127912000D01*
X163101000Y-124928000D02*
X163101000Y-126532000D01*
X161061000Y-122697000D02*
X161061000Y-124690000D01*
X161821000Y-126770000D02*
X161821000Y-128366000D01*
X161461000Y-126770000D02*
X161461000Y-128586000D01*
X162021000Y-123246000D02*
X162021000Y-124690000D01*
X161661000Y-126770000D02*
X161661000Y-128472000D01*
X160701000Y-126770000D02*
X160701000Y-128871000D01*
X161941000Y-126770000D02*
X161941000Y-128278000D01*
X161221000Y-126770000D02*
X161221000Y-128700000D01*
X161301000Y-122796000D02*
X161301000Y-124690000D01*
X161621000Y-122964000D02*
X161621000Y-124690000D01*
X160500000Y-122548000D02*
X160500000Y-124690000D01*
X160741000Y-126770000D02*
X160741000Y-128861000D01*
X162621000Y-123896000D02*
X162621000Y-127564000D01*
X161341000Y-126770000D02*
X161341000Y-128646000D01*
X163181000Y-125328000D02*
X163181000Y-126132000D01*
X160821000Y-126770000D02*
X160821000Y-128840000D01*
X162061000Y-126770000D02*
X162061000Y-128180000D01*
X159940000Y-122500000D02*
X159940000Y-128960000D01*
X160300000Y-122519000D02*
X160300000Y-124690000D01*
X161101000Y-122712000D02*
X161101000Y-124690000D01*
X160661000Y-126770000D02*
X160661000Y-128880000D01*
X161021000Y-126770000D02*
X161021000Y-128777000D01*
X161821000Y-123094000D02*
X161821000Y-124690000D01*
X162461000Y-123686000D02*
X162461000Y-127774000D01*
X160741000Y-122599000D02*
X160741000Y-124690000D01*
X161381000Y-122834000D02*
X161381000Y-124690000D01*
X160180000Y-122508000D02*
X160180000Y-124690000D01*
X162381000Y-123593000D02*
X162381000Y-127867000D01*
X160060000Y-122502000D02*
X160060000Y-128958000D01*
X162781000Y-124149000D02*
X162781000Y-127311000D01*
X163141000Y-125097000D02*
X163141000Y-126363000D01*
X162301000Y-123506000D02*
X162301000Y-127954000D01*
X160380000Y-126770000D02*
X160380000Y-128931000D01*
X163021000Y-124671000D02*
X163021000Y-126789000D01*
X160340000Y-122524000D02*
X160340000Y-124690000D01*
X161421000Y-126770000D02*
X161421000Y-128606000D01*
X156754759Y-123576000D02*
X156754759Y-124206000D01*
X161621000Y-126770000D02*
X161621000Y-128496000D01*
X161181000Y-126770000D02*
X161181000Y-128716000D01*
X162981000Y-124565000D02*
X162981000Y-126895000D01*
X160941000Y-126770000D02*
X160941000Y-128804000D01*
X160460000Y-126770000D02*
X160460000Y-128919000D01*
X161981000Y-126770000D02*
X161981000Y-128246000D01*
X162661000Y-123954000D02*
X162661000Y-127506000D01*
X160901000Y-126770000D02*
X160901000Y-128816000D01*
X161141000Y-122728000D02*
X161141000Y-124690000D01*
X160340000Y-126770000D02*
X160340000Y-128936000D01*
X160620000Y-122571000D02*
X160620000Y-124690000D01*
X161421000Y-122854000D02*
X161421000Y-124690000D01*
X162421000Y-123638000D02*
X162421000Y-127822000D01*
X162141000Y-126770000D02*
X162141000Y-128110000D01*
X160220000Y-126770000D02*
X160220000Y-128948000D01*
X162101000Y-123314000D02*
X162101000Y-124690000D01*
X161061000Y-126770000D02*
X161061000Y-128763000D01*
X162741000Y-124080000D02*
X162741000Y-127380000D01*
X156439759Y-123891000D02*
X157069759Y-123891000D01*
X162181000Y-123387000D02*
X162181000Y-124690000D01*
X160821000Y-122620000D02*
X160821000Y-124690000D01*
X160100000Y-122503000D02*
X160100000Y-128957000D01*
X161581000Y-122940000D02*
X161581000Y-124690000D01*
X161141000Y-126770000D02*
X161141000Y-128732000D01*
X162261000Y-123465000D02*
X162261000Y-127995000D01*
X162221000Y-126770000D02*
X162221000Y-128035000D01*
X160380000Y-122529000D02*
X160380000Y-124690000D01*
X162101000Y-126770000D02*
X162101000Y-128146000D01*
X162181000Y-126770000D02*
X162181000Y-128073000D01*
X163210000Y-125730000D02*
G75*
G03*
X163210000Y-125730000I-3270000J0D01*
G01*
X174571000Y-83987000D02*
X174571000Y-86005000D01*
X167470000Y-86747000D02*
X169077000Y-86747000D01*
X167470000Y-83987000D02*
X177970000Y-83987000D01*
X171283000Y-86747000D02*
X171618000Y-86747000D01*
X173823000Y-86747000D02*
X174158000Y-86747000D01*
X167470000Y-88928000D02*
X177970000Y-88928000D01*
X170870000Y-83987000D02*
X170870000Y-86005000D01*
X167470000Y-83987000D02*
X167470000Y-88928000D01*
X176363000Y-86747000D02*
X177970000Y-86747000D01*
X177970000Y-83987000D02*
X177970000Y-88928000D01*
X104665000Y-86219491D02*
X104665000Y-84619491D01*
X101261000Y-76129000D02*
X117179000Y-76129000D01*
X105213000Y-70489000D02*
X113227000Y-70489000D01*
X110660000Y-72609000D02*
X115640000Y-72609000D01*
X110660000Y-75049000D02*
X116913000Y-75049000D01*
X104314000Y-71089000D02*
X114126000Y-71089000D01*
X110660000Y-73569000D02*
X116269000Y-73569000D01*
X110660000Y-72969000D02*
X115899000Y-72969000D01*
X102681000Y-72769000D02*
X107780000Y-72769000D01*
X103536000Y-71769000D02*
X114904000Y-71769000D01*
X106196000Y-70009000D02*
X112244000Y-70009000D01*
X103865000Y-85419491D02*
X105465000Y-85419491D01*
X107002000Y-69729000D02*
X111438000Y-69729000D01*
X110660000Y-73409000D02*
X116178000Y-73409000D01*
X103618000Y-71689000D02*
X114822000Y-71689000D01*
X110660000Y-73449000D02*
X116201000Y-73449000D01*
X101168000Y-76850000D02*
X117272000Y-76850000D01*
X103969000Y-71369000D02*
X114471000Y-71369000D01*
X101146000Y-77210000D02*
X117294000Y-77210000D01*
X105077000Y-70569000D02*
X113363000Y-70569000D01*
X110660000Y-74169000D02*
X116573000Y-74169000D01*
X101156000Y-77010000D02*
X117284000Y-77010000D01*
X101746000Y-74449000D02*
X107780000Y-74449000D01*
X101276000Y-76049000D02*
X117164000Y-76049000D01*
X110660000Y-74449000D02*
X116694000Y-74449000D01*
X101141000Y-77370000D02*
X117299000Y-77370000D01*
X102568000Y-72929000D02*
X107780000Y-72929000D01*
X110660000Y-73489000D02*
X116224000Y-73489000D01*
X101730000Y-74489000D02*
X107780000Y-74489000D01*
X110660000Y-72729000D02*
X115730000Y-72729000D01*
X103788000Y-71529000D02*
X114652000Y-71529000D01*
X105745000Y-70209000D02*
X112695000Y-70209000D01*
X102148000Y-73609000D02*
X107780000Y-73609000D01*
X110660000Y-73089000D02*
X115979000Y-73089000D01*
X101667000Y-74649000D02*
X107780000Y-74649000D01*
X103023000Y-72329000D02*
X115417000Y-72329000D01*
X110660000Y-74889000D02*
X116859000Y-74889000D01*
X101595000Y-74849000D02*
X107780000Y-74849000D01*
X102310000Y-73329000D02*
X107780000Y-73329000D01*
X104161000Y-71209000D02*
X114279000Y-71209000D01*
X101962000Y-73969000D02*
X107780000Y-73969000D01*
X110660000Y-72409000D02*
X115483000Y-72409000D01*
X110660000Y-74369000D02*
X116660000Y-74369000D01*
X106509000Y-69889000D02*
X111931000Y-69889000D01*
X103496000Y-71809000D02*
X114944000Y-71809000D01*
X103418000Y-71889000D02*
X115022000Y-71889000D01*
X103342000Y-71969000D02*
X115098000Y-71969000D01*
X101370000Y-75609000D02*
X117070000Y-75609000D01*
X101283000Y-76009000D02*
X117157000Y-76009000D01*
X104822000Y-70729000D02*
X113618000Y-70729000D01*
X101478000Y-75209000D02*
X107780000Y-75209000D01*
X101143000Y-77290000D02*
X117297000Y-77290000D01*
X101567000Y-74929000D02*
X107780000Y-74929000D01*
X104701000Y-70809000D02*
X113739000Y-70809000D01*
X101149000Y-77130000D02*
X117291000Y-77130000D01*
X104586000Y-70889000D02*
X113854000Y-70889000D01*
X101140000Y-77450000D02*
X117300000Y-77450000D01*
X101581000Y-74889000D02*
X107780000Y-74889000D01*
X101324000Y-75809000D02*
X117116000Y-75809000D01*
X105011000Y-70609000D02*
X113429000Y-70609000D01*
X102409000Y-73169000D02*
X107780000Y-73169000D01*
X103380000Y-71929000D02*
X115060000Y-71929000D01*
X107468000Y-69609000D02*
X110972000Y-69609000D01*
X101229000Y-76329000D02*
X117211000Y-76329000D01*
X102596000Y-72889000D02*
X107780000Y-72889000D01*
X105430000Y-70369000D02*
X113010000Y-70369000D01*
X110660000Y-72529000D02*
X115578000Y-72529000D01*
X101142000Y-77330000D02*
X117298000Y-77330000D01*
X101165000Y-76890000D02*
X117275000Y-76890000D01*
X108455000Y-69449000D02*
X109985000Y-69449000D01*
X101421000Y-75409000D02*
X117019000Y-75409000D01*
X101171000Y-76809000D02*
X117269000Y-76809000D01*
X104262000Y-71129000D02*
X114178000Y-71129000D01*
X110660000Y-73129000D02*
X116005000Y-73129000D01*
X101540000Y-75009000D02*
X107780000Y-75009000D01*
X104366000Y-71049000D02*
X114074000Y-71049000D01*
X101144000Y-77250000D02*
X117296000Y-77250000D01*
X110660000Y-73809000D02*
X116398000Y-73809000D01*
X101502000Y-75129000D02*
X107780000Y-75129000D01*
X110660000Y-74049000D02*
X116517000Y-74049000D01*
X101315000Y-75849000D02*
X117125000Y-75849000D01*
X110660000Y-73049000D02*
X115953000Y-73049000D01*
X106623000Y-69849000D02*
X111817000Y-69849000D01*
X110660000Y-73209000D02*
X116056000Y-73209000D01*
X110660000Y-73649000D02*
X116314000Y-73649000D01*
X101139000Y-77530000D02*
X117301000Y-77530000D01*
X110660000Y-75209000D02*
X116962000Y-75209000D01*
X110660000Y-72849000D02*
X115816000Y-72849000D01*
X101638000Y-74729000D02*
X107780000Y-74729000D01*
X101206000Y-76489000D02*
X117234000Y-76489000D01*
X102239000Y-73449000D02*
X107780000Y-73449000D01*
X101886000Y-74129000D02*
X107780000Y-74129000D01*
X110660000Y-73969000D02*
X116478000Y-73969000D01*
X101196000Y-76569000D02*
X117244000Y-76569000D01*
X103057000Y-72289000D02*
X115383000Y-72289000D01*
X102487000Y-73049000D02*
X107780000Y-73049000D01*
X101455000Y-75289000D02*
X116985000Y-75289000D01*
X110660000Y-73249000D02*
X116081000Y-73249000D01*
X110660000Y-74009000D02*
X116498000Y-74009000D01*
X106100000Y-70049000D02*
X112340000Y-70049000D01*
X105583000Y-70289000D02*
X112857000Y-70289000D01*
X103745000Y-71569000D02*
X114695000Y-71569000D01*
X101814000Y-74289000D02*
X107780000Y-74289000D01*
X101867000Y-74169000D02*
X107780000Y-74169000D01*
X101763000Y-74409000D02*
X107780000Y-74409000D01*
X102216000Y-73489000D02*
X107780000Y-73489000D01*
X110660000Y-73689000D02*
X116335000Y-73689000D01*
X104112000Y-71249000D02*
X114328000Y-71249000D01*
X110660000Y-74249000D02*
X116609000Y-74249000D01*
X102435000Y-73129000D02*
X107780000Y-73129000D01*
X102193000Y-73529000D02*
X107780000Y-73529000D01*
X110660000Y-72689000D02*
X115700000Y-72689000D01*
X110660000Y-74849000D02*
X116845000Y-74849000D01*
X103923000Y-71409000D02*
X114517000Y-71409000D01*
X102990000Y-72369000D02*
X107780000Y-72369000D01*
X101527000Y-75049000D02*
X107780000Y-75049000D01*
X101432000Y-75369000D02*
X117008000Y-75369000D01*
X101212000Y-76449000D02*
X117228000Y-76449000D01*
X103125000Y-72209000D02*
X115315000Y-72209000D01*
X101162000Y-76930000D02*
X117278000Y-76930000D01*
X101623000Y-74769000D02*
X107780000Y-74769000D01*
X102105000Y-73689000D02*
X107780000Y-73689000D01*
X110660000Y-74609000D02*
X116757000Y-74609000D01*
X101183000Y-76689000D02*
X117257000Y-76689000D01*
X101299000Y-75929000D02*
X117141000Y-75929000D01*
X104016000Y-71329000D02*
X114424000Y-71329000D01*
X101490000Y-75169000D02*
X107780000Y-75169000D01*
X110660000Y-75129000D02*
X116938000Y-75129000D01*
X104474000Y-70969000D02*
X113966000Y-70969000D01*
X101981000Y-73929000D02*
X107780000Y-73929000D01*
X102514000Y-73009000D02*
X107780000Y-73009000D01*
X104947000Y-70649000D02*
X113493000Y-70649000D01*
X110660000Y-73289000D02*
X116106000Y-73289000D01*
X101780000Y-74369000D02*
X107780000Y-74369000D01*
X101333000Y-75769000D02*
X117107000Y-75769000D01*
X102084000Y-73729000D02*
X107780000Y-73729000D01*
X101342000Y-75729000D02*
X117098000Y-75729000D01*
X107869000Y-69529000D02*
X110571000Y-69529000D01*
X101400000Y-75489000D02*
X117040000Y-75489000D01*
X110660000Y-73609000D02*
X116292000Y-73609000D01*
X102461000Y-73089000D02*
X107780000Y-73089000D01*
X110660000Y-74809000D02*
X116831000Y-74809000D01*
X101390000Y-75529000D02*
X117050000Y-75529000D01*
X101241000Y-76249000D02*
X117199000Y-76249000D01*
X103660000Y-71649000D02*
X114780000Y-71649000D01*
X101849000Y-74209000D02*
X107780000Y-74209000D01*
X110660000Y-74929000D02*
X116873000Y-74929000D01*
X103702000Y-71609000D02*
X114738000Y-71609000D01*
X102862000Y-72529000D02*
X107780000Y-72529000D01*
X102740000Y-72689000D02*
X107780000Y-72689000D01*
X101140000Y-77410000D02*
X117300000Y-77410000D01*
X101307000Y-75889000D02*
X117133000Y-75889000D01*
X101223000Y-76369000D02*
X117217000Y-76369000D01*
X103577000Y-71729000D02*
X114863000Y-71729000D01*
X101201000Y-76529000D02*
X117239000Y-76529000D01*
X102624000Y-72849000D02*
X107780000Y-72849000D01*
X110660000Y-72569000D02*
X115610000Y-72569000D01*
X104643000Y-70849000D02*
X113797000Y-70849000D01*
X110660000Y-75089000D02*
X116925000Y-75089000D01*
X102359000Y-73249000D02*
X107780000Y-73249000D01*
X110660000Y-73529000D02*
X116247000Y-73529000D01*
X105144000Y-70529000D02*
X113296000Y-70529000D01*
X103195000Y-72129000D02*
X115245000Y-72129000D01*
X110660000Y-74089000D02*
X116536000Y-74089000D01*
X102042000Y-73809000D02*
X107780000Y-73809000D01*
X101683000Y-74609000D02*
X107780000Y-74609000D01*
X102171000Y-73569000D02*
X107780000Y-73569000D01*
X101609000Y-74809000D02*
X107780000Y-74809000D01*
X101187000Y-76649000D02*
X117253000Y-76649000D01*
X106400000Y-69929000D02*
X112040000Y-69929000D01*
X104529000Y-70929000D02*
X113911000Y-70929000D01*
X102800000Y-72609000D02*
X107780000Y-72609000D01*
X110660000Y-73329000D02*
X116130000Y-73329000D01*
X110660000Y-74129000D02*
X116554000Y-74129000D01*
X101410000Y-75449000D02*
X117030000Y-75449000D01*
X105284000Y-70449000D02*
X113156000Y-70449000D01*
X110660000Y-73769000D02*
X116377000Y-73769000D01*
X101147000Y-77170000D02*
X117293000Y-77170000D01*
X110660000Y-74489000D02*
X116710000Y-74489000D01*
X101831000Y-74249000D02*
X107780000Y-74249000D01*
X101179000Y-76729000D02*
X117261000Y-76729000D01*
X101175000Y-76769000D02*
X117265000Y-76769000D01*
X102063000Y-73769000D02*
X107780000Y-73769000D01*
X110660000Y-74569000D02*
X116742000Y-74569000D01*
X110660000Y-72769000D02*
X115759000Y-72769000D01*
X110660000Y-74409000D02*
X116677000Y-74409000D01*
X102001000Y-73889000D02*
X107780000Y-73889000D01*
X108122000Y-69489000D02*
X110318000Y-69489000D01*
X107300000Y-69649000D02*
X111140000Y-69649000D01*
X101351000Y-75689000D02*
X117089000Y-75689000D01*
X101151000Y-77090000D02*
X117289000Y-77090000D01*
X101797000Y-74329000D02*
X107780000Y-74329000D01*
X102770000Y-72649000D02*
X107780000Y-72649000D01*
X103457000Y-71849000D02*
X114983000Y-71849000D01*
X105505000Y-70329000D02*
X112935000Y-70329000D01*
X110660000Y-74769000D02*
X116817000Y-74769000D01*
X110660000Y-73169000D02*
X116031000Y-73169000D01*
X105663000Y-70249000D02*
X112777000Y-70249000D01*
X101443000Y-75329000D02*
X116997000Y-75329000D01*
X110660000Y-72369000D02*
X115450000Y-72369000D01*
X110660000Y-75169000D02*
X116950000Y-75169000D01*
X110660000Y-73849000D02*
X116419000Y-73849000D01*
X101904000Y-74089000D02*
X107780000Y-74089000D01*
X106869000Y-69769000D02*
X111571000Y-69769000D01*
X101714000Y-74529000D02*
X107780000Y-74529000D01*
X103091000Y-72249000D02*
X115349000Y-72249000D01*
X101923000Y-74049000D02*
X107780000Y-74049000D01*
X106007000Y-70089000D02*
X112433000Y-70089000D01*
X102957000Y-72409000D02*
X107780000Y-72409000D01*
X103304000Y-72009000D02*
X115136000Y-72009000D01*
X110660000Y-73369000D02*
X116154000Y-73369000D01*
X104761000Y-70769000D02*
X113679000Y-70769000D01*
X110660000Y-72489000D02*
X115547000Y-72489000D01*
X101698000Y-74569000D02*
X107780000Y-74569000D01*
X104420000Y-71009000D02*
X114020000Y-71009000D01*
X101466000Y-75249000D02*
X116974000Y-75249000D01*
X110660000Y-74209000D02*
X116591000Y-74209000D01*
X102925000Y-72449000D02*
X107780000Y-72449000D01*
X107656000Y-69569000D02*
X110784000Y-69569000D01*
X103231000Y-72089000D02*
X115209000Y-72089000D01*
X110660000Y-73009000D02*
X115926000Y-73009000D01*
X110660000Y-73929000D02*
X116459000Y-73929000D01*
X110660000Y-73729000D02*
X116356000Y-73729000D01*
X101254000Y-76169000D02*
X117186000Y-76169000D01*
X110660000Y-74289000D02*
X116626000Y-74289000D01*
X102384000Y-73209000D02*
X107780000Y-73209000D01*
X102334000Y-73289000D02*
X107780000Y-73289000D01*
X110660000Y-72889000D02*
X115844000Y-72889000D01*
X105830000Y-70169000D02*
X112610000Y-70169000D01*
X103832000Y-71489000D02*
X114608000Y-71489000D01*
X101248000Y-76209000D02*
X117192000Y-76209000D01*
X102893000Y-72489000D02*
X107780000Y-72489000D01*
X103160000Y-72169000D02*
X115280000Y-72169000D01*
X101515000Y-75089000D02*
X107780000Y-75089000D01*
X110660000Y-72449000D02*
X115515000Y-72449000D01*
X102286000Y-73369000D02*
X107780000Y-73369000D01*
X110660000Y-74329000D02*
X116643000Y-74329000D01*
X110660000Y-74649000D02*
X116773000Y-74649000D01*
X103877000Y-71449000D02*
X114563000Y-71449000D01*
X102021000Y-73849000D02*
X107780000Y-73849000D01*
X106296000Y-69969000D02*
X112144000Y-69969000D01*
X101380000Y-75569000D02*
X117060000Y-75569000D01*
X101154000Y-77050000D02*
X117286000Y-77050000D01*
X110660000Y-74969000D02*
X116886000Y-74969000D01*
X110660000Y-73889000D02*
X116439000Y-73889000D01*
X110660000Y-75009000D02*
X116900000Y-75009000D01*
X101217000Y-76409000D02*
X117223000Y-76409000D01*
X101268000Y-76089000D02*
X117172000Y-76089000D01*
X104884000Y-70689000D02*
X113556000Y-70689000D01*
X105356000Y-70409000D02*
X113084000Y-70409000D01*
X101554000Y-74969000D02*
X107780000Y-74969000D01*
X110660000Y-74689000D02*
X116788000Y-74689000D01*
X106742000Y-69809000D02*
X111698000Y-69809000D01*
X110660000Y-72929000D02*
X115872000Y-72929000D01*
X107146000Y-69689000D02*
X111294000Y-69689000D01*
X110660000Y-74529000D02*
X116726000Y-74529000D01*
X102710000Y-72729000D02*
X107780000Y-72729000D01*
X101192000Y-76609000D02*
X117248000Y-76609000D01*
X103268000Y-72049000D02*
X115172000Y-72049000D01*
X105917000Y-70129000D02*
X112523000Y-70129000D01*
X101159000Y-76970000D02*
X117281000Y-76970000D01*
X110660000Y-72809000D02*
X115788000Y-72809000D01*
X101140000Y-77490000D02*
X117300000Y-77490000D01*
X101652000Y-74689000D02*
X107780000Y-74689000D01*
X102262000Y-73409000D02*
X107780000Y-73409000D01*
X104211000Y-71169000D02*
X114229000Y-71169000D01*
X101291000Y-75969000D02*
X117149000Y-75969000D01*
X101235000Y-76289000D02*
X117205000Y-76289000D01*
X110660000Y-72649000D02*
X115670000Y-72649000D01*
X101942000Y-74009000D02*
X107780000Y-74009000D01*
X104064000Y-71289000D02*
X114376000Y-71289000D01*
X110660000Y-74729000D02*
X116802000Y-74729000D01*
X102830000Y-72569000D02*
X107780000Y-72569000D01*
X102126000Y-73649000D02*
X107780000Y-73649000D01*
X101360000Y-75649000D02*
X117080000Y-75649000D01*
X102652000Y-72809000D02*
X107780000Y-72809000D01*
X102541000Y-72969000D02*
X107780000Y-72969000D01*
X117340000Y-77530000D02*
G75*
G03*
X117340000Y-77530000I-8120000J0D01*
G01*
X152146000Y-129540000D02*
X151130000Y-129540000D01*
X123190000Y-118364000D02*
X123190000Y-129540000D01*
X145288000Y-129540000D02*
X145288000Y-118364000D01*
X123190000Y-129540000D02*
X122174000Y-129540000D01*
X133858000Y-118364000D02*
X129032000Y-118364000D01*
X128016000Y-118364000D02*
X123190000Y-118364000D01*
X122174000Y-99568000D02*
X123190000Y-99568000D01*
X123190000Y-114300000D02*
X151130000Y-114300000D01*
X151130000Y-99568000D02*
X152146000Y-99568000D01*
X134874000Y-118364000D02*
X134874000Y-129540000D01*
X122174000Y-129540000D02*
X122174000Y-129286000D01*
X151130000Y-114300000D02*
X151130000Y-99568000D01*
X140462000Y-118364000D02*
X140462000Y-129540000D01*
X146304000Y-129540000D02*
X145288000Y-129540000D01*
X151130000Y-129540000D02*
X151130000Y-118364000D01*
X122174000Y-129286000D02*
X122174000Y-99568000D01*
X151130000Y-118364000D02*
X146304000Y-118364000D01*
X145288000Y-118364000D02*
X140462000Y-118364000D01*
X152146000Y-99568000D02*
X152146000Y-129540000D01*
X128016000Y-129540000D02*
X128016000Y-118364000D01*
X129032000Y-118364000D02*
X129032000Y-129540000D01*
X139446000Y-129540000D02*
X139446000Y-118364000D01*
X133858000Y-129540000D02*
X133858000Y-118364000D01*
X139446000Y-118364000D02*
X134874000Y-118364000D01*
X134874000Y-129540000D02*
X133858000Y-129540000D01*
X123190000Y-99568000D02*
X123190000Y-114300000D01*
X146304000Y-118364000D02*
X146304000Y-129540000D01*
X129032000Y-129540000D02*
X128016000Y-129540000D01*
X140462000Y-129540000D02*
X139446000Y-129540000D01*
X181070000Y-127100000D02*
X181070000Y-124360000D01*
X174530000Y-127100000D02*
X181070000Y-127100000D01*
X181840000Y-125730000D02*
X181070000Y-125730000D01*
X181070000Y-124360000D02*
X174530000Y-124360000D01*
X174530000Y-124360000D02*
X174530000Y-127100000D01*
X173760000Y-125730000D02*
X174530000Y-125730000D01*
X139280000Y-92710000D02*
X135040000Y-92710000D01*
X135760000Y-92710000D02*
X135760000Y-94950000D01*
X135040000Y-94950000D02*
X139280000Y-94950000D01*
X135880000Y-92710000D02*
X135880000Y-94950000D01*
X134390000Y-93830000D02*
X135040000Y-93830000D01*
X135640000Y-92710000D02*
X135640000Y-94950000D01*
X135040000Y-92710000D02*
X135040000Y-94950000D01*
X139280000Y-94950000D02*
X139280000Y-92710000D01*
X139930000Y-93830000D02*
X139280000Y-93830000D01*
X167350000Y-124494000D02*
X167350000Y-124650000D01*
X167350000Y-126810000D02*
X167350000Y-126966000D01*
X169951130Y-124650163D02*
G75*
G03*
X167869039Y-124650000I-1041130J-1079837D01*
G01*
X167350000Y-126965516D02*
G75*
G03*
X170582335Y-126808608I1560000J1235516D01*
G01*
X170582335Y-124651392D02*
G75*
G03*
X167350000Y-124494484I-1672335J-1078608D01*
G01*
X167869039Y-126810000D02*
G75*
G03*
X169951130Y-126809837I1040961J1080000D01*
G01*
X132701000Y-107030000D02*
X133959000Y-107030000D01*
X132701000Y-108870000D02*
X133959000Y-108870000D01*
%LPC*%
D16*
X167640000Y-90170000D03*
X170140000Y-90170000D03*
D17*
X133350000Y-104140000D03*
D18*
X140970000Y-104140000D03*
D16*
X182880000Y-100330000D03*
D18*
X172720000Y-100330000D03*
D17*
X168900000Y-93980000D03*
D18*
X176520000Y-93980000D03*
D19*
X112110000Y-91410000D03*
D20*
X112110000Y-96490000D03*
X112110000Y-101570000D03*
X112110000Y-106650000D03*
D21*
X182880000Y-110490000D03*
D22*
X182880000Y-112990000D03*
X182880000Y-115490000D03*
X182880000Y-117990000D03*
X182880000Y-120490000D03*
D16*
X182880000Y-105410000D03*
D18*
X172720000Y-105410000D03*
D17*
X145900000Y-92710000D03*
D18*
X145900000Y-85090000D03*
D17*
X161400000Y-105410000D03*
D16*
X158900000Y-105410000D03*
D23*
X134620000Y-87195000D03*
D24*
X137160000Y-87195000D03*
X139700000Y-87195000D03*
D16*
X175220000Y-90170000D03*
X172720000Y-90170000D03*
D25*
X172720000Y-81280000D03*
X161290000Y-81280000D03*
X184150000Y-81280000D03*
D26*
X101170000Y-102870000D03*
D22*
X101170000Y-100370000D03*
X101170000Y-97870000D03*
X101170000Y-95370000D03*
D16*
X132080000Y-90170000D03*
X134580000Y-90170000D03*
D17*
X161290000Y-115570000D03*
D16*
X158790000Y-115570000D03*
D17*
X128270000Y-105410000D03*
D18*
X128270000Y-113030000D03*
D20*
X99060000Y-68720500D03*
X193040000Y-68580000D03*
D27*
X167640000Y-105410000D03*
D28*
X170180000Y-105410000D03*
D16*
X139700000Y-107950000D03*
X137200000Y-107950000D03*
D20*
X193040000Y-129540000D03*
D16*
X139700000Y-90170000D03*
X137200000Y-90170000D03*
D23*
X139700000Y-110998000D03*
D24*
X137160000Y-110998000D03*
X134620000Y-110998000D03*
D29*
X109220000Y-124340000D03*
D30*
X109220000Y-116840000D03*
D25*
X137160000Y-81280000D03*
X125730000Y-81280000D03*
X148590000Y-81280000D03*
D27*
X167640000Y-100330000D03*
D28*
X170180000Y-100330000D03*
D17*
X158690000Y-125730000D03*
D16*
X161190000Y-125730000D03*
D20*
X99060000Y-129540000D03*
D23*
X170180000Y-87155000D03*
D24*
X172720000Y-87155000D03*
X175260000Y-87155000D03*
D29*
X109220000Y-81280000D03*
D30*
X109220000Y-73780000D03*
D25*
X137160000Y-116840000D03*
X148590000Y-116840000D03*
X125730000Y-116840000D03*
D16*
X182880000Y-125730000D03*
D18*
X172720000Y-125730000D03*
D17*
X133350000Y-93830000D03*
D18*
X140970000Y-93830000D03*
D27*
X167640000Y-125730000D03*
D28*
X170180000Y-125730000D03*
D16*
X132080000Y-107950000D03*
X134580000Y-107950000D03*
M02*
