G04 #@! TF.GenerationSoftware,KiCad,Pcbnew,(6.0.11)*
G04 #@! TF.CreationDate,2023-02-03T17:13:15+09:00*
G04 #@! TF.ProjectId,12V_Dual_5V_PSU,3132565f-4475-4616-9c5f-35565f505355,Ver. 1.1*
G04 #@! TF.SameCoordinates,Original*
G04 #@! TF.FileFunction,Soldermask,Bot*
G04 #@! TF.FilePolarity,Negative*
%FSLAX46Y46*%
G04 Gerber Fmt 4.6, Leading zero omitted, Abs format (unit mm)*
G04 Created by KiCad (PCBNEW (6.0.11)) date 2023-02-03 17:13:15*
%MOMM*%
%LPD*%
G01*
G04 APERTURE LIST*
G04 Aperture macros list*
%AMRoundRect*
0 Rectangle with rounded corners*
0 $1 Rounding radius*
0 $2 $3 $4 $5 $6 $7 $8 $9 X,Y pos of 4 corners*
0 Add a 4 corners polygon primitive as box body*
4,1,4,$2,$3,$4,$5,$6,$7,$8,$9,$2,$3,0*
0 Add four circle primitives for the rounded corners*
1,1,$1+$1,$2,$3*
1,1,$1+$1,$4,$5*
1,1,$1+$1,$6,$7*
1,1,$1+$1,$8,$9*
0 Add four rect primitives between the rounded corners*
20,1,$1+$1,$2,$3,$4,$5,0*
20,1,$1+$1,$4,$5,$6,$7,0*
20,1,$1+$1,$6,$7,$8,$9,0*
20,1,$1+$1,$8,$9,$2,$3,0*%
G04 Aperture macros list end*
%ADD10C,1.600000*%
%ADD11R,1.600000X1.600000*%
%ADD12O,1.600000X1.600000*%
%ADD13R,3.200000X3.200000*%
%ADD14C,3.200000*%
%ADD15RoundRect,0.250000X-0.725000X0.600000X-0.725000X-0.600000X0.725000X-0.600000X0.725000X0.600000X0*%
%ADD16O,1.950000X1.700000*%
%ADD17R,1.905000X2.000000*%
%ADD18O,1.905000X2.000000*%
%ADD19C,2.600000*%
%ADD20RoundRect,0.250000X0.725000X-0.600000X0.725000X0.600000X-0.725000X0.600000X-0.725000X-0.600000X0*%
%ADD21R,1.800000X1.800000*%
%ADD22C,1.800000*%
%ADD23R,2.400000X2.400000*%
%ADD24C,2.400000*%
G04 APERTURE END LIST*
D10*
X167640000Y-90170000D03*
X170140000Y-90170000D03*
D11*
X133350000Y-104140000D03*
D12*
X140970000Y-104140000D03*
D10*
X182880000Y-100330000D03*
D12*
X172720000Y-100330000D03*
D11*
X168900000Y-93980000D03*
D12*
X176520000Y-93980000D03*
D13*
X112110000Y-91410000D03*
D14*
X112110000Y-96490000D03*
X112110000Y-101570000D03*
X112110000Y-106650000D03*
D15*
X182880000Y-110490000D03*
D16*
X182880000Y-112990000D03*
X182880000Y-115490000D03*
X182880000Y-117990000D03*
X182880000Y-120490000D03*
D10*
X182880000Y-105410000D03*
D12*
X172720000Y-105410000D03*
D11*
X145900000Y-92710000D03*
D12*
X145900000Y-85090000D03*
D11*
X161400000Y-105410000D03*
D10*
X158900000Y-105410000D03*
D17*
X134620000Y-87195000D03*
D18*
X137160000Y-87195000D03*
X139700000Y-87195000D03*
D10*
X175220000Y-90170000D03*
X172720000Y-90170000D03*
D19*
X172720000Y-81280000D03*
X161290000Y-81280000D03*
X184150000Y-81280000D03*
D20*
X101170000Y-102870000D03*
D16*
X101170000Y-100370000D03*
X101170000Y-97870000D03*
X101170000Y-95370000D03*
D10*
X132080000Y-90170000D03*
X134580000Y-90170000D03*
D11*
X161290000Y-115570000D03*
D10*
X158790000Y-115570000D03*
D11*
X128270000Y-105410000D03*
D12*
X128270000Y-113030000D03*
D14*
X99060000Y-68720500D03*
X193040000Y-68580000D03*
D21*
X167640000Y-105410000D03*
D22*
X170180000Y-105410000D03*
D10*
X139700000Y-107950000D03*
X137200000Y-107950000D03*
D14*
X193040000Y-129540000D03*
D10*
X139700000Y-90170000D03*
X137200000Y-90170000D03*
D17*
X139700000Y-110998000D03*
D18*
X137160000Y-110998000D03*
X134620000Y-110998000D03*
D23*
X109220000Y-124340000D03*
D24*
X109220000Y-116840000D03*
D19*
X137160000Y-81280000D03*
X125730000Y-81280000D03*
X148590000Y-81280000D03*
D21*
X167640000Y-100330000D03*
D22*
X170180000Y-100330000D03*
D11*
X158690000Y-125730000D03*
D10*
X161190000Y-125730000D03*
D14*
X99060000Y-129540000D03*
D17*
X170180000Y-87155000D03*
D18*
X172720000Y-87155000D03*
X175260000Y-87155000D03*
D23*
X109220000Y-81280000D03*
D24*
X109220000Y-73780000D03*
D19*
X137160000Y-116840000D03*
X148590000Y-116840000D03*
X125730000Y-116840000D03*
D10*
X182880000Y-125730000D03*
D12*
X172720000Y-125730000D03*
D11*
X133350000Y-93830000D03*
D12*
X140970000Y-93830000D03*
D21*
X167640000Y-125730000D03*
D22*
X170180000Y-125730000D03*
D10*
X132080000Y-107950000D03*
X134580000Y-107950000D03*
M02*
