G04 #@! TF.GenerationSoftware,KiCad,Pcbnew,(6.0.11)*
G04 #@! TF.CreationDate,2023-02-03T17:13:15+09:00*
G04 #@! TF.ProjectId,12V_Dual_5V_PSU,3132565f-4475-4616-9c5f-35565f505355,Ver. 1.1*
G04 #@! TF.SameCoordinates,Original*
G04 #@! TF.FileFunction,Legend,Bot*
G04 #@! TF.FilePolarity,Positive*
%FSLAX46Y46*%
G04 Gerber Fmt 4.6, Leading zero omitted, Abs format (unit mm)*
G04 Created by KiCad (PCBNEW (6.0.11)) date 2023-02-03 17:13:15*
%MOMM*%
%LPD*%
G01*
G04 APERTURE LIST*
G04 Aperture macros list*
%AMRoundRect*
0 Rectangle with rounded corners*
0 $1 Rounding radius*
0 $2 $3 $4 $5 $6 $7 $8 $9 X,Y pos of 4 corners*
0 Add a 4 corners polygon primitive as box body*
4,1,4,$2,$3,$4,$5,$6,$7,$8,$9,$2,$3,0*
0 Add four circle primitives for the rounded corners*
1,1,$1+$1,$2,$3*
1,1,$1+$1,$4,$5*
1,1,$1+$1,$6,$7*
1,1,$1+$1,$8,$9*
0 Add four rect primitives between the rounded corners*
20,1,$1+$1,$2,$3,$4,$5,0*
20,1,$1+$1,$4,$5,$6,$7,0*
20,1,$1+$1,$6,$7,$8,$9,0*
20,1,$1+$1,$8,$9,$2,$3,0*%
G04 Aperture macros list end*
%ADD10C,0.010000*%
%ADD11C,1.600000*%
%ADD12R,1.600000X1.600000*%
%ADD13O,1.600000X1.600000*%
%ADD14R,3.200000X3.200000*%
%ADD15C,3.200000*%
%ADD16RoundRect,0.250000X-0.725000X0.600000X-0.725000X-0.600000X0.725000X-0.600000X0.725000X0.600000X0*%
%ADD17O,1.950000X1.700000*%
%ADD18R,1.905000X2.000000*%
%ADD19O,1.905000X2.000000*%
%ADD20C,2.600000*%
%ADD21RoundRect,0.250000X0.725000X-0.600000X0.725000X0.600000X-0.725000X0.600000X-0.725000X-0.600000X0*%
%ADD22R,1.800000X1.800000*%
%ADD23C,1.800000*%
%ADD24R,2.400000X2.400000*%
%ADD25C,2.400000*%
G04 APERTURE END LIST*
G36*
X176557389Y-75333755D02*
G01*
X176437637Y-75472636D01*
X176304292Y-75572283D01*
X176070556Y-75624057D01*
X175801016Y-75554022D01*
X175790784Y-75549419D01*
X175653489Y-75511327D01*
X175563078Y-75554022D01*
X175414161Y-75623529D01*
X175223731Y-75594394D01*
X175025416Y-75469569D01*
X175012620Y-75458120D01*
X174909829Y-75355853D01*
X174895139Y-75295937D01*
X174958375Y-75244164D01*
X175013860Y-75191433D01*
X175026927Y-75152250D01*
X175704500Y-75152250D01*
X175723073Y-75256012D01*
X175801743Y-75311000D01*
X175880438Y-75283212D01*
X175945206Y-75180809D01*
X175928630Y-75060040D01*
X175923335Y-75051888D01*
X175830843Y-74990458D01*
X175743357Y-75029894D01*
X175704500Y-75152250D01*
X175026927Y-75152250D01*
X175057006Y-75062053D01*
X175069500Y-74838629D01*
X175071006Y-74752421D01*
X175110042Y-74485015D01*
X175214160Y-74315174D01*
X175399703Y-74225889D01*
X175683015Y-74200152D01*
X175909343Y-74213289D01*
X176185185Y-74276853D01*
X176372960Y-74386292D01*
X176455079Y-74534003D01*
X176448826Y-74646026D01*
X176374394Y-74715445D01*
X176245730Y-74694641D01*
X176085500Y-74580750D01*
X175989904Y-74502523D01*
X175843080Y-74444451D01*
X175742079Y-74489096D01*
X175704500Y-74633998D01*
X175705474Y-74667417D01*
X175732494Y-74747754D01*
X175821128Y-74791928D01*
X176004030Y-74820244D01*
X176067757Y-74828712D01*
X176289735Y-74894493D01*
X176448530Y-75022544D01*
X176507312Y-75093604D01*
X176556446Y-75180809D01*
X176580236Y-75223034D01*
X176557389Y-75333755D01*
G37*
D10*
X176557389Y-75333755D02*
X176437637Y-75472636D01*
X176304292Y-75572283D01*
X176070556Y-75624057D01*
X175801016Y-75554022D01*
X175790784Y-75549419D01*
X175653489Y-75511327D01*
X175563078Y-75554022D01*
X175414161Y-75623529D01*
X175223731Y-75594394D01*
X175025416Y-75469569D01*
X175012620Y-75458120D01*
X174909829Y-75355853D01*
X174895139Y-75295937D01*
X174958375Y-75244164D01*
X175013860Y-75191433D01*
X175026927Y-75152250D01*
X175704500Y-75152250D01*
X175723073Y-75256012D01*
X175801743Y-75311000D01*
X175880438Y-75283212D01*
X175945206Y-75180809D01*
X175928630Y-75060040D01*
X175923335Y-75051888D01*
X175830843Y-74990458D01*
X175743357Y-75029894D01*
X175704500Y-75152250D01*
X175026927Y-75152250D01*
X175057006Y-75062053D01*
X175069500Y-74838629D01*
X175071006Y-74752421D01*
X175110042Y-74485015D01*
X175214160Y-74315174D01*
X175399703Y-74225889D01*
X175683015Y-74200152D01*
X175909343Y-74213289D01*
X176185185Y-74276853D01*
X176372960Y-74386292D01*
X176455079Y-74534003D01*
X176448826Y-74646026D01*
X176374394Y-74715445D01*
X176245730Y-74694641D01*
X176085500Y-74580750D01*
X175989904Y-74502523D01*
X175843080Y-74444451D01*
X175742079Y-74489096D01*
X175704500Y-74633998D01*
X175705474Y-74667417D01*
X175732494Y-74747754D01*
X175821128Y-74791928D01*
X176004030Y-74820244D01*
X176067757Y-74828712D01*
X176289735Y-74894493D01*
X176448530Y-75022544D01*
X176507312Y-75093604D01*
X176556446Y-75180809D01*
X176580236Y-75223034D01*
X176557389Y-75333755D01*
G36*
X174279826Y-74217312D02*
G01*
X174444057Y-74294259D01*
X174605187Y-74444643D01*
X174707690Y-74583330D01*
X174799893Y-74846237D01*
X174784872Y-75110570D01*
X174666732Y-75347725D01*
X174449577Y-75529097D01*
X174415388Y-75546298D01*
X174134667Y-75617954D01*
X173829511Y-75601746D01*
X173557047Y-75499563D01*
X173506647Y-75466931D01*
X173375269Y-75342392D01*
X173364486Y-75243758D01*
X173469508Y-75183205D01*
X173685546Y-75172906D01*
X173718646Y-75175084D01*
X173896052Y-75174204D01*
X174002513Y-75132589D01*
X174085551Y-75033702D01*
X174131269Y-74949180D01*
X174170130Y-74771580D01*
X174130481Y-74630810D01*
X174017393Y-74561967D01*
X173913311Y-74578974D01*
X173812379Y-74704842D01*
X173779821Y-74761428D01*
X173657478Y-74853350D01*
X173517093Y-74856073D01*
X173392321Y-74784933D01*
X173316816Y-74655265D01*
X173324233Y-74482405D01*
X173374573Y-74390293D01*
X173541897Y-74264149D01*
X173785383Y-74191712D01*
X174075953Y-74184506D01*
X174279826Y-74217312D01*
G37*
X174279826Y-74217312D02*
X174444057Y-74294259D01*
X174605187Y-74444643D01*
X174707690Y-74583330D01*
X174799893Y-74846237D01*
X174784872Y-75110570D01*
X174666732Y-75347725D01*
X174449577Y-75529097D01*
X174415388Y-75546298D01*
X174134667Y-75617954D01*
X173829511Y-75601746D01*
X173557047Y-75499563D01*
X173506647Y-75466931D01*
X173375269Y-75342392D01*
X173364486Y-75243758D01*
X173469508Y-75183205D01*
X173685546Y-75172906D01*
X173718646Y-75175084D01*
X173896052Y-75174204D01*
X174002513Y-75132589D01*
X174085551Y-75033702D01*
X174131269Y-74949180D01*
X174170130Y-74771580D01*
X174130481Y-74630810D01*
X174017393Y-74561967D01*
X173913311Y-74578974D01*
X173812379Y-74704842D01*
X173779821Y-74761428D01*
X173657478Y-74853350D01*
X173517093Y-74856073D01*
X173392321Y-74784933D01*
X173316816Y-74655265D01*
X173324233Y-74482405D01*
X173374573Y-74390293D01*
X173541897Y-74264149D01*
X173785383Y-74191712D01*
X174075953Y-74184506D01*
X174279826Y-74217312D01*
G36*
X183669389Y-75333755D02*
G01*
X183549637Y-75472636D01*
X183416292Y-75572283D01*
X183182556Y-75624057D01*
X182913016Y-75554022D01*
X182902784Y-75549419D01*
X182765489Y-75511327D01*
X182675078Y-75554022D01*
X182526161Y-75623529D01*
X182335731Y-75594394D01*
X182137416Y-75469569D01*
X182124620Y-75458120D01*
X182021829Y-75355853D01*
X182007139Y-75295937D01*
X182070375Y-75244164D01*
X182125860Y-75191433D01*
X182138927Y-75152250D01*
X182816500Y-75152250D01*
X182835073Y-75256012D01*
X182913743Y-75311000D01*
X182992438Y-75283212D01*
X183057206Y-75180809D01*
X183040630Y-75060040D01*
X183035335Y-75051888D01*
X182942843Y-74990458D01*
X182855357Y-75029894D01*
X182816500Y-75152250D01*
X182138927Y-75152250D01*
X182169006Y-75062053D01*
X182181500Y-74838629D01*
X182183006Y-74752421D01*
X182222042Y-74485015D01*
X182326160Y-74315174D01*
X182511703Y-74225889D01*
X182795015Y-74200152D01*
X183021343Y-74213289D01*
X183297185Y-74276853D01*
X183484960Y-74386292D01*
X183567079Y-74534003D01*
X183560826Y-74646026D01*
X183486394Y-74715445D01*
X183357730Y-74694641D01*
X183197500Y-74580750D01*
X183101904Y-74502523D01*
X182955080Y-74444451D01*
X182854079Y-74489096D01*
X182816500Y-74633998D01*
X182817474Y-74667417D01*
X182844494Y-74747754D01*
X182933128Y-74791928D01*
X183116030Y-74820244D01*
X183179757Y-74828712D01*
X183401735Y-74894493D01*
X183560530Y-75022544D01*
X183619312Y-75093604D01*
X183668446Y-75180809D01*
X183692236Y-75223034D01*
X183669389Y-75333755D01*
G37*
X183669389Y-75333755D02*
X183549637Y-75472636D01*
X183416292Y-75572283D01*
X183182556Y-75624057D01*
X182913016Y-75554022D01*
X182902784Y-75549419D01*
X182765489Y-75511327D01*
X182675078Y-75554022D01*
X182526161Y-75623529D01*
X182335731Y-75594394D01*
X182137416Y-75469569D01*
X182124620Y-75458120D01*
X182021829Y-75355853D01*
X182007139Y-75295937D01*
X182070375Y-75244164D01*
X182125860Y-75191433D01*
X182138927Y-75152250D01*
X182816500Y-75152250D01*
X182835073Y-75256012D01*
X182913743Y-75311000D01*
X182992438Y-75283212D01*
X183057206Y-75180809D01*
X183040630Y-75060040D01*
X183035335Y-75051888D01*
X182942843Y-74990458D01*
X182855357Y-75029894D01*
X182816500Y-75152250D01*
X182138927Y-75152250D01*
X182169006Y-75062053D01*
X182181500Y-74838629D01*
X182183006Y-74752421D01*
X182222042Y-74485015D01*
X182326160Y-74315174D01*
X182511703Y-74225889D01*
X182795015Y-74200152D01*
X183021343Y-74213289D01*
X183297185Y-74276853D01*
X183484960Y-74386292D01*
X183567079Y-74534003D01*
X183560826Y-74646026D01*
X183486394Y-74715445D01*
X183357730Y-74694641D01*
X183197500Y-74580750D01*
X183101904Y-74502523D01*
X182955080Y-74444451D01*
X182854079Y-74489096D01*
X182816500Y-74633998D01*
X182817474Y-74667417D01*
X182844494Y-74747754D01*
X182933128Y-74791928D01*
X183116030Y-74820244D01*
X183179757Y-74828712D01*
X183401735Y-74894493D01*
X183560530Y-75022544D01*
X183619312Y-75093604D01*
X183668446Y-75180809D01*
X183692236Y-75223034D01*
X183669389Y-75333755D01*
G36*
X180774035Y-74191969D02*
G01*
X180943250Y-74295000D01*
X181033460Y-74379540D01*
X181111842Y-74422000D01*
X181142994Y-74398245D01*
X181165500Y-74295000D01*
X181165583Y-74283522D01*
X181179354Y-74206197D01*
X181235286Y-74175340D01*
X181359961Y-74187333D01*
X181579961Y-74238554D01*
X181698349Y-74272281D01*
X181885943Y-74357392D01*
X181953096Y-74450483D01*
X181896534Y-74548350D01*
X181852072Y-74616109D01*
X181811103Y-74789168D01*
X181801438Y-75005673D01*
X181824041Y-75217694D01*
X181879875Y-75377299D01*
X181893845Y-75400564D01*
X181925047Y-75498813D01*
X181864000Y-75565965D01*
X181762489Y-75602566D01*
X181581571Y-75624460D01*
X181383038Y-75622129D01*
X181214515Y-75596656D01*
X181123625Y-75549125D01*
X181102160Y-75457781D01*
X181090672Y-75276044D01*
X181093500Y-75048193D01*
X181093570Y-74795362D01*
X181059648Y-74620249D01*
X180987994Y-74561156D01*
X180876969Y-74614808D01*
X180849352Y-74649011D01*
X180801557Y-74800506D01*
X180785541Y-75006718D01*
X180802732Y-75218512D01*
X180854557Y-75386750D01*
X180891664Y-75499661D01*
X180838682Y-75572103D01*
X180815654Y-75583865D01*
X180658060Y-75617585D01*
X180446113Y-75625238D01*
X180236332Y-75607385D01*
X180085237Y-75564591D01*
X180076850Y-75560057D01*
X180008245Y-75506827D01*
X180003300Y-75428702D01*
X180057661Y-75280880D01*
X180072226Y-75242491D01*
X180127234Y-75016917D01*
X180149500Y-74781853D01*
X180161158Y-74626952D01*
X180245939Y-74382138D01*
X180402956Y-74224074D01*
X180620518Y-74168000D01*
X180774035Y-74191969D01*
G37*
X180774035Y-74191969D02*
X180943250Y-74295000D01*
X181033460Y-74379540D01*
X181111842Y-74422000D01*
X181142994Y-74398245D01*
X181165500Y-74295000D01*
X181165583Y-74283522D01*
X181179354Y-74206197D01*
X181235286Y-74175340D01*
X181359961Y-74187333D01*
X181579961Y-74238554D01*
X181698349Y-74272281D01*
X181885943Y-74357392D01*
X181953096Y-74450483D01*
X181896534Y-74548350D01*
X181852072Y-74616109D01*
X181811103Y-74789168D01*
X181801438Y-75005673D01*
X181824041Y-75217694D01*
X181879875Y-75377299D01*
X181893845Y-75400564D01*
X181925047Y-75498813D01*
X181864000Y-75565965D01*
X181762489Y-75602566D01*
X181581571Y-75624460D01*
X181383038Y-75622129D01*
X181214515Y-75596656D01*
X181123625Y-75549125D01*
X181102160Y-75457781D01*
X181090672Y-75276044D01*
X181093500Y-75048193D01*
X181093570Y-74795362D01*
X181059648Y-74620249D01*
X180987994Y-74561156D01*
X180876969Y-74614808D01*
X180849352Y-74649011D01*
X180801557Y-74800506D01*
X180785541Y-75006718D01*
X180802732Y-75218512D01*
X180854557Y-75386750D01*
X180891664Y-75499661D01*
X180838682Y-75572103D01*
X180815654Y-75583865D01*
X180658060Y-75617585D01*
X180446113Y-75625238D01*
X180236332Y-75607385D01*
X180085237Y-75564591D01*
X180076850Y-75560057D01*
X180008245Y-75506827D01*
X180003300Y-75428702D01*
X180057661Y-75280880D01*
X180072226Y-75242491D01*
X180127234Y-75016917D01*
X180149500Y-74781853D01*
X180161158Y-74626952D01*
X180245939Y-74382138D01*
X180402956Y-74224074D01*
X180620518Y-74168000D01*
X180774035Y-74191969D01*
G36*
X177513637Y-73774579D02*
G01*
X177724920Y-73871029D01*
X177830311Y-74026185D01*
X177836715Y-74246513D01*
X177832056Y-74278363D01*
X177827740Y-74429187D01*
X177862750Y-74485500D01*
X177900098Y-74509319D01*
X177927000Y-74612500D01*
X177906129Y-74694598D01*
X177800000Y-74739500D01*
X177715505Y-74782764D01*
X177667572Y-74904348D01*
X177666556Y-75061867D01*
X177712153Y-75212436D01*
X177804060Y-75313172D01*
X177896805Y-75350684D01*
X178001394Y-75336839D01*
X178069469Y-75229505D01*
X178106385Y-75018063D01*
X178117500Y-74691895D01*
X178117500Y-74151841D01*
X178432894Y-74182147D01*
X178537138Y-74195865D01*
X178727747Y-74240261D01*
X178847246Y-74294581D01*
X178880299Y-74323631D01*
X178912886Y-74392370D01*
X178849352Y-74483729D01*
X178816037Y-74536442D01*
X178768810Y-74707328D01*
X178753881Y-74915777D01*
X178772818Y-75108769D01*
X178827190Y-75233289D01*
X178843557Y-75248583D01*
X178940686Y-75282181D01*
X179011666Y-75194647D01*
X179055201Y-74988992D01*
X179070000Y-74668224D01*
X179070000Y-74168000D01*
X179252563Y-74168000D01*
X179431561Y-74174920D01*
X179678086Y-74217764D01*
X179829711Y-74294019D01*
X179875976Y-74397032D01*
X179806418Y-74520153D01*
X179777738Y-74556617D01*
X179722613Y-74724238D01*
X179705000Y-74998035D01*
X179695157Y-75226191D01*
X179656152Y-75388714D01*
X179578000Y-75501500D01*
X179561562Y-75516890D01*
X179369333Y-75610572D01*
X179137989Y-75615996D01*
X178916685Y-75530971D01*
X178839679Y-75483659D01*
X178769764Y-75468827D01*
X178730412Y-75530971D01*
X178655763Y-75596817D01*
X178497775Y-75626203D01*
X178302288Y-75608186D01*
X178111994Y-75542003D01*
X178055211Y-75514260D01*
X177938044Y-75489338D01*
X177829982Y-75542395D01*
X177820010Y-75549125D01*
X177660973Y-75602222D01*
X177432183Y-75626741D01*
X177182112Y-75623119D01*
X176959231Y-75591796D01*
X176812012Y-75533207D01*
X176732712Y-75462155D01*
X176739106Y-75403567D01*
X176838087Y-75311421D01*
X176930047Y-75202250D01*
X176996837Y-74978089D01*
X176996975Y-74886819D01*
X176961783Y-74787974D01*
X176859603Y-74750464D01*
X176859496Y-74750449D01*
X176748808Y-74692432D01*
X176724883Y-74591384D01*
X176780932Y-74490128D01*
X176910169Y-74431487D01*
X176977196Y-74417214D01*
X177139555Y-74350392D01*
X177279371Y-74256966D01*
X177364714Y-74161174D01*
X177363653Y-74087252D01*
X177282952Y-74063036D01*
X177132756Y-74130734D01*
X177057365Y-74173256D01*
X176876861Y-74219671D01*
X176737299Y-74180694D01*
X176668985Y-74060888D01*
X176690155Y-73928725D01*
X176811993Y-73810426D01*
X177019827Y-73743413D01*
X177293677Y-73738010D01*
X177513637Y-73774579D01*
G37*
X177513637Y-73774579D02*
X177724920Y-73871029D01*
X177830311Y-74026185D01*
X177836715Y-74246513D01*
X177832056Y-74278363D01*
X177827740Y-74429187D01*
X177862750Y-74485500D01*
X177900098Y-74509319D01*
X177927000Y-74612500D01*
X177906129Y-74694598D01*
X177800000Y-74739500D01*
X177715505Y-74782764D01*
X177667572Y-74904348D01*
X177666556Y-75061867D01*
X177712153Y-75212436D01*
X177804060Y-75313172D01*
X177896805Y-75350684D01*
X178001394Y-75336839D01*
X178069469Y-75229505D01*
X178106385Y-75018063D01*
X178117500Y-74691895D01*
X178117500Y-74151841D01*
X178432894Y-74182147D01*
X178537138Y-74195865D01*
X178727747Y-74240261D01*
X178847246Y-74294581D01*
X178880299Y-74323631D01*
X178912886Y-74392370D01*
X178849352Y-74483729D01*
X178816037Y-74536442D01*
X178768810Y-74707328D01*
X178753881Y-74915777D01*
X178772818Y-75108769D01*
X178827190Y-75233289D01*
X178843557Y-75248583D01*
X178940686Y-75282181D01*
X179011666Y-75194647D01*
X179055201Y-74988992D01*
X179070000Y-74668224D01*
X179070000Y-74168000D01*
X179252563Y-74168000D01*
X179431561Y-74174920D01*
X179678086Y-74217764D01*
X179829711Y-74294019D01*
X179875976Y-74397032D01*
X179806418Y-74520153D01*
X179777738Y-74556617D01*
X179722613Y-74724238D01*
X179705000Y-74998035D01*
X179695157Y-75226191D01*
X179656152Y-75388714D01*
X179578000Y-75501500D01*
X179561562Y-75516890D01*
X179369333Y-75610572D01*
X179137989Y-75615996D01*
X178916685Y-75530971D01*
X178839679Y-75483659D01*
X178769764Y-75468827D01*
X178730412Y-75530971D01*
X178655763Y-75596817D01*
X178497775Y-75626203D01*
X178302288Y-75608186D01*
X178111994Y-75542003D01*
X178055211Y-75514260D01*
X177938044Y-75489338D01*
X177829982Y-75542395D01*
X177820010Y-75549125D01*
X177660973Y-75602222D01*
X177432183Y-75626741D01*
X177182112Y-75623119D01*
X176959231Y-75591796D01*
X176812012Y-75533207D01*
X176732712Y-75462155D01*
X176739106Y-75403567D01*
X176838087Y-75311421D01*
X176930047Y-75202250D01*
X176996837Y-74978089D01*
X176996975Y-74886819D01*
X176961783Y-74787974D01*
X176859603Y-74750464D01*
X176859496Y-74750449D01*
X176748808Y-74692432D01*
X176724883Y-74591384D01*
X176780932Y-74490128D01*
X176910169Y-74431487D01*
X176977196Y-74417214D01*
X177139555Y-74350392D01*
X177279371Y-74256966D01*
X177364714Y-74161174D01*
X177363653Y-74087252D01*
X177282952Y-74063036D01*
X177132756Y-74130734D01*
X177057365Y-74173256D01*
X176876861Y-74219671D01*
X176737299Y-74180694D01*
X176668985Y-74060888D01*
X176690155Y-73928725D01*
X176811993Y-73810426D01*
X177019827Y-73743413D01*
X177293677Y-73738010D01*
X177513637Y-73774579D01*
G36*
X171810010Y-75105207D02*
G01*
X171709125Y-75324335D01*
X171493573Y-75504660D01*
X171385948Y-75558948D01*
X171110397Y-75620759D01*
X170824489Y-75599827D01*
X170555185Y-75507633D01*
X170329445Y-75355658D01*
X170174230Y-75155381D01*
X170142639Y-75025636D01*
X170815000Y-75025636D01*
X170818832Y-75114446D01*
X170857296Y-75250376D01*
X170931121Y-75270850D01*
X171032906Y-75170933D01*
X171094068Y-75036999D01*
X171128929Y-74856024D01*
X171130926Y-74676979D01*
X171099897Y-74540070D01*
X171035679Y-74485500D01*
X170990742Y-74497665D01*
X170901596Y-74602367D01*
X170838772Y-74788746D01*
X170815000Y-75025636D01*
X170142639Y-75025636D01*
X170116500Y-74918283D01*
X170137901Y-74735841D01*
X170254988Y-74484027D01*
X170455284Y-74298355D01*
X170717337Y-74190455D01*
X171019698Y-74171956D01*
X171340915Y-74254485D01*
X171534595Y-74361617D01*
X171722368Y-74569602D01*
X171756310Y-74676979D01*
X171811765Y-74852417D01*
X171810010Y-75105207D01*
G37*
X171810010Y-75105207D02*
X171709125Y-75324335D01*
X171493573Y-75504660D01*
X171385948Y-75558948D01*
X171110397Y-75620759D01*
X170824489Y-75599827D01*
X170555185Y-75507633D01*
X170329445Y-75355658D01*
X170174230Y-75155381D01*
X170142639Y-75025636D01*
X170815000Y-75025636D01*
X170818832Y-75114446D01*
X170857296Y-75250376D01*
X170931121Y-75270850D01*
X171032906Y-75170933D01*
X171094068Y-75036999D01*
X171128929Y-74856024D01*
X171130926Y-74676979D01*
X171099897Y-74540070D01*
X171035679Y-74485500D01*
X170990742Y-74497665D01*
X170901596Y-74602367D01*
X170838772Y-74788746D01*
X170815000Y-75025636D01*
X170142639Y-75025636D01*
X170116500Y-74918283D01*
X170137901Y-74735841D01*
X170254988Y-74484027D01*
X170455284Y-74298355D01*
X170717337Y-74190455D01*
X171019698Y-74171956D01*
X171340915Y-74254485D01*
X171534595Y-74361617D01*
X171722368Y-74569602D01*
X171756310Y-74676979D01*
X171811765Y-74852417D01*
X171810010Y-75105207D01*
G36*
X181187671Y-68337233D02*
G01*
X181430614Y-68360075D01*
X181601865Y-68396179D01*
X181731475Y-68461240D01*
X181872101Y-68593647D01*
X181927500Y-68736944D01*
X181896226Y-68784889D01*
X181795011Y-68898241D01*
X181648069Y-69046814D01*
X181632112Y-69062360D01*
X181486300Y-69215476D01*
X181401191Y-69348506D01*
X181354114Y-69510409D01*
X181322401Y-69750142D01*
X181307371Y-69969752D01*
X181298635Y-70286561D01*
X181297967Y-70646474D01*
X181305933Y-71006304D01*
X181335702Y-71830713D01*
X181568101Y-72043619D01*
X181647071Y-72119443D01*
X181757255Y-72241385D01*
X181800500Y-72314699D01*
X181770975Y-72402040D01*
X181667802Y-72538699D01*
X181530725Y-72661490D01*
X181402360Y-72726351D01*
X181338939Y-72735714D01*
X181128759Y-72750313D01*
X180867090Y-72755187D01*
X180598489Y-72750743D01*
X180367515Y-72737390D01*
X180218725Y-72715533D01*
X180078014Y-72639464D01*
X179942372Y-72507543D01*
X179906671Y-72456937D01*
X179855558Y-72331129D01*
X179888955Y-72211730D01*
X179953321Y-72127835D01*
X180082010Y-72042016D01*
X180190054Y-71956575D01*
X180278074Y-71765203D01*
X180325932Y-71495560D01*
X180326854Y-71171724D01*
X180304197Y-70977641D01*
X180243850Y-70788103D01*
X180147791Y-70712463D01*
X180011652Y-70744805D01*
X179975929Y-70769472D01*
X179848157Y-70870712D01*
X179648745Y-71035853D01*
X179392625Y-71252338D01*
X179094726Y-71507608D01*
X178769981Y-71789106D01*
X178723878Y-71829271D01*
X178367627Y-72137573D01*
X178091170Y-72371370D01*
X177881519Y-72540184D01*
X177725684Y-72653540D01*
X177610678Y-72720963D01*
X177523510Y-72751977D01*
X177451192Y-72756106D01*
X177376926Y-72745653D01*
X177286372Y-72711811D01*
X177215180Y-72644066D01*
X177160577Y-72529118D01*
X177119788Y-72353669D01*
X177090041Y-72104418D01*
X177068562Y-71768066D01*
X177052579Y-71331314D01*
X177039318Y-70780861D01*
X177006250Y-69203472D01*
X176847500Y-69082258D01*
X176681078Y-68952163D01*
X176581435Y-68860371D01*
X176538931Y-68790199D01*
X176530000Y-68714338D01*
X176564225Y-68606872D01*
X176663497Y-68478716D01*
X176685624Y-68460068D01*
X176779658Y-68407874D01*
X176918764Y-68373689D01*
X177130238Y-68352640D01*
X177441372Y-68339856D01*
X177547277Y-68337427D01*
X177895284Y-68341672D01*
X178139477Y-68372773D01*
X178297227Y-68436909D01*
X178385906Y-68540258D01*
X178422882Y-68688999D01*
X178426369Y-68785704D01*
X178383016Y-68899395D01*
X178249177Y-68990331D01*
X178111941Y-69087574D01*
X178031390Y-69223708D01*
X177998116Y-69427009D01*
X178002624Y-69725799D01*
X178016615Y-69882944D01*
X178055097Y-70033516D01*
X178119496Y-70089513D01*
X178127302Y-70089085D01*
X178220067Y-70040336D01*
X178389229Y-69922562D01*
X178618689Y-69747938D01*
X178892348Y-69528638D01*
X179194108Y-69276837D01*
X179245852Y-69232884D01*
X179546528Y-68979430D01*
X179817200Y-68754431D01*
X180041281Y-68571456D01*
X180202181Y-68444074D01*
X180283313Y-68385853D01*
X180285633Y-68384648D01*
X180422016Y-68351361D01*
X180644039Y-68332568D01*
X180912368Y-68327962D01*
X181187671Y-68337233D01*
G37*
X181187671Y-68337233D02*
X181430614Y-68360075D01*
X181601865Y-68396179D01*
X181731475Y-68461240D01*
X181872101Y-68593647D01*
X181927500Y-68736944D01*
X181896226Y-68784889D01*
X181795011Y-68898241D01*
X181648069Y-69046814D01*
X181632112Y-69062360D01*
X181486300Y-69215476D01*
X181401191Y-69348506D01*
X181354114Y-69510409D01*
X181322401Y-69750142D01*
X181307371Y-69969752D01*
X181298635Y-70286561D01*
X181297967Y-70646474D01*
X181305933Y-71006304D01*
X181335702Y-71830713D01*
X181568101Y-72043619D01*
X181647071Y-72119443D01*
X181757255Y-72241385D01*
X181800500Y-72314699D01*
X181770975Y-72402040D01*
X181667802Y-72538699D01*
X181530725Y-72661490D01*
X181402360Y-72726351D01*
X181338939Y-72735714D01*
X181128759Y-72750313D01*
X180867090Y-72755187D01*
X180598489Y-72750743D01*
X180367515Y-72737390D01*
X180218725Y-72715533D01*
X180078014Y-72639464D01*
X179942372Y-72507543D01*
X179906671Y-72456937D01*
X179855558Y-72331129D01*
X179888955Y-72211730D01*
X179953321Y-72127835D01*
X180082010Y-72042016D01*
X180190054Y-71956575D01*
X180278074Y-71765203D01*
X180325932Y-71495560D01*
X180326854Y-71171724D01*
X180304197Y-70977641D01*
X180243850Y-70788103D01*
X180147791Y-70712463D01*
X180011652Y-70744805D01*
X179975929Y-70769472D01*
X179848157Y-70870712D01*
X179648745Y-71035853D01*
X179392625Y-71252338D01*
X179094726Y-71507608D01*
X178769981Y-71789106D01*
X178723878Y-71829271D01*
X178367627Y-72137573D01*
X178091170Y-72371370D01*
X177881519Y-72540184D01*
X177725684Y-72653540D01*
X177610678Y-72720963D01*
X177523510Y-72751977D01*
X177451192Y-72756106D01*
X177376926Y-72745653D01*
X177286372Y-72711811D01*
X177215180Y-72644066D01*
X177160577Y-72529118D01*
X177119788Y-72353669D01*
X177090041Y-72104418D01*
X177068562Y-71768066D01*
X177052579Y-71331314D01*
X177039318Y-70780861D01*
X177006250Y-69203472D01*
X176847500Y-69082258D01*
X176681078Y-68952163D01*
X176581435Y-68860371D01*
X176538931Y-68790199D01*
X176530000Y-68714338D01*
X176564225Y-68606872D01*
X176663497Y-68478716D01*
X176685624Y-68460068D01*
X176779658Y-68407874D01*
X176918764Y-68373689D01*
X177130238Y-68352640D01*
X177441372Y-68339856D01*
X177547277Y-68337427D01*
X177895284Y-68341672D01*
X178139477Y-68372773D01*
X178297227Y-68436909D01*
X178385906Y-68540258D01*
X178422882Y-68688999D01*
X178426369Y-68785704D01*
X178383016Y-68899395D01*
X178249177Y-68990331D01*
X178111941Y-69087574D01*
X178031390Y-69223708D01*
X177998116Y-69427009D01*
X178002624Y-69725799D01*
X178016615Y-69882944D01*
X178055097Y-70033516D01*
X178119496Y-70089513D01*
X178127302Y-70089085D01*
X178220067Y-70040336D01*
X178389229Y-69922562D01*
X178618689Y-69747938D01*
X178892348Y-69528638D01*
X179194108Y-69276837D01*
X179245852Y-69232884D01*
X179546528Y-68979430D01*
X179817200Y-68754431D01*
X180041281Y-68571456D01*
X180202181Y-68444074D01*
X180283313Y-68385853D01*
X180285633Y-68384648D01*
X180422016Y-68351361D01*
X180644039Y-68332568D01*
X180912368Y-68327962D01*
X181187671Y-68337233D01*
G36*
X166994947Y-74171137D02*
G01*
X167159638Y-74206739D01*
X167229118Y-74295427D01*
X167223043Y-74453845D01*
X167212641Y-74606769D01*
X167262931Y-74710179D01*
X167328612Y-74719234D01*
X167416916Y-74653251D01*
X167475190Y-74533419D01*
X167474753Y-74401528D01*
X167466210Y-74325394D01*
X167522080Y-74224544D01*
X167600850Y-74194767D01*
X167793454Y-74171437D01*
X168022134Y-74175625D01*
X168233456Y-74205226D01*
X168373989Y-74258132D01*
X168378452Y-74261397D01*
X168455366Y-74328351D01*
X168450484Y-74390406D01*
X168361190Y-74496257D01*
X168339385Y-74521952D01*
X168236319Y-74673099D01*
X168113335Y-74884534D01*
X167987672Y-75122532D01*
X167876569Y-75353370D01*
X167797266Y-75543322D01*
X167767000Y-75658664D01*
X167767172Y-75668862D01*
X167799893Y-75748291D01*
X167877584Y-75722648D01*
X167983411Y-75596750D01*
X167993942Y-75580901D01*
X168100448Y-75462516D01*
X168204433Y-75458665D01*
X168339956Y-75566455D01*
X168370564Y-75598536D01*
X168431565Y-75707622D01*
X168399305Y-75824037D01*
X168333780Y-75909042D01*
X168191474Y-76009766D01*
X167970539Y-76051308D01*
X167726160Y-75984192D01*
X167495223Y-75801865D01*
X167285346Y-75510586D01*
X167104147Y-75116614D01*
X167018488Y-74909107D01*
X166879888Y-74649872D01*
X166745554Y-74481535D01*
X166662646Y-74393815D01*
X166620435Y-74274099D01*
X166696002Y-74195959D01*
X166885507Y-74168000D01*
X166994947Y-74171137D01*
G37*
X166994947Y-74171137D02*
X167159638Y-74206739D01*
X167229118Y-74295427D01*
X167223043Y-74453845D01*
X167212641Y-74606769D01*
X167262931Y-74710179D01*
X167328612Y-74719234D01*
X167416916Y-74653251D01*
X167475190Y-74533419D01*
X167474753Y-74401528D01*
X167466210Y-74325394D01*
X167522080Y-74224544D01*
X167600850Y-74194767D01*
X167793454Y-74171437D01*
X168022134Y-74175625D01*
X168233456Y-74205226D01*
X168373989Y-74258132D01*
X168378452Y-74261397D01*
X168455366Y-74328351D01*
X168450484Y-74390406D01*
X168361190Y-74496257D01*
X168339385Y-74521952D01*
X168236319Y-74673099D01*
X168113335Y-74884534D01*
X167987672Y-75122532D01*
X167876569Y-75353370D01*
X167797266Y-75543322D01*
X167767000Y-75658664D01*
X167767172Y-75668862D01*
X167799893Y-75748291D01*
X167877584Y-75722648D01*
X167983411Y-75596750D01*
X167993942Y-75580901D01*
X168100448Y-75462516D01*
X168204433Y-75458665D01*
X168339956Y-75566455D01*
X168370564Y-75598536D01*
X168431565Y-75707622D01*
X168399305Y-75824037D01*
X168333780Y-75909042D01*
X168191474Y-76009766D01*
X167970539Y-76051308D01*
X167726160Y-75984192D01*
X167495223Y-75801865D01*
X167285346Y-75510586D01*
X167104147Y-75116614D01*
X167018488Y-74909107D01*
X166879888Y-74649872D01*
X166745554Y-74481535D01*
X166662646Y-74393815D01*
X166620435Y-74274099D01*
X166696002Y-74195959D01*
X166885507Y-74168000D01*
X166994947Y-74171137D01*
G36*
X176053750Y-72108555D02*
G01*
X176104186Y-72148859D01*
X176244489Y-72306725D01*
X176261410Y-72444599D01*
X176153772Y-72567518D01*
X175920403Y-72680519D01*
X175777409Y-72715979D01*
X175512190Y-72745918D01*
X175191908Y-72757879D01*
X174852817Y-72752636D01*
X174531174Y-72730960D01*
X174263233Y-72693626D01*
X174085250Y-72641404D01*
X173946076Y-72541401D01*
X173868279Y-72389984D01*
X173899436Y-72236495D01*
X174041938Y-72110229D01*
X174046368Y-72107929D01*
X174181782Y-72019367D01*
X174261033Y-71906395D01*
X174298236Y-71735068D01*
X174307500Y-71471442D01*
X174307500Y-71134771D01*
X173688375Y-71109178D01*
X173546446Y-71102618D01*
X173278417Y-71081778D01*
X173079638Y-71046457D01*
X172909363Y-70987633D01*
X172726845Y-70896285D01*
X172528169Y-70767636D01*
X172252370Y-70490382D01*
X172075769Y-70168947D01*
X171996309Y-69823151D01*
X172000398Y-69731425D01*
X173482000Y-69731425D01*
X173495284Y-69945421D01*
X173549946Y-70094873D01*
X173667616Y-70235884D01*
X173828695Y-70358523D01*
X174038982Y-70419350D01*
X174230553Y-70367654D01*
X174258155Y-70333632D01*
X174286501Y-70216209D01*
X174297950Y-70005891D01*
X174294053Y-69686002D01*
X174275750Y-69056250D01*
X174024929Y-69064618D01*
X173858560Y-69089125D01*
X173650596Y-69208086D01*
X173524458Y-69422945D01*
X173482000Y-69731425D01*
X172000398Y-69731425D01*
X172011927Y-69472811D01*
X172120566Y-69137744D01*
X172320164Y-68837769D01*
X172608662Y-68592704D01*
X172983999Y-68422366D01*
X173046902Y-68404578D01*
X173187089Y-68374754D01*
X173353917Y-68354770D01*
X173567430Y-68343871D01*
X173847670Y-68341300D01*
X174214679Y-68346303D01*
X174688500Y-68358125D01*
X174941750Y-68365313D01*
X175382363Y-68378963D01*
X175718199Y-68392487D01*
X175964248Y-68407889D01*
X176135497Y-68427173D01*
X176246935Y-68452342D01*
X176313550Y-68485400D01*
X176350330Y-68528349D01*
X176372264Y-68583194D01*
X176376972Y-68716607D01*
X176272033Y-68863477D01*
X176042930Y-68993178D01*
X175831500Y-69081519D01*
X175831500Y-71939036D01*
X176053750Y-72108555D01*
G37*
X176053750Y-72108555D02*
X176104186Y-72148859D01*
X176244489Y-72306725D01*
X176261410Y-72444599D01*
X176153772Y-72567518D01*
X175920403Y-72680519D01*
X175777409Y-72715979D01*
X175512190Y-72745918D01*
X175191908Y-72757879D01*
X174852817Y-72752636D01*
X174531174Y-72730960D01*
X174263233Y-72693626D01*
X174085250Y-72641404D01*
X173946076Y-72541401D01*
X173868279Y-72389984D01*
X173899436Y-72236495D01*
X174041938Y-72110229D01*
X174046368Y-72107929D01*
X174181782Y-72019367D01*
X174261033Y-71906395D01*
X174298236Y-71735068D01*
X174307500Y-71471442D01*
X174307500Y-71134771D01*
X173688375Y-71109178D01*
X173546446Y-71102618D01*
X173278417Y-71081778D01*
X173079638Y-71046457D01*
X172909363Y-70987633D01*
X172726845Y-70896285D01*
X172528169Y-70767636D01*
X172252370Y-70490382D01*
X172075769Y-70168947D01*
X171996309Y-69823151D01*
X172000398Y-69731425D01*
X173482000Y-69731425D01*
X173495284Y-69945421D01*
X173549946Y-70094873D01*
X173667616Y-70235884D01*
X173828695Y-70358523D01*
X174038982Y-70419350D01*
X174230553Y-70367654D01*
X174258155Y-70333632D01*
X174286501Y-70216209D01*
X174297950Y-70005891D01*
X174294053Y-69686002D01*
X174275750Y-69056250D01*
X174024929Y-69064618D01*
X173858560Y-69089125D01*
X173650596Y-69208086D01*
X173524458Y-69422945D01*
X173482000Y-69731425D01*
X172000398Y-69731425D01*
X172011927Y-69472811D01*
X172120566Y-69137744D01*
X172320164Y-68837769D01*
X172608662Y-68592704D01*
X172983999Y-68422366D01*
X173046902Y-68404578D01*
X173187089Y-68374754D01*
X173353917Y-68354770D01*
X173567430Y-68343871D01*
X173847670Y-68341300D01*
X174214679Y-68346303D01*
X174688500Y-68358125D01*
X174941750Y-68365313D01*
X175382363Y-68378963D01*
X175718199Y-68392487D01*
X175964248Y-68407889D01*
X176135497Y-68427173D01*
X176246935Y-68452342D01*
X176313550Y-68485400D01*
X176350330Y-68528349D01*
X176372264Y-68583194D01*
X176376972Y-68716607D01*
X176272033Y-68863477D01*
X176042930Y-68993178D01*
X175831500Y-69081519D01*
X175831500Y-71939036D01*
X176053750Y-72108555D01*
G36*
X186150250Y-72108555D02*
G01*
X186200686Y-72148859D01*
X186340989Y-72306725D01*
X186357910Y-72444599D01*
X186250272Y-72567518D01*
X186016903Y-72680519D01*
X185873909Y-72715979D01*
X185608690Y-72745918D01*
X185288408Y-72757879D01*
X184949317Y-72752636D01*
X184627674Y-72730960D01*
X184359733Y-72693626D01*
X184181750Y-72641404D01*
X184042576Y-72541401D01*
X183964779Y-72389984D01*
X183995936Y-72236495D01*
X184138438Y-72110229D01*
X184142868Y-72107929D01*
X184278282Y-72019367D01*
X184357533Y-71906395D01*
X184394736Y-71735068D01*
X184404000Y-71471442D01*
X184404000Y-71134771D01*
X183784875Y-71109178D01*
X183642946Y-71102618D01*
X183374917Y-71081778D01*
X183176138Y-71046457D01*
X183005863Y-70987633D01*
X182823345Y-70896285D01*
X182624669Y-70767636D01*
X182348870Y-70490382D01*
X182172269Y-70168947D01*
X182092809Y-69823151D01*
X182096898Y-69731425D01*
X183578500Y-69731425D01*
X183591784Y-69945421D01*
X183646446Y-70094873D01*
X183764116Y-70235884D01*
X183925195Y-70358523D01*
X184135482Y-70419350D01*
X184327053Y-70367654D01*
X184354655Y-70333632D01*
X184383001Y-70216209D01*
X184394450Y-70005891D01*
X184390553Y-69686002D01*
X184372250Y-69056250D01*
X184121429Y-69064618D01*
X183955060Y-69089125D01*
X183747096Y-69208086D01*
X183620958Y-69422945D01*
X183578500Y-69731425D01*
X182096898Y-69731425D01*
X182108427Y-69472811D01*
X182217066Y-69137744D01*
X182416664Y-68837769D01*
X182705162Y-68592704D01*
X183080499Y-68422366D01*
X183143402Y-68404578D01*
X183283589Y-68374754D01*
X183450417Y-68354770D01*
X183663930Y-68343871D01*
X183944170Y-68341300D01*
X184311179Y-68346303D01*
X184785000Y-68358125D01*
X185038250Y-68365313D01*
X185478863Y-68378963D01*
X185814699Y-68392487D01*
X186060748Y-68407889D01*
X186231997Y-68427173D01*
X186343435Y-68452342D01*
X186410050Y-68485400D01*
X186446830Y-68528349D01*
X186468764Y-68583194D01*
X186473472Y-68716607D01*
X186368533Y-68863477D01*
X186139430Y-68993178D01*
X185928000Y-69081519D01*
X185928000Y-71939036D01*
X186150250Y-72108555D01*
G37*
X186150250Y-72108555D02*
X186200686Y-72148859D01*
X186340989Y-72306725D01*
X186357910Y-72444599D01*
X186250272Y-72567518D01*
X186016903Y-72680519D01*
X185873909Y-72715979D01*
X185608690Y-72745918D01*
X185288408Y-72757879D01*
X184949317Y-72752636D01*
X184627674Y-72730960D01*
X184359733Y-72693626D01*
X184181750Y-72641404D01*
X184042576Y-72541401D01*
X183964779Y-72389984D01*
X183995936Y-72236495D01*
X184138438Y-72110229D01*
X184142868Y-72107929D01*
X184278282Y-72019367D01*
X184357533Y-71906395D01*
X184394736Y-71735068D01*
X184404000Y-71471442D01*
X184404000Y-71134771D01*
X183784875Y-71109178D01*
X183642946Y-71102618D01*
X183374917Y-71081778D01*
X183176138Y-71046457D01*
X183005863Y-70987633D01*
X182823345Y-70896285D01*
X182624669Y-70767636D01*
X182348870Y-70490382D01*
X182172269Y-70168947D01*
X182092809Y-69823151D01*
X182096898Y-69731425D01*
X183578500Y-69731425D01*
X183591784Y-69945421D01*
X183646446Y-70094873D01*
X183764116Y-70235884D01*
X183925195Y-70358523D01*
X184135482Y-70419350D01*
X184327053Y-70367654D01*
X184354655Y-70333632D01*
X184383001Y-70216209D01*
X184394450Y-70005891D01*
X184390553Y-69686002D01*
X184372250Y-69056250D01*
X184121429Y-69064618D01*
X183955060Y-69089125D01*
X183747096Y-69208086D01*
X183620958Y-69422945D01*
X183578500Y-69731425D01*
X182096898Y-69731425D01*
X182108427Y-69472811D01*
X182217066Y-69137744D01*
X182416664Y-68837769D01*
X182705162Y-68592704D01*
X183080499Y-68422366D01*
X183143402Y-68404578D01*
X183283589Y-68374754D01*
X183450417Y-68354770D01*
X183663930Y-68343871D01*
X183944170Y-68341300D01*
X184311179Y-68346303D01*
X184785000Y-68358125D01*
X185038250Y-68365313D01*
X185478863Y-68378963D01*
X185814699Y-68392487D01*
X186060748Y-68407889D01*
X186231997Y-68427173D01*
X186343435Y-68452342D01*
X186410050Y-68485400D01*
X186446830Y-68528349D01*
X186468764Y-68583194D01*
X186473472Y-68716607D01*
X186368533Y-68863477D01*
X186139430Y-68993178D01*
X185928000Y-69081519D01*
X185928000Y-71939036D01*
X186150250Y-72108555D01*
G36*
X172673268Y-73910095D02*
G01*
X172948202Y-74055835D01*
X173046946Y-74119340D01*
X173211630Y-74256411D01*
X173291291Y-74373405D01*
X173278168Y-74454907D01*
X173164500Y-74485500D01*
X173098288Y-74496985D01*
X173058818Y-74551427D01*
X173041405Y-74676819D01*
X173037500Y-74901136D01*
X173035149Y-75060554D01*
X173016299Y-75243283D01*
X172968921Y-75366736D01*
X172881637Y-75472636D01*
X172850017Y-75501842D01*
X172629602Y-75612014D01*
X172371044Y-75611436D01*
X172096217Y-75499363D01*
X171988333Y-75420853D01*
X171918783Y-75316293D01*
X171963964Y-75243232D01*
X172122569Y-75215750D01*
X172125920Y-75215748D01*
X172229193Y-75208468D01*
X172285449Y-75166357D01*
X172312002Y-75058722D01*
X172326168Y-74854875D01*
X172345085Y-74494000D01*
X172135668Y-74473875D01*
X172076961Y-74466534D01*
X171958875Y-74421300D01*
X171926250Y-74326750D01*
X171928604Y-74293611D01*
X171983152Y-74214705D01*
X172132625Y-74179851D01*
X172223811Y-74166787D01*
X172316335Y-74116221D01*
X172339000Y-74005226D01*
X172373308Y-73887474D01*
X172483179Y-73854103D01*
X172673268Y-73910095D01*
G37*
X172673268Y-73910095D02*
X172948202Y-74055835D01*
X173046946Y-74119340D01*
X173211630Y-74256411D01*
X173291291Y-74373405D01*
X173278168Y-74454907D01*
X173164500Y-74485500D01*
X173098288Y-74496985D01*
X173058818Y-74551427D01*
X173041405Y-74676819D01*
X173037500Y-74901136D01*
X173035149Y-75060554D01*
X173016299Y-75243283D01*
X172968921Y-75366736D01*
X172881637Y-75472636D01*
X172850017Y-75501842D01*
X172629602Y-75612014D01*
X172371044Y-75611436D01*
X172096217Y-75499363D01*
X171988333Y-75420853D01*
X171918783Y-75316293D01*
X171963964Y-75243232D01*
X172122569Y-75215750D01*
X172125920Y-75215748D01*
X172229193Y-75208468D01*
X172285449Y-75166357D01*
X172312002Y-75058722D01*
X172326168Y-74854875D01*
X172345085Y-74494000D01*
X172135668Y-74473875D01*
X172076961Y-74466534D01*
X171958875Y-74421300D01*
X171926250Y-74326750D01*
X171928604Y-74293611D01*
X171983152Y-74214705D01*
X172132625Y-74179851D01*
X172223811Y-74166787D01*
X172316335Y-74116221D01*
X172339000Y-74005226D01*
X172373308Y-73887474D01*
X172483179Y-73854103D01*
X172673268Y-73910095D01*
G36*
X171154671Y-68337233D02*
G01*
X171397614Y-68360075D01*
X171568865Y-68396179D01*
X171698475Y-68461240D01*
X171839101Y-68593647D01*
X171894500Y-68736944D01*
X171863226Y-68784889D01*
X171762011Y-68898241D01*
X171615069Y-69046814D01*
X171599112Y-69062360D01*
X171453300Y-69215476D01*
X171368191Y-69348506D01*
X171321114Y-69510409D01*
X171289401Y-69750142D01*
X171274371Y-69969752D01*
X171265635Y-70286561D01*
X171264967Y-70646474D01*
X171272933Y-71006304D01*
X171302702Y-71830713D01*
X171535101Y-72043619D01*
X171614071Y-72119443D01*
X171724255Y-72241385D01*
X171767500Y-72314699D01*
X171737975Y-72402040D01*
X171634802Y-72538699D01*
X171497725Y-72661490D01*
X171369360Y-72726351D01*
X171305939Y-72735714D01*
X171095759Y-72750313D01*
X170834090Y-72755187D01*
X170565489Y-72750743D01*
X170334515Y-72737390D01*
X170185725Y-72715533D01*
X170045014Y-72639464D01*
X169909372Y-72507543D01*
X169873671Y-72456937D01*
X169822558Y-72331129D01*
X169855955Y-72211730D01*
X169920321Y-72127835D01*
X170049010Y-72042016D01*
X170157054Y-71956575D01*
X170245074Y-71765203D01*
X170292932Y-71495560D01*
X170293854Y-71171724D01*
X170271197Y-70977641D01*
X170210850Y-70788103D01*
X170114791Y-70712463D01*
X169978652Y-70744805D01*
X169942929Y-70769472D01*
X169815157Y-70870712D01*
X169615745Y-71035853D01*
X169359625Y-71252338D01*
X169061726Y-71507608D01*
X168736981Y-71789106D01*
X168690878Y-71829271D01*
X168334627Y-72137573D01*
X168058170Y-72371370D01*
X167848519Y-72540184D01*
X167692684Y-72653540D01*
X167577678Y-72720963D01*
X167490510Y-72751977D01*
X167418192Y-72756106D01*
X167343926Y-72745653D01*
X167253372Y-72711811D01*
X167182180Y-72644066D01*
X167127577Y-72529118D01*
X167086788Y-72353669D01*
X167057041Y-72104418D01*
X167035562Y-71768066D01*
X167019579Y-71331314D01*
X167006318Y-70780861D01*
X166973250Y-69203472D01*
X166814500Y-69082258D01*
X166648078Y-68952163D01*
X166548435Y-68860371D01*
X166505931Y-68790199D01*
X166497000Y-68714338D01*
X166531225Y-68606872D01*
X166630497Y-68478716D01*
X166652624Y-68460068D01*
X166746658Y-68407874D01*
X166885764Y-68373689D01*
X167097238Y-68352640D01*
X167408372Y-68339856D01*
X167514277Y-68337427D01*
X167862284Y-68341672D01*
X168106477Y-68372773D01*
X168264227Y-68436909D01*
X168352906Y-68540258D01*
X168389882Y-68688999D01*
X168393369Y-68785704D01*
X168350016Y-68899395D01*
X168216177Y-68990331D01*
X168078941Y-69087574D01*
X167998390Y-69223708D01*
X167965116Y-69427009D01*
X167969624Y-69725799D01*
X167983615Y-69882944D01*
X168022097Y-70033516D01*
X168086496Y-70089513D01*
X168094302Y-70089085D01*
X168187067Y-70040336D01*
X168356229Y-69922562D01*
X168585689Y-69747938D01*
X168859348Y-69528638D01*
X169161108Y-69276837D01*
X169212852Y-69232884D01*
X169513528Y-68979430D01*
X169784200Y-68754431D01*
X170008281Y-68571456D01*
X170169181Y-68444074D01*
X170250313Y-68385853D01*
X170252633Y-68384648D01*
X170389016Y-68351361D01*
X170611039Y-68332568D01*
X170879368Y-68327962D01*
X171154671Y-68337233D01*
G37*
X171154671Y-68337233D02*
X171397614Y-68360075D01*
X171568865Y-68396179D01*
X171698475Y-68461240D01*
X171839101Y-68593647D01*
X171894500Y-68736944D01*
X171863226Y-68784889D01*
X171762011Y-68898241D01*
X171615069Y-69046814D01*
X171599112Y-69062360D01*
X171453300Y-69215476D01*
X171368191Y-69348506D01*
X171321114Y-69510409D01*
X171289401Y-69750142D01*
X171274371Y-69969752D01*
X171265635Y-70286561D01*
X171264967Y-70646474D01*
X171272933Y-71006304D01*
X171302702Y-71830713D01*
X171535101Y-72043619D01*
X171614071Y-72119443D01*
X171724255Y-72241385D01*
X171767500Y-72314699D01*
X171737975Y-72402040D01*
X171634802Y-72538699D01*
X171497725Y-72661490D01*
X171369360Y-72726351D01*
X171305939Y-72735714D01*
X171095759Y-72750313D01*
X170834090Y-72755187D01*
X170565489Y-72750743D01*
X170334515Y-72737390D01*
X170185725Y-72715533D01*
X170045014Y-72639464D01*
X169909372Y-72507543D01*
X169873671Y-72456937D01*
X169822558Y-72331129D01*
X169855955Y-72211730D01*
X169920321Y-72127835D01*
X170049010Y-72042016D01*
X170157054Y-71956575D01*
X170245074Y-71765203D01*
X170292932Y-71495560D01*
X170293854Y-71171724D01*
X170271197Y-70977641D01*
X170210850Y-70788103D01*
X170114791Y-70712463D01*
X169978652Y-70744805D01*
X169942929Y-70769472D01*
X169815157Y-70870712D01*
X169615745Y-71035853D01*
X169359625Y-71252338D01*
X169061726Y-71507608D01*
X168736981Y-71789106D01*
X168690878Y-71829271D01*
X168334627Y-72137573D01*
X168058170Y-72371370D01*
X167848519Y-72540184D01*
X167692684Y-72653540D01*
X167577678Y-72720963D01*
X167490510Y-72751977D01*
X167418192Y-72756106D01*
X167343926Y-72745653D01*
X167253372Y-72711811D01*
X167182180Y-72644066D01*
X167127577Y-72529118D01*
X167086788Y-72353669D01*
X167057041Y-72104418D01*
X167035562Y-71768066D01*
X167019579Y-71331314D01*
X167006318Y-70780861D01*
X166973250Y-69203472D01*
X166814500Y-69082258D01*
X166648078Y-68952163D01*
X166548435Y-68860371D01*
X166505931Y-68790199D01*
X166497000Y-68714338D01*
X166531225Y-68606872D01*
X166630497Y-68478716D01*
X166652624Y-68460068D01*
X166746658Y-68407874D01*
X166885764Y-68373689D01*
X167097238Y-68352640D01*
X167408372Y-68339856D01*
X167514277Y-68337427D01*
X167862284Y-68341672D01*
X168106477Y-68372773D01*
X168264227Y-68436909D01*
X168352906Y-68540258D01*
X168389882Y-68688999D01*
X168393369Y-68785704D01*
X168350016Y-68899395D01*
X168216177Y-68990331D01*
X168078941Y-69087574D01*
X167998390Y-69223708D01*
X167965116Y-69427009D01*
X167969624Y-69725799D01*
X167983615Y-69882944D01*
X168022097Y-70033516D01*
X168086496Y-70089513D01*
X168094302Y-70089085D01*
X168187067Y-70040336D01*
X168356229Y-69922562D01*
X168585689Y-69747938D01*
X168859348Y-69528638D01*
X169161108Y-69276837D01*
X169212852Y-69232884D01*
X169513528Y-68979430D01*
X169784200Y-68754431D01*
X170008281Y-68571456D01*
X170169181Y-68444074D01*
X170250313Y-68385853D01*
X170252633Y-68384648D01*
X170389016Y-68351361D01*
X170611039Y-68332568D01*
X170879368Y-68327962D01*
X171154671Y-68337233D01*
G36*
X184216749Y-73660003D02*
G01*
X184396416Y-73685726D01*
X184541642Y-73775082D01*
X184673648Y-73948059D01*
X184813658Y-74224642D01*
X184853107Y-74304247D01*
X184935680Y-74428330D01*
X184997502Y-74467582D01*
X184998246Y-74467315D01*
X185062461Y-74403566D01*
X185167094Y-74260636D01*
X185289869Y-74068902D01*
X185359377Y-73954730D01*
X185462783Y-73803018D01*
X185554013Y-73722244D01*
X185667978Y-73687257D01*
X185839591Y-73672911D01*
X185847983Y-73672441D01*
X186093383Y-73683181D01*
X186244332Y-73741171D01*
X186290740Y-73838640D01*
X186222514Y-73967816D01*
X186185126Y-74034932D01*
X186140278Y-74221325D01*
X186115593Y-74470253D01*
X186111144Y-74744142D01*
X186127001Y-75005419D01*
X186163235Y-75216511D01*
X186219918Y-75339846D01*
X186273832Y-75420234D01*
X186285411Y-75534881D01*
X186278323Y-75547410D01*
X186178758Y-75600839D01*
X186009322Y-75628424D01*
X185816667Y-75626139D01*
X185647444Y-75589956D01*
X185571715Y-75533892D01*
X185556301Y-75432496D01*
X185642250Y-75351536D01*
X185657770Y-75341001D01*
X185703863Y-75244877D01*
X185733244Y-75091508D01*
X185742564Y-74926052D01*
X185728475Y-74793664D01*
X185687630Y-74739500D01*
X185684348Y-74740210D01*
X185629119Y-74804026D01*
X185539856Y-74950963D01*
X185434222Y-75152250D01*
X185422659Y-75175490D01*
X185315420Y-75372613D01*
X185223427Y-75512085D01*
X185165499Y-75565000D01*
X185114284Y-75522357D01*
X185026588Y-75392103D01*
X184926781Y-75204800D01*
X184837459Y-75035219D01*
X184741344Y-74885914D01*
X184673876Y-74818508D01*
X184633259Y-74827989D01*
X184599377Y-74917717D01*
X184597176Y-75061454D01*
X184625826Y-75218038D01*
X184684500Y-75346308D01*
X184734808Y-75442888D01*
X184708475Y-75548944D01*
X184702535Y-75555096D01*
X184588561Y-75599972D01*
X184398896Y-75623450D01*
X184178271Y-75624976D01*
X183971415Y-75603993D01*
X183823058Y-75559946D01*
X183757995Y-75521658D01*
X183731987Y-75465630D01*
X183802207Y-75372890D01*
X183841788Y-75297255D01*
X183885725Y-75111268D01*
X183914217Y-74866164D01*
X183925996Y-74598791D01*
X183919795Y-74345995D01*
X183894344Y-74144623D01*
X183848375Y-74031522D01*
X183782228Y-73921966D01*
X183783429Y-73787459D01*
X183869444Y-73698543D01*
X183884448Y-73693568D01*
X184027190Y-73669707D01*
X184214085Y-73660000D01*
X184216749Y-73660003D01*
G37*
X184216749Y-73660003D02*
X184396416Y-73685726D01*
X184541642Y-73775082D01*
X184673648Y-73948059D01*
X184813658Y-74224642D01*
X184853107Y-74304247D01*
X184935680Y-74428330D01*
X184997502Y-74467582D01*
X184998246Y-74467315D01*
X185062461Y-74403566D01*
X185167094Y-74260636D01*
X185289869Y-74068902D01*
X185359377Y-73954730D01*
X185462783Y-73803018D01*
X185554013Y-73722244D01*
X185667978Y-73687257D01*
X185839591Y-73672911D01*
X185847983Y-73672441D01*
X186093383Y-73683181D01*
X186244332Y-73741171D01*
X186290740Y-73838640D01*
X186222514Y-73967816D01*
X186185126Y-74034932D01*
X186140278Y-74221325D01*
X186115593Y-74470253D01*
X186111144Y-74744142D01*
X186127001Y-75005419D01*
X186163235Y-75216511D01*
X186219918Y-75339846D01*
X186273832Y-75420234D01*
X186285411Y-75534881D01*
X186278323Y-75547410D01*
X186178758Y-75600839D01*
X186009322Y-75628424D01*
X185816667Y-75626139D01*
X185647444Y-75589956D01*
X185571715Y-75533892D01*
X185556301Y-75432496D01*
X185642250Y-75351536D01*
X185657770Y-75341001D01*
X185703863Y-75244877D01*
X185733244Y-75091508D01*
X185742564Y-74926052D01*
X185728475Y-74793664D01*
X185687630Y-74739500D01*
X185684348Y-74740210D01*
X185629119Y-74804026D01*
X185539856Y-74950963D01*
X185434222Y-75152250D01*
X185422659Y-75175490D01*
X185315420Y-75372613D01*
X185223427Y-75512085D01*
X185165499Y-75565000D01*
X185114284Y-75522357D01*
X185026588Y-75392103D01*
X184926781Y-75204800D01*
X184837459Y-75035219D01*
X184741344Y-74885914D01*
X184673876Y-74818508D01*
X184633259Y-74827989D01*
X184599377Y-74917717D01*
X184597176Y-75061454D01*
X184625826Y-75218038D01*
X184684500Y-75346308D01*
X184734808Y-75442888D01*
X184708475Y-75548944D01*
X184702535Y-75555096D01*
X184588561Y-75599972D01*
X184398896Y-75623450D01*
X184178271Y-75624976D01*
X183971415Y-75603993D01*
X183823058Y-75559946D01*
X183757995Y-75521658D01*
X183731987Y-75465630D01*
X183802207Y-75372890D01*
X183841788Y-75297255D01*
X183885725Y-75111268D01*
X183914217Y-74866164D01*
X183925996Y-74598791D01*
X183919795Y-74345995D01*
X183894344Y-74144623D01*
X183848375Y-74031522D01*
X183782228Y-73921966D01*
X183783429Y-73787459D01*
X183869444Y-73698543D01*
X183884448Y-73693568D01*
X184027190Y-73669707D01*
X184214085Y-73660000D01*
X184216749Y-73660003D01*
G36*
X169510990Y-74177419D02*
G01*
X169761538Y-74256770D01*
X169794476Y-74270967D01*
X169976266Y-74378418D01*
X170034447Y-74482755D01*
X169967452Y-74581508D01*
X169959164Y-74588109D01*
X169887291Y-74719473D01*
X169863824Y-74914786D01*
X169889052Y-75124633D01*
X169963262Y-75299598D01*
X169980044Y-75324306D01*
X170028516Y-75441028D01*
X169987237Y-75535977D01*
X169980741Y-75542607D01*
X169866430Y-75589395D01*
X169674847Y-75620109D01*
X169449740Y-75632165D01*
X169234856Y-75622975D01*
X169073944Y-75589956D01*
X168988061Y-75518678D01*
X168993051Y-75411352D01*
X169100500Y-75311000D01*
X169120444Y-75299204D01*
X169203142Y-75192540D01*
X169227500Y-75001849D01*
X169225217Y-74905221D01*
X169197999Y-74751828D01*
X169134750Y-74712117D01*
X169028837Y-74778637D01*
X168977889Y-74814951D01*
X168808053Y-74848756D01*
X168639176Y-74788081D01*
X168517833Y-74645099D01*
X168505518Y-74616423D01*
X168484581Y-74477779D01*
X168553207Y-74329351D01*
X168565137Y-74311953D01*
X168714402Y-74190226D01*
X168891441Y-74188033D01*
X169080533Y-74306068D01*
X169227500Y-74444137D01*
X169227500Y-74306068D01*
X169238645Y-74246700D01*
X169332424Y-74174456D01*
X169510990Y-74177419D01*
G37*
X169510990Y-74177419D02*
X169761538Y-74256770D01*
X169794476Y-74270967D01*
X169976266Y-74378418D01*
X170034447Y-74482755D01*
X169967452Y-74581508D01*
X169959164Y-74588109D01*
X169887291Y-74719473D01*
X169863824Y-74914786D01*
X169889052Y-75124633D01*
X169963262Y-75299598D01*
X169980044Y-75324306D01*
X170028516Y-75441028D01*
X169987237Y-75535977D01*
X169980741Y-75542607D01*
X169866430Y-75589395D01*
X169674847Y-75620109D01*
X169449740Y-75632165D01*
X169234856Y-75622975D01*
X169073944Y-75589956D01*
X168988061Y-75518678D01*
X168993051Y-75411352D01*
X169100500Y-75311000D01*
X169120444Y-75299204D01*
X169203142Y-75192540D01*
X169227500Y-75001849D01*
X169225217Y-74905221D01*
X169197999Y-74751828D01*
X169134750Y-74712117D01*
X169028837Y-74778637D01*
X168977889Y-74814951D01*
X168808053Y-74848756D01*
X168639176Y-74788081D01*
X168517833Y-74645099D01*
X168505518Y-74616423D01*
X168484581Y-74477779D01*
X168553207Y-74329351D01*
X168565137Y-74311953D01*
X168714402Y-74190226D01*
X168891441Y-74188033D01*
X169080533Y-74306068D01*
X169227500Y-74444137D01*
X169227500Y-74306068D01*
X169238645Y-74246700D01*
X169332424Y-74174456D01*
X169510990Y-74177419D01*
G36*
X165403186Y-72162818D02*
G01*
X165369461Y-72377300D01*
X165346887Y-72463906D01*
X165278778Y-72647581D01*
X165185871Y-72838246D01*
X165077091Y-73018548D01*
X164961358Y-73171130D01*
X164860815Y-73286121D01*
X164860809Y-73288732D01*
X164859758Y-73796910D01*
X164859717Y-73821292D01*
X164859799Y-73880785D01*
X164859934Y-73978804D01*
X164860919Y-74120232D01*
X164862556Y-74236898D01*
X164864728Y-74320122D01*
X164867319Y-74361227D01*
X164867865Y-74364059D01*
X164899749Y-74413020D01*
X164963914Y-74456707D01*
X165027652Y-74500107D01*
X165094996Y-74593680D01*
X165138100Y-74688700D01*
X166113883Y-74688700D01*
X166367636Y-74689034D01*
X166582526Y-74690158D01*
X166754235Y-74692196D01*
X166886625Y-74695273D01*
X166983559Y-74699512D01*
X167048899Y-74705038D01*
X167086509Y-74711976D01*
X167100250Y-74720450D01*
X167100424Y-74722576D01*
X167088177Y-74730537D01*
X167052091Y-74737032D01*
X166988316Y-74742186D01*
X166893001Y-74746123D01*
X166762293Y-74748969D01*
X166592343Y-74750847D01*
X166379299Y-74751882D01*
X166119309Y-74752200D01*
X165127784Y-74752200D01*
X165087343Y-74837422D01*
X165028867Y-74918171D01*
X164941596Y-74971920D01*
X164841386Y-74989154D01*
X164739660Y-74970159D01*
X164647840Y-74915221D01*
X164577350Y-74824628D01*
X164539896Y-74752200D01*
X162767337Y-74752200D01*
X160994778Y-74752199D01*
X160994912Y-74834750D01*
X160994953Y-74860150D01*
X160994627Y-74894261D01*
X160987922Y-75024241D01*
X160974180Y-75154948D01*
X160955534Y-75269206D01*
X160934118Y-75349842D01*
X160933213Y-75352232D01*
X160914082Y-75407781D01*
X160907147Y-75438000D01*
X160900166Y-75478584D01*
X160875343Y-75551896D01*
X160838170Y-75643237D01*
X160794284Y-75738795D01*
X160749320Y-75824757D01*
X160719440Y-75875419D01*
X160541749Y-76120993D01*
X160333622Y-76330029D01*
X160100091Y-76501508D01*
X159846188Y-76634408D01*
X159576943Y-76727707D01*
X159297389Y-76780385D01*
X159012558Y-76791421D01*
X158727481Y-76759793D01*
X158447190Y-76684481D01*
X158176716Y-76564463D01*
X157921092Y-76398717D01*
X157759400Y-76274788D01*
X157759400Y-77151794D01*
X157759149Y-77361885D01*
X157758122Y-77564444D01*
X157756154Y-77724124D01*
X157753085Y-77845195D01*
X157748755Y-77931928D01*
X157743005Y-77988592D01*
X157735674Y-78019459D01*
X157726604Y-78028800D01*
X157717978Y-78020350D01*
X157710718Y-77990840D01*
X157705081Y-77936009D01*
X157700925Y-77851612D01*
X157698104Y-77733404D01*
X157696475Y-77577137D01*
X157695894Y-77378568D01*
X157696216Y-77133450D01*
X157696285Y-76951849D01*
X157695354Y-76754689D01*
X157693447Y-76577851D01*
X157690680Y-76427431D01*
X157687169Y-76309524D01*
X157683030Y-76230225D01*
X157679038Y-76200532D01*
X157886745Y-76200532D01*
X157917571Y-76231344D01*
X157984376Y-76283648D01*
X158055694Y-76334763D01*
X158211592Y-76430205D01*
X158377018Y-76514021D01*
X158536308Y-76578648D01*
X158673800Y-76616525D01*
X158715759Y-76625128D01*
X158737300Y-76632029D01*
X158745933Y-76634229D01*
X158791923Y-76640080D01*
X158864300Y-76647113D01*
X158906674Y-76651103D01*
X158984409Y-76659930D01*
X159034280Y-76667634D01*
X159057164Y-76671492D01*
X159085080Y-76670389D01*
X159110142Y-76665164D01*
X159172539Y-76657217D01*
X159258000Y-76648508D01*
X159328966Y-76641617D01*
X159440429Y-76627475D01*
X159531859Y-76608590D01*
X159623609Y-76580245D01*
X159736030Y-76537723D01*
X159979176Y-76419178D01*
X160217677Y-76251342D01*
X160424720Y-76047883D01*
X160596114Y-75813715D01*
X160727667Y-75553750D01*
X160815187Y-75272900D01*
X160816372Y-75267527D01*
X160846028Y-75111598D01*
X160859923Y-74976044D01*
X160860774Y-74834750D01*
X160858200Y-74752200D01*
X159867600Y-74752200D01*
X159867600Y-76195159D01*
X159569150Y-76191229D01*
X159270700Y-76187300D01*
X159268555Y-75958700D01*
X159267319Y-75873946D01*
X159263570Y-75796910D01*
X159255482Y-75754291D01*
X159240922Y-75736677D01*
X159217755Y-75734658D01*
X159204954Y-75737042D01*
X159146157Y-75752962D01*
X159053557Y-75781058D01*
X158936967Y-75818299D01*
X158806201Y-75861658D01*
X158763199Y-75876194D01*
X158635862Y-75920060D01*
X158547931Y-75952832D01*
X158492423Y-75978110D01*
X158462355Y-75999495D01*
X158450742Y-76020586D01*
X158450601Y-76044984D01*
X158452985Y-76073154D01*
X158446674Y-76093190D01*
X158423168Y-76106580D01*
X158374100Y-76115897D01*
X158291100Y-76123718D01*
X158165800Y-76132617D01*
X158158141Y-76133159D01*
X158057109Y-76142746D01*
X157970969Y-76154953D01*
X157917647Y-76167276D01*
X157913273Y-76168926D01*
X157886958Y-76182597D01*
X157886745Y-76200532D01*
X157679038Y-76200532D01*
X157678379Y-76195630D01*
X157665532Y-76172709D01*
X157624466Y-76119430D01*
X157574938Y-76063596D01*
X157484464Y-75934978D01*
X157395326Y-75778591D01*
X157315144Y-75608356D01*
X157251538Y-75438194D01*
X157227925Y-75354462D01*
X157188904Y-75136621D01*
X157173747Y-74904254D01*
X157177016Y-74814833D01*
X157309447Y-74814833D01*
X157319814Y-75087745D01*
X157365565Y-75361800D01*
X157370179Y-75379530D01*
X157378400Y-75399900D01*
X157381259Y-75404889D01*
X157390120Y-75439742D01*
X157413024Y-75509677D01*
X157457339Y-75607971D01*
X157515221Y-75719015D01*
X157579006Y-75828121D01*
X157641030Y-75920600D01*
X157695452Y-75993029D01*
X157743435Y-76054628D01*
X157772133Y-76088754D01*
X157776593Y-76091938D01*
X157808774Y-76091840D01*
X157868518Y-76070486D01*
X157960862Y-76025772D01*
X158090841Y-75955596D01*
X158117088Y-75941045D01*
X158229861Y-75879906D01*
X158306930Y-75841664D01*
X158354956Y-75823712D01*
X158380598Y-75823440D01*
X158390516Y-75838241D01*
X158396895Y-75861959D01*
X158415993Y-75900357D01*
X158419977Y-75901637D01*
X158461142Y-75895501D01*
X158538112Y-75875269D01*
X158641715Y-75843521D01*
X158762778Y-75802835D01*
X158797598Y-75790683D01*
X158916227Y-75749564D01*
X159015588Y-75715547D01*
X159086129Y-75691884D01*
X159118300Y-75681826D01*
X159180401Y-75664291D01*
X159236222Y-75640707D01*
X159259833Y-75620438D01*
X159259908Y-75619206D01*
X159260576Y-75583336D01*
X159261471Y-75504261D01*
X159262537Y-75388599D01*
X159263716Y-75242969D01*
X159264950Y-75073990D01*
X159266183Y-74888281D01*
X159270700Y-74173463D01*
X159143700Y-74129242D01*
X159100941Y-74114042D01*
X159010559Y-74080276D01*
X158940500Y-74052088D01*
X158939669Y-74051729D01*
X158876700Y-74025901D01*
X158785854Y-73990179D01*
X158686500Y-73952184D01*
X158585062Y-73913887D01*
X158489072Y-73877495D01*
X158419800Y-73851072D01*
X158376079Y-73834272D01*
X158201698Y-73767276D01*
X158067480Y-73716545D01*
X157967326Y-73680829D01*
X157895137Y-73658879D01*
X157844813Y-73649447D01*
X157810256Y-73651283D01*
X157785367Y-73663139D01*
X157764045Y-73683765D01*
X157740193Y-73711913D01*
X157643174Y-73840660D01*
X157542906Y-74003408D01*
X157454038Y-74176175D01*
X157387893Y-74338810D01*
X157334196Y-74555402D01*
X157309447Y-74814833D01*
X157177016Y-74814833D01*
X157182226Y-74672321D01*
X157214116Y-74455783D01*
X157269191Y-74269600D01*
X157275922Y-74251642D01*
X157290713Y-74202312D01*
X157290803Y-74201898D01*
X157313222Y-74141580D01*
X157357561Y-74052323D01*
X157416758Y-73946730D01*
X157483749Y-73837407D01*
X157551471Y-73736959D01*
X157670222Y-73571100D01*
X157670223Y-73565665D01*
X157886400Y-73565665D01*
X157897184Y-73572507D01*
X157947782Y-73595225D01*
X158032680Y-73630174D01*
X158143971Y-73674125D01*
X158273750Y-73723849D01*
X158317014Y-73740211D01*
X158483433Y-73803364D01*
X158656628Y-73869367D01*
X158818491Y-73931309D01*
X158950914Y-73982279D01*
X159064201Y-74023909D01*
X159160582Y-74054888D01*
X159227277Y-74071115D01*
X159255714Y-74070119D01*
X159259748Y-74053183D01*
X159264545Y-73992670D01*
X159267090Y-73901292D01*
X159266898Y-73791185D01*
X159266518Y-73756497D01*
X159268666Y-73631978D01*
X159277211Y-73556014D01*
X159292298Y-73527082D01*
X159313998Y-73524293D01*
X159379397Y-73521261D01*
X159474824Y-73519503D01*
X159588200Y-73519334D01*
X159854900Y-73520983D01*
X159867600Y-74105151D01*
X159869086Y-74173463D01*
X159880300Y-74689318D01*
X160346247Y-74689009D01*
X160488670Y-74688305D01*
X160621497Y-74686403D01*
X160728786Y-74683535D01*
X160802117Y-74679930D01*
X160833070Y-74675815D01*
X160842383Y-74658016D01*
X160841690Y-74598644D01*
X160825381Y-74509315D01*
X160796255Y-74400093D01*
X160757113Y-74281041D01*
X160710754Y-74162222D01*
X160659979Y-74053700D01*
X160627512Y-73995180D01*
X160495760Y-73803697D01*
X160328876Y-73613910D01*
X160137215Y-73438014D01*
X160081617Y-73398585D01*
X159970996Y-73335753D01*
X159837437Y-73271708D01*
X159696264Y-73213634D01*
X159562800Y-73168715D01*
X159531060Y-73159717D01*
X159422335Y-73133026D01*
X159321919Y-73117779D01*
X159210183Y-73111759D01*
X159067500Y-73112747D01*
X159026538Y-73113737D01*
X158893241Y-73118573D01*
X158790739Y-73126690D01*
X158703101Y-73140401D01*
X158614398Y-73162017D01*
X158508700Y-73193851D01*
X158459834Y-73211666D01*
X158365123Y-73254220D01*
X158258725Y-73308977D01*
X158150210Y-73370219D01*
X158049150Y-73432228D01*
X157965114Y-73489284D01*
X157907674Y-73535669D01*
X157886400Y-73565665D01*
X157670223Y-73565665D01*
X157670430Y-72731851D01*
X157736901Y-72731851D01*
X157737293Y-73505503D01*
X157868997Y-73398315D01*
X157871270Y-73396468D01*
X158124229Y-73222970D01*
X158397676Y-73093809D01*
X158686113Y-73009696D01*
X158984038Y-72971345D01*
X159285951Y-72979465D01*
X159586352Y-73034771D01*
X159879741Y-73137975D01*
X160116974Y-73267983D01*
X160338746Y-73438347D01*
X160537341Y-73640644D01*
X160705855Y-73866810D01*
X160837381Y-74108783D01*
X160925014Y-74358500D01*
X160948684Y-74455057D01*
X160964418Y-74528583D01*
X160976526Y-74599800D01*
X160985471Y-74658016D01*
X160990185Y-74688700D01*
X162768926Y-74688700D01*
X162972724Y-74688668D01*
X163292551Y-74688433D01*
X163566922Y-74687904D01*
X163799240Y-74687011D01*
X163992910Y-74685681D01*
X164151336Y-74683841D01*
X164277922Y-74681418D01*
X164376073Y-74678341D01*
X164449192Y-74674537D01*
X164500684Y-74669933D01*
X164533953Y-74664457D01*
X164552402Y-74658037D01*
X164559437Y-74650600D01*
X164574175Y-74608517D01*
X164630693Y-74512631D01*
X164712359Y-74452095D01*
X164795200Y-74412591D01*
X164795200Y-73880785D01*
X164795193Y-73856203D01*
X164794466Y-73679769D01*
X164792335Y-73548479D01*
X164788484Y-73457297D01*
X164782596Y-73401186D01*
X164774357Y-73375109D01*
X164763450Y-73374029D01*
X164713747Y-73412434D01*
X164466654Y-73577899D01*
X164215606Y-73701501D01*
X163948001Y-73789665D01*
X163848530Y-73811581D01*
X163743086Y-73824825D01*
X163619532Y-73829592D01*
X163461700Y-73827127D01*
X163422818Y-73825882D01*
X163283540Y-73820299D01*
X163177607Y-73812310D01*
X163090877Y-73799239D01*
X163009210Y-73778410D01*
X162918463Y-73747148D01*
X162804496Y-73702777D01*
X162587485Y-73600718D01*
X162329646Y-73431562D01*
X162103430Y-73224826D01*
X161912759Y-72984231D01*
X161761556Y-72713498D01*
X161729017Y-72636795D01*
X161662002Y-72434134D01*
X161616139Y-72225829D01*
X161596889Y-72034400D01*
X161596411Y-72014044D01*
X161725847Y-72014044D01*
X161732767Y-72091550D01*
X161745586Y-72189091D01*
X161810987Y-72472083D01*
X161917406Y-72728984D01*
X162067948Y-72966191D01*
X162265715Y-73190100D01*
X162461743Y-73358809D01*
X162678043Y-73500639D01*
X162901440Y-73607505D01*
X163120270Y-73672820D01*
X163154460Y-73677902D01*
X163240883Y-73686054D01*
X163352731Y-73693255D01*
X163474400Y-73698378D01*
X163549096Y-73699428D01*
X163795147Y-73682217D01*
X164027218Y-73629891D01*
X164257475Y-73538977D01*
X164498082Y-73406000D01*
X164569235Y-73359216D01*
X164626238Y-73316493D01*
X164652118Y-73290029D01*
X164652187Y-73288732D01*
X164627388Y-73269331D01*
X164562274Y-73235462D01*
X164463278Y-73190092D01*
X164336829Y-73136184D01*
X164189358Y-73076702D01*
X164037894Y-73017020D01*
X163875243Y-72952687D01*
X163723889Y-72892591D01*
X163595830Y-72841497D01*
X163503069Y-72804171D01*
X163455697Y-72785380D01*
X163368403Y-72753293D01*
X163305478Y-72733676D01*
X163278123Y-72730210D01*
X163274965Y-72741419D01*
X163270156Y-72794334D01*
X163266753Y-72879566D01*
X163265346Y-72985362D01*
X163264883Y-73228200D01*
X162666933Y-73228200D01*
X162666191Y-72663050D01*
X162666088Y-72594761D01*
X162665731Y-72429928D01*
X162665260Y-72281642D01*
X162664770Y-72171303D01*
X163268342Y-72171303D01*
X163268564Y-72321868D01*
X163269381Y-72438559D01*
X163270911Y-72525692D01*
X163273268Y-72587581D01*
X163276569Y-72628542D01*
X163280929Y-72652890D01*
X163286465Y-72664938D01*
X163293292Y-72669003D01*
X163301527Y-72669400D01*
X163312166Y-72670837D01*
X163339711Y-72678432D01*
X163385737Y-72693948D01*
X163454344Y-72718941D01*
X163549635Y-72754967D01*
X163675709Y-72803582D01*
X163836668Y-72866342D01*
X164036613Y-72944803D01*
X164279645Y-73040521D01*
X164391024Y-73083939D01*
X164515968Y-73131346D01*
X164619047Y-73169000D01*
X164691837Y-73193839D01*
X164725914Y-73202800D01*
X164762064Y-73188457D01*
X164821129Y-73135444D01*
X164890753Y-73051430D01*
X164965394Y-72944970D01*
X165039510Y-72824620D01*
X165107562Y-72698934D01*
X165164007Y-72576467D01*
X165203305Y-72465774D01*
X165205562Y-72457786D01*
X165242456Y-72317532D01*
X165265288Y-72201777D01*
X165277477Y-72088481D01*
X165282441Y-71955601D01*
X165282703Y-71917388D01*
X165257587Y-71616209D01*
X165184673Y-71330256D01*
X165064898Y-71062322D01*
X164899202Y-70815200D01*
X164835344Y-70737222D01*
X164783848Y-70684240D01*
X164742298Y-70661046D01*
X164699896Y-70661927D01*
X164645844Y-70681171D01*
X164634777Y-70685736D01*
X164566128Y-70711767D01*
X164517189Y-70726838D01*
X164514886Y-70727356D01*
X164466738Y-70741093D01*
X164386250Y-70766384D01*
X164287736Y-70798503D01*
X164185512Y-70832725D01*
X164093892Y-70864326D01*
X164027191Y-70888579D01*
X163993009Y-70903723D01*
X163970777Y-70931280D01*
X163982112Y-70979541D01*
X163992395Y-71010062D01*
X163988659Y-71037985D01*
X163950022Y-71044246D01*
X163905527Y-71045422D01*
X163783255Y-71053080D01*
X163643935Y-71065901D01*
X163510167Y-71081655D01*
X163404550Y-71098108D01*
X163271200Y-71123601D01*
X163270021Y-71496450D01*
X163269223Y-71751295D01*
X163268601Y-71982551D01*
X163268342Y-72171303D01*
X162664770Y-72171303D01*
X162664713Y-72158467D01*
X162664123Y-72068965D01*
X162663527Y-72021700D01*
X162661606Y-71945500D01*
X162248853Y-71949728D01*
X162160031Y-71950672D01*
X162023521Y-71952263D01*
X161907454Y-71953785D01*
X161821946Y-71955102D01*
X161777118Y-71956078D01*
X161749235Y-71958922D01*
X161729942Y-71974096D01*
X161725847Y-72014044D01*
X161596411Y-72014044D01*
X161594800Y-71945500D01*
X159696150Y-71949093D01*
X159687537Y-71949109D01*
X159381393Y-71949725D01*
X159089889Y-71950381D01*
X158817041Y-71951062D01*
X158566868Y-71951756D01*
X158343388Y-71952450D01*
X158150619Y-71953129D01*
X157992578Y-71953781D01*
X157873283Y-71954393D01*
X157796753Y-71954951D01*
X157767005Y-71955443D01*
X157759408Y-71964623D01*
X157751795Y-72001076D01*
X157745928Y-72068924D01*
X157741655Y-72172047D01*
X157738827Y-72314323D01*
X157737292Y-72499631D01*
X157736901Y-72731851D01*
X157670430Y-72731851D01*
X157670638Y-71894700D01*
X161500118Y-71882000D01*
X161716555Y-71882000D01*
X162661600Y-71882000D01*
X162662519Y-71799450D01*
X162662659Y-71783045D01*
X162663055Y-71713885D01*
X162663541Y-71606354D01*
X162664083Y-71469003D01*
X162664646Y-71310384D01*
X162665196Y-71139050D01*
X162666955Y-70561200D01*
X163271200Y-70561200D01*
X163271200Y-70814571D01*
X163270879Y-70874010D01*
X163271135Y-70959952D01*
X163277952Y-71015636D01*
X163297774Y-71042248D01*
X163337043Y-71040974D01*
X163402204Y-71012998D01*
X163499700Y-70959507D01*
X163635973Y-70881687D01*
X163673086Y-70860750D01*
X163782411Y-70801904D01*
X163856828Y-70768625D01*
X163902433Y-70759364D01*
X163925325Y-70772577D01*
X163931600Y-70806716D01*
X163935980Y-70824986D01*
X163963350Y-70834474D01*
X163968918Y-70832525D01*
X164015883Y-70816787D01*
X164098518Y-70789496D01*
X164207036Y-70753877D01*
X164331650Y-70713153D01*
X164373305Y-70699423D01*
X164489261Y-70659536D01*
X164582867Y-70624866D01*
X164645416Y-70598742D01*
X164668200Y-70584493D01*
X164666013Y-70577271D01*
X164632768Y-70541586D01*
X164567134Y-70491646D01*
X164478972Y-70434023D01*
X164378140Y-70375292D01*
X164274500Y-70322025D01*
X164072266Y-70240254D01*
X163782808Y-70168883D01*
X163487567Y-70146614D01*
X163191643Y-70173714D01*
X162900138Y-70250448D01*
X162896837Y-70251619D01*
X162645479Y-70367127D01*
X162411422Y-70525825D01*
X162201642Y-70721227D01*
X162023116Y-70946847D01*
X161882820Y-71196200D01*
X161875064Y-71213238D01*
X161822800Y-71339618D01*
X161784841Y-71460612D01*
X161756184Y-71594947D01*
X161731824Y-71761350D01*
X161716555Y-71882000D01*
X161500118Y-71882000D01*
X161594800Y-71881686D01*
X161596744Y-71799293D01*
X161601031Y-71728271D01*
X161609273Y-71666100D01*
X161619359Y-71612720D01*
X161631688Y-71539100D01*
X161680073Y-71339565D01*
X161776729Y-71106299D01*
X161911304Y-70877908D01*
X162077643Y-70663294D01*
X162269588Y-70471362D01*
X162480982Y-70311013D01*
X162541875Y-70274248D01*
X162669782Y-70207422D01*
X162808030Y-70145129D01*
X162938963Y-70095072D01*
X163044929Y-70064954D01*
X163104160Y-70053036D01*
X163182300Y-70037265D01*
X163305728Y-70019971D01*
X163509901Y-70014177D01*
X163735770Y-70029850D01*
X163969312Y-70066470D01*
X164052205Y-70089109D01*
X164158133Y-70127634D01*
X164274057Y-70176619D01*
X164390394Y-70231319D01*
X164497559Y-70286992D01*
X164585971Y-70338894D01*
X164646046Y-70382281D01*
X164668200Y-70412410D01*
X164669630Y-70419179D01*
X164696971Y-70434200D01*
X164729195Y-70448829D01*
X164773171Y-70488886D01*
X164773342Y-70489083D01*
X164787159Y-70503523D01*
X164797982Y-70507879D01*
X164806176Y-70497060D01*
X164812107Y-70465978D01*
X164816139Y-70409543D01*
X164818639Y-70322666D01*
X164819972Y-70200257D01*
X164820504Y-70037227D01*
X164820600Y-69828486D01*
X164820601Y-69820426D01*
X164821079Y-69604846D01*
X164822602Y-69435236D01*
X164825383Y-69306930D01*
X164829636Y-69215260D01*
X164835575Y-69155560D01*
X164843413Y-69123162D01*
X164853364Y-69113400D01*
X164855347Y-69113715D01*
X164864735Y-69127276D01*
X164872156Y-69164176D01*
X164877815Y-69228992D01*
X164881919Y-69326300D01*
X164884674Y-69460674D01*
X164886287Y-69636692D01*
X164886962Y-69858929D01*
X164887048Y-69931886D01*
X164887450Y-70131024D01*
X164888385Y-70287078D01*
X164890277Y-70405908D01*
X164893554Y-70493374D01*
X164898642Y-70555339D01*
X164903688Y-70584493D01*
X164905966Y-70597661D01*
X164915954Y-70626201D01*
X164929032Y-70646820D01*
X164945625Y-70665379D01*
X164978067Y-70702127D01*
X165049497Y-70796654D01*
X165123072Y-70908461D01*
X165192201Y-71026013D01*
X165250292Y-71137776D01*
X165290755Y-71232216D01*
X165307000Y-71297800D01*
X165309951Y-71306769D01*
X165332947Y-71341137D01*
X165342723Y-71358032D01*
X165341988Y-71398287D01*
X165337348Y-71408848D01*
X165348268Y-71424800D01*
X165356599Y-71426980D01*
X165372359Y-71456550D01*
X165374934Y-71481272D01*
X165384170Y-71546565D01*
X165397522Y-71630362D01*
X165410034Y-71729964D01*
X165416234Y-71917388D01*
X165416978Y-71939909D01*
X165403186Y-72162818D01*
G37*
X165403186Y-72162818D02*
X165369461Y-72377300D01*
X165346887Y-72463906D01*
X165278778Y-72647581D01*
X165185871Y-72838246D01*
X165077091Y-73018548D01*
X164961358Y-73171130D01*
X164860815Y-73286121D01*
X164860809Y-73288732D01*
X164859758Y-73796910D01*
X164859717Y-73821292D01*
X164859799Y-73880785D01*
X164859934Y-73978804D01*
X164860919Y-74120232D01*
X164862556Y-74236898D01*
X164864728Y-74320122D01*
X164867319Y-74361227D01*
X164867865Y-74364059D01*
X164899749Y-74413020D01*
X164963914Y-74456707D01*
X165027652Y-74500107D01*
X165094996Y-74593680D01*
X165138100Y-74688700D01*
X166113883Y-74688700D01*
X166367636Y-74689034D01*
X166582526Y-74690158D01*
X166754235Y-74692196D01*
X166886625Y-74695273D01*
X166983559Y-74699512D01*
X167048899Y-74705038D01*
X167086509Y-74711976D01*
X167100250Y-74720450D01*
X167100424Y-74722576D01*
X167088177Y-74730537D01*
X167052091Y-74737032D01*
X166988316Y-74742186D01*
X166893001Y-74746123D01*
X166762293Y-74748969D01*
X166592343Y-74750847D01*
X166379299Y-74751882D01*
X166119309Y-74752200D01*
X165127784Y-74752200D01*
X165087343Y-74837422D01*
X165028867Y-74918171D01*
X164941596Y-74971920D01*
X164841386Y-74989154D01*
X164739660Y-74970159D01*
X164647840Y-74915221D01*
X164577350Y-74824628D01*
X164539896Y-74752200D01*
X162767337Y-74752200D01*
X160994778Y-74752199D01*
X160994912Y-74834750D01*
X160994953Y-74860150D01*
X160994627Y-74894261D01*
X160987922Y-75024241D01*
X160974180Y-75154948D01*
X160955534Y-75269206D01*
X160934118Y-75349842D01*
X160933213Y-75352232D01*
X160914082Y-75407781D01*
X160907147Y-75438000D01*
X160900166Y-75478584D01*
X160875343Y-75551896D01*
X160838170Y-75643237D01*
X160794284Y-75738795D01*
X160749320Y-75824757D01*
X160719440Y-75875419D01*
X160541749Y-76120993D01*
X160333622Y-76330029D01*
X160100091Y-76501508D01*
X159846188Y-76634408D01*
X159576943Y-76727707D01*
X159297389Y-76780385D01*
X159012558Y-76791421D01*
X158727481Y-76759793D01*
X158447190Y-76684481D01*
X158176716Y-76564463D01*
X157921092Y-76398717D01*
X157759400Y-76274788D01*
X157759400Y-77151794D01*
X157759149Y-77361885D01*
X157758122Y-77564444D01*
X157756154Y-77724124D01*
X157753085Y-77845195D01*
X157748755Y-77931928D01*
X157743005Y-77988592D01*
X157735674Y-78019459D01*
X157726604Y-78028800D01*
X157717978Y-78020350D01*
X157710718Y-77990840D01*
X157705081Y-77936009D01*
X157700925Y-77851612D01*
X157698104Y-77733404D01*
X157696475Y-77577137D01*
X157695894Y-77378568D01*
X157696216Y-77133450D01*
X157696285Y-76951849D01*
X157695354Y-76754689D01*
X157693447Y-76577851D01*
X157690680Y-76427431D01*
X157687169Y-76309524D01*
X157683030Y-76230225D01*
X157679038Y-76200532D01*
X157886745Y-76200532D01*
X157917571Y-76231344D01*
X157984376Y-76283648D01*
X158055694Y-76334763D01*
X158211592Y-76430205D01*
X158377018Y-76514021D01*
X158536308Y-76578648D01*
X158673800Y-76616525D01*
X158715759Y-76625128D01*
X158737300Y-76632029D01*
X158745933Y-76634229D01*
X158791923Y-76640080D01*
X158864300Y-76647113D01*
X158906674Y-76651103D01*
X158984409Y-76659930D01*
X159034280Y-76667634D01*
X159057164Y-76671492D01*
X159085080Y-76670389D01*
X159110142Y-76665164D01*
X159172539Y-76657217D01*
X159258000Y-76648508D01*
X159328966Y-76641617D01*
X159440429Y-76627475D01*
X159531859Y-76608590D01*
X159623609Y-76580245D01*
X159736030Y-76537723D01*
X159979176Y-76419178D01*
X160217677Y-76251342D01*
X160424720Y-76047883D01*
X160596114Y-75813715D01*
X160727667Y-75553750D01*
X160815187Y-75272900D01*
X160816372Y-75267527D01*
X160846028Y-75111598D01*
X160859923Y-74976044D01*
X160860774Y-74834750D01*
X160858200Y-74752200D01*
X159867600Y-74752200D01*
X159867600Y-76195159D01*
X159569150Y-76191229D01*
X159270700Y-76187300D01*
X159268555Y-75958700D01*
X159267319Y-75873946D01*
X159263570Y-75796910D01*
X159255482Y-75754291D01*
X159240922Y-75736677D01*
X159217755Y-75734658D01*
X159204954Y-75737042D01*
X159146157Y-75752962D01*
X159053557Y-75781058D01*
X158936967Y-75818299D01*
X158806201Y-75861658D01*
X158763199Y-75876194D01*
X158635862Y-75920060D01*
X158547931Y-75952832D01*
X158492423Y-75978110D01*
X158462355Y-75999495D01*
X158450742Y-76020586D01*
X158450601Y-76044984D01*
X158452985Y-76073154D01*
X158446674Y-76093190D01*
X158423168Y-76106580D01*
X158374100Y-76115897D01*
X158291100Y-76123718D01*
X158165800Y-76132617D01*
X158158141Y-76133159D01*
X158057109Y-76142746D01*
X157970969Y-76154953D01*
X157917647Y-76167276D01*
X157913273Y-76168926D01*
X157886958Y-76182597D01*
X157886745Y-76200532D01*
X157679038Y-76200532D01*
X157678379Y-76195630D01*
X157665532Y-76172709D01*
X157624466Y-76119430D01*
X157574938Y-76063596D01*
X157484464Y-75934978D01*
X157395326Y-75778591D01*
X157315144Y-75608356D01*
X157251538Y-75438194D01*
X157227925Y-75354462D01*
X157188904Y-75136621D01*
X157173747Y-74904254D01*
X157177016Y-74814833D01*
X157309447Y-74814833D01*
X157319814Y-75087745D01*
X157365565Y-75361800D01*
X157370179Y-75379530D01*
X157378400Y-75399900D01*
X157381259Y-75404889D01*
X157390120Y-75439742D01*
X157413024Y-75509677D01*
X157457339Y-75607971D01*
X157515221Y-75719015D01*
X157579006Y-75828121D01*
X157641030Y-75920600D01*
X157695452Y-75993029D01*
X157743435Y-76054628D01*
X157772133Y-76088754D01*
X157776593Y-76091938D01*
X157808774Y-76091840D01*
X157868518Y-76070486D01*
X157960862Y-76025772D01*
X158090841Y-75955596D01*
X158117088Y-75941045D01*
X158229861Y-75879906D01*
X158306930Y-75841664D01*
X158354956Y-75823712D01*
X158380598Y-75823440D01*
X158390516Y-75838241D01*
X158396895Y-75861959D01*
X158415993Y-75900357D01*
X158419977Y-75901637D01*
X158461142Y-75895501D01*
X158538112Y-75875269D01*
X158641715Y-75843521D01*
X158762778Y-75802835D01*
X158797598Y-75790683D01*
X158916227Y-75749564D01*
X159015588Y-75715547D01*
X159086129Y-75691884D01*
X159118300Y-75681826D01*
X159180401Y-75664291D01*
X159236222Y-75640707D01*
X159259833Y-75620438D01*
X159259908Y-75619206D01*
X159260576Y-75583336D01*
X159261471Y-75504261D01*
X159262537Y-75388599D01*
X159263716Y-75242969D01*
X159264950Y-75073990D01*
X159266183Y-74888281D01*
X159270700Y-74173463D01*
X159143700Y-74129242D01*
X159100941Y-74114042D01*
X159010559Y-74080276D01*
X158940500Y-74052088D01*
X158939669Y-74051729D01*
X158876700Y-74025901D01*
X158785854Y-73990179D01*
X158686500Y-73952184D01*
X158585062Y-73913887D01*
X158489072Y-73877495D01*
X158419800Y-73851072D01*
X158376079Y-73834272D01*
X158201698Y-73767276D01*
X158067480Y-73716545D01*
X157967326Y-73680829D01*
X157895137Y-73658879D01*
X157844813Y-73649447D01*
X157810256Y-73651283D01*
X157785367Y-73663139D01*
X157764045Y-73683765D01*
X157740193Y-73711913D01*
X157643174Y-73840660D01*
X157542906Y-74003408D01*
X157454038Y-74176175D01*
X157387893Y-74338810D01*
X157334196Y-74555402D01*
X157309447Y-74814833D01*
X157177016Y-74814833D01*
X157182226Y-74672321D01*
X157214116Y-74455783D01*
X157269191Y-74269600D01*
X157275922Y-74251642D01*
X157290713Y-74202312D01*
X157290803Y-74201898D01*
X157313222Y-74141580D01*
X157357561Y-74052323D01*
X157416758Y-73946730D01*
X157483749Y-73837407D01*
X157551471Y-73736959D01*
X157670222Y-73571100D01*
X157670223Y-73565665D01*
X157886400Y-73565665D01*
X157897184Y-73572507D01*
X157947782Y-73595225D01*
X158032680Y-73630174D01*
X158143971Y-73674125D01*
X158273750Y-73723849D01*
X158317014Y-73740211D01*
X158483433Y-73803364D01*
X158656628Y-73869367D01*
X158818491Y-73931309D01*
X158950914Y-73982279D01*
X159064201Y-74023909D01*
X159160582Y-74054888D01*
X159227277Y-74071115D01*
X159255714Y-74070119D01*
X159259748Y-74053183D01*
X159264545Y-73992670D01*
X159267090Y-73901292D01*
X159266898Y-73791185D01*
X159266518Y-73756497D01*
X159268666Y-73631978D01*
X159277211Y-73556014D01*
X159292298Y-73527082D01*
X159313998Y-73524293D01*
X159379397Y-73521261D01*
X159474824Y-73519503D01*
X159588200Y-73519334D01*
X159854900Y-73520983D01*
X159867600Y-74105151D01*
X159869086Y-74173463D01*
X159880300Y-74689318D01*
X160346247Y-74689009D01*
X160488670Y-74688305D01*
X160621497Y-74686403D01*
X160728786Y-74683535D01*
X160802117Y-74679930D01*
X160833070Y-74675815D01*
X160842383Y-74658016D01*
X160841690Y-74598644D01*
X160825381Y-74509315D01*
X160796255Y-74400093D01*
X160757113Y-74281041D01*
X160710754Y-74162222D01*
X160659979Y-74053700D01*
X160627512Y-73995180D01*
X160495760Y-73803697D01*
X160328876Y-73613910D01*
X160137215Y-73438014D01*
X160081617Y-73398585D01*
X159970996Y-73335753D01*
X159837437Y-73271708D01*
X159696264Y-73213634D01*
X159562800Y-73168715D01*
X159531060Y-73159717D01*
X159422335Y-73133026D01*
X159321919Y-73117779D01*
X159210183Y-73111759D01*
X159067500Y-73112747D01*
X159026538Y-73113737D01*
X158893241Y-73118573D01*
X158790739Y-73126690D01*
X158703101Y-73140401D01*
X158614398Y-73162017D01*
X158508700Y-73193851D01*
X158459834Y-73211666D01*
X158365123Y-73254220D01*
X158258725Y-73308977D01*
X158150210Y-73370219D01*
X158049150Y-73432228D01*
X157965114Y-73489284D01*
X157907674Y-73535669D01*
X157886400Y-73565665D01*
X157670223Y-73565665D01*
X157670430Y-72731851D01*
X157736901Y-72731851D01*
X157737293Y-73505503D01*
X157868997Y-73398315D01*
X157871270Y-73396468D01*
X158124229Y-73222970D01*
X158397676Y-73093809D01*
X158686113Y-73009696D01*
X158984038Y-72971345D01*
X159285951Y-72979465D01*
X159586352Y-73034771D01*
X159879741Y-73137975D01*
X160116974Y-73267983D01*
X160338746Y-73438347D01*
X160537341Y-73640644D01*
X160705855Y-73866810D01*
X160837381Y-74108783D01*
X160925014Y-74358500D01*
X160948684Y-74455057D01*
X160964418Y-74528583D01*
X160976526Y-74599800D01*
X160985471Y-74658016D01*
X160990185Y-74688700D01*
X162768926Y-74688700D01*
X162972724Y-74688668D01*
X163292551Y-74688433D01*
X163566922Y-74687904D01*
X163799240Y-74687011D01*
X163992910Y-74685681D01*
X164151336Y-74683841D01*
X164277922Y-74681418D01*
X164376073Y-74678341D01*
X164449192Y-74674537D01*
X164500684Y-74669933D01*
X164533953Y-74664457D01*
X164552402Y-74658037D01*
X164559437Y-74650600D01*
X164574175Y-74608517D01*
X164630693Y-74512631D01*
X164712359Y-74452095D01*
X164795200Y-74412591D01*
X164795200Y-73880785D01*
X164795193Y-73856203D01*
X164794466Y-73679769D01*
X164792335Y-73548479D01*
X164788484Y-73457297D01*
X164782596Y-73401186D01*
X164774357Y-73375109D01*
X164763450Y-73374029D01*
X164713747Y-73412434D01*
X164466654Y-73577899D01*
X164215606Y-73701501D01*
X163948001Y-73789665D01*
X163848530Y-73811581D01*
X163743086Y-73824825D01*
X163619532Y-73829592D01*
X163461700Y-73827127D01*
X163422818Y-73825882D01*
X163283540Y-73820299D01*
X163177607Y-73812310D01*
X163090877Y-73799239D01*
X163009210Y-73778410D01*
X162918463Y-73747148D01*
X162804496Y-73702777D01*
X162587485Y-73600718D01*
X162329646Y-73431562D01*
X162103430Y-73224826D01*
X161912759Y-72984231D01*
X161761556Y-72713498D01*
X161729017Y-72636795D01*
X161662002Y-72434134D01*
X161616139Y-72225829D01*
X161596889Y-72034400D01*
X161596411Y-72014044D01*
X161725847Y-72014044D01*
X161732767Y-72091550D01*
X161745586Y-72189091D01*
X161810987Y-72472083D01*
X161917406Y-72728984D01*
X162067948Y-72966191D01*
X162265715Y-73190100D01*
X162461743Y-73358809D01*
X162678043Y-73500639D01*
X162901440Y-73607505D01*
X163120270Y-73672820D01*
X163154460Y-73677902D01*
X163240883Y-73686054D01*
X163352731Y-73693255D01*
X163474400Y-73698378D01*
X163549096Y-73699428D01*
X163795147Y-73682217D01*
X164027218Y-73629891D01*
X164257475Y-73538977D01*
X164498082Y-73406000D01*
X164569235Y-73359216D01*
X164626238Y-73316493D01*
X164652118Y-73290029D01*
X164652187Y-73288732D01*
X164627388Y-73269331D01*
X164562274Y-73235462D01*
X164463278Y-73190092D01*
X164336829Y-73136184D01*
X164189358Y-73076702D01*
X164037894Y-73017020D01*
X163875243Y-72952687D01*
X163723889Y-72892591D01*
X163595830Y-72841497D01*
X163503069Y-72804171D01*
X163455697Y-72785380D01*
X163368403Y-72753293D01*
X163305478Y-72733676D01*
X163278123Y-72730210D01*
X163274965Y-72741419D01*
X163270156Y-72794334D01*
X163266753Y-72879566D01*
X163265346Y-72985362D01*
X163264883Y-73228200D01*
X162666933Y-73228200D01*
X162666191Y-72663050D01*
X162666088Y-72594761D01*
X162665731Y-72429928D01*
X162665260Y-72281642D01*
X162664770Y-72171303D01*
X163268342Y-72171303D01*
X163268564Y-72321868D01*
X163269381Y-72438559D01*
X163270911Y-72525692D01*
X163273268Y-72587581D01*
X163276569Y-72628542D01*
X163280929Y-72652890D01*
X163286465Y-72664938D01*
X163293292Y-72669003D01*
X163301527Y-72669400D01*
X163312166Y-72670837D01*
X163339711Y-72678432D01*
X163385737Y-72693948D01*
X163454344Y-72718941D01*
X163549635Y-72754967D01*
X163675709Y-72803582D01*
X163836668Y-72866342D01*
X164036613Y-72944803D01*
X164279645Y-73040521D01*
X164391024Y-73083939D01*
X164515968Y-73131346D01*
X164619047Y-73169000D01*
X164691837Y-73193839D01*
X164725914Y-73202800D01*
X164762064Y-73188457D01*
X164821129Y-73135444D01*
X164890753Y-73051430D01*
X164965394Y-72944970D01*
X165039510Y-72824620D01*
X165107562Y-72698934D01*
X165164007Y-72576467D01*
X165203305Y-72465774D01*
X165205562Y-72457786D01*
X165242456Y-72317532D01*
X165265288Y-72201777D01*
X165277477Y-72088481D01*
X165282441Y-71955601D01*
X165282703Y-71917388D01*
X165257587Y-71616209D01*
X165184673Y-71330256D01*
X165064898Y-71062322D01*
X164899202Y-70815200D01*
X164835344Y-70737222D01*
X164783848Y-70684240D01*
X164742298Y-70661046D01*
X164699896Y-70661927D01*
X164645844Y-70681171D01*
X164634777Y-70685736D01*
X164566128Y-70711767D01*
X164517189Y-70726838D01*
X164514886Y-70727356D01*
X164466738Y-70741093D01*
X164386250Y-70766384D01*
X164287736Y-70798503D01*
X164185512Y-70832725D01*
X164093892Y-70864326D01*
X164027191Y-70888579D01*
X163993009Y-70903723D01*
X163970777Y-70931280D01*
X163982112Y-70979541D01*
X163992395Y-71010062D01*
X163988659Y-71037985D01*
X163950022Y-71044246D01*
X163905527Y-71045422D01*
X163783255Y-71053080D01*
X163643935Y-71065901D01*
X163510167Y-71081655D01*
X163404550Y-71098108D01*
X163271200Y-71123601D01*
X163270021Y-71496450D01*
X163269223Y-71751295D01*
X163268601Y-71982551D01*
X163268342Y-72171303D01*
X162664770Y-72171303D01*
X162664713Y-72158467D01*
X162664123Y-72068965D01*
X162663527Y-72021700D01*
X162661606Y-71945500D01*
X162248853Y-71949728D01*
X162160031Y-71950672D01*
X162023521Y-71952263D01*
X161907454Y-71953785D01*
X161821946Y-71955102D01*
X161777118Y-71956078D01*
X161749235Y-71958922D01*
X161729942Y-71974096D01*
X161725847Y-72014044D01*
X161596411Y-72014044D01*
X161594800Y-71945500D01*
X159696150Y-71949093D01*
X159687537Y-71949109D01*
X159381393Y-71949725D01*
X159089889Y-71950381D01*
X158817041Y-71951062D01*
X158566868Y-71951756D01*
X158343388Y-71952450D01*
X158150619Y-71953129D01*
X157992578Y-71953781D01*
X157873283Y-71954393D01*
X157796753Y-71954951D01*
X157767005Y-71955443D01*
X157759408Y-71964623D01*
X157751795Y-72001076D01*
X157745928Y-72068924D01*
X157741655Y-72172047D01*
X157738827Y-72314323D01*
X157737292Y-72499631D01*
X157736901Y-72731851D01*
X157670430Y-72731851D01*
X157670638Y-71894700D01*
X161500118Y-71882000D01*
X161716555Y-71882000D01*
X162661600Y-71882000D01*
X162662519Y-71799450D01*
X162662659Y-71783045D01*
X162663055Y-71713885D01*
X162663541Y-71606354D01*
X162664083Y-71469003D01*
X162664646Y-71310384D01*
X162665196Y-71139050D01*
X162666955Y-70561200D01*
X163271200Y-70561200D01*
X163271200Y-70814571D01*
X163270879Y-70874010D01*
X163271135Y-70959952D01*
X163277952Y-71015636D01*
X163297774Y-71042248D01*
X163337043Y-71040974D01*
X163402204Y-71012998D01*
X163499700Y-70959507D01*
X163635973Y-70881687D01*
X163673086Y-70860750D01*
X163782411Y-70801904D01*
X163856828Y-70768625D01*
X163902433Y-70759364D01*
X163925325Y-70772577D01*
X163931600Y-70806716D01*
X163935980Y-70824986D01*
X163963350Y-70834474D01*
X163968918Y-70832525D01*
X164015883Y-70816787D01*
X164098518Y-70789496D01*
X164207036Y-70753877D01*
X164331650Y-70713153D01*
X164373305Y-70699423D01*
X164489261Y-70659536D01*
X164582867Y-70624866D01*
X164645416Y-70598742D01*
X164668200Y-70584493D01*
X164666013Y-70577271D01*
X164632768Y-70541586D01*
X164567134Y-70491646D01*
X164478972Y-70434023D01*
X164378140Y-70375292D01*
X164274500Y-70322025D01*
X164072266Y-70240254D01*
X163782808Y-70168883D01*
X163487567Y-70146614D01*
X163191643Y-70173714D01*
X162900138Y-70250448D01*
X162896837Y-70251619D01*
X162645479Y-70367127D01*
X162411422Y-70525825D01*
X162201642Y-70721227D01*
X162023116Y-70946847D01*
X161882820Y-71196200D01*
X161875064Y-71213238D01*
X161822800Y-71339618D01*
X161784841Y-71460612D01*
X161756184Y-71594947D01*
X161731824Y-71761350D01*
X161716555Y-71882000D01*
X161500118Y-71882000D01*
X161594800Y-71881686D01*
X161596744Y-71799293D01*
X161601031Y-71728271D01*
X161609273Y-71666100D01*
X161619359Y-71612720D01*
X161631688Y-71539100D01*
X161680073Y-71339565D01*
X161776729Y-71106299D01*
X161911304Y-70877908D01*
X162077643Y-70663294D01*
X162269588Y-70471362D01*
X162480982Y-70311013D01*
X162541875Y-70274248D01*
X162669782Y-70207422D01*
X162808030Y-70145129D01*
X162938963Y-70095072D01*
X163044929Y-70064954D01*
X163104160Y-70053036D01*
X163182300Y-70037265D01*
X163305728Y-70019971D01*
X163509901Y-70014177D01*
X163735770Y-70029850D01*
X163969312Y-70066470D01*
X164052205Y-70089109D01*
X164158133Y-70127634D01*
X164274057Y-70176619D01*
X164390394Y-70231319D01*
X164497559Y-70286992D01*
X164585971Y-70338894D01*
X164646046Y-70382281D01*
X164668200Y-70412410D01*
X164669630Y-70419179D01*
X164696971Y-70434200D01*
X164729195Y-70448829D01*
X164773171Y-70488886D01*
X164773342Y-70489083D01*
X164787159Y-70503523D01*
X164797982Y-70507879D01*
X164806176Y-70497060D01*
X164812107Y-70465978D01*
X164816139Y-70409543D01*
X164818639Y-70322666D01*
X164819972Y-70200257D01*
X164820504Y-70037227D01*
X164820600Y-69828486D01*
X164820601Y-69820426D01*
X164821079Y-69604846D01*
X164822602Y-69435236D01*
X164825383Y-69306930D01*
X164829636Y-69215260D01*
X164835575Y-69155560D01*
X164843413Y-69123162D01*
X164853364Y-69113400D01*
X164855347Y-69113715D01*
X164864735Y-69127276D01*
X164872156Y-69164176D01*
X164877815Y-69228992D01*
X164881919Y-69326300D01*
X164884674Y-69460674D01*
X164886287Y-69636692D01*
X164886962Y-69858929D01*
X164887048Y-69931886D01*
X164887450Y-70131024D01*
X164888385Y-70287078D01*
X164890277Y-70405908D01*
X164893554Y-70493374D01*
X164898642Y-70555339D01*
X164903688Y-70584493D01*
X164905966Y-70597661D01*
X164915954Y-70626201D01*
X164929032Y-70646820D01*
X164945625Y-70665379D01*
X164978067Y-70702127D01*
X165049497Y-70796654D01*
X165123072Y-70908461D01*
X165192201Y-71026013D01*
X165250292Y-71137776D01*
X165290755Y-71232216D01*
X165307000Y-71297800D01*
X165309951Y-71306769D01*
X165332947Y-71341137D01*
X165342723Y-71358032D01*
X165341988Y-71398287D01*
X165337348Y-71408848D01*
X165348268Y-71424800D01*
X165356599Y-71426980D01*
X165372359Y-71456550D01*
X165374934Y-71481272D01*
X165384170Y-71546565D01*
X165397522Y-71630362D01*
X165410034Y-71729964D01*
X165416234Y-71917388D01*
X165416978Y-71939909D01*
X165403186Y-72162818D01*
%LPC*%
D11*
X167640000Y-90170000D03*
X170140000Y-90170000D03*
D12*
X133350000Y-104140000D03*
D13*
X140970000Y-104140000D03*
D11*
X182880000Y-100330000D03*
D13*
X172720000Y-100330000D03*
D12*
X168900000Y-93980000D03*
D13*
X176520000Y-93980000D03*
D14*
X112110000Y-91410000D03*
D15*
X112110000Y-96490000D03*
X112110000Y-101570000D03*
X112110000Y-106650000D03*
D16*
X182880000Y-110490000D03*
D17*
X182880000Y-112990000D03*
X182880000Y-115490000D03*
X182880000Y-117990000D03*
X182880000Y-120490000D03*
D11*
X182880000Y-105410000D03*
D13*
X172720000Y-105410000D03*
D12*
X145900000Y-92710000D03*
D13*
X145900000Y-85090000D03*
D12*
X161400000Y-105410000D03*
D11*
X158900000Y-105410000D03*
D18*
X134620000Y-87195000D03*
D19*
X137160000Y-87195000D03*
X139700000Y-87195000D03*
D11*
X175220000Y-90170000D03*
X172720000Y-90170000D03*
D20*
X172720000Y-81280000D03*
X161290000Y-81280000D03*
X184150000Y-81280000D03*
D21*
X101170000Y-102870000D03*
D17*
X101170000Y-100370000D03*
X101170000Y-97870000D03*
X101170000Y-95370000D03*
D11*
X132080000Y-90170000D03*
X134580000Y-90170000D03*
D12*
X161290000Y-115570000D03*
D11*
X158790000Y-115570000D03*
D12*
X128270000Y-105410000D03*
D13*
X128270000Y-113030000D03*
D15*
X99060000Y-68720500D03*
X193040000Y-68580000D03*
D22*
X167640000Y-105410000D03*
D23*
X170180000Y-105410000D03*
D11*
X139700000Y-107950000D03*
X137200000Y-107950000D03*
D15*
X193040000Y-129540000D03*
D11*
X139700000Y-90170000D03*
X137200000Y-90170000D03*
D18*
X139700000Y-110998000D03*
D19*
X137160000Y-110998000D03*
X134620000Y-110998000D03*
D24*
X109220000Y-124340000D03*
D25*
X109220000Y-116840000D03*
D20*
X137160000Y-81280000D03*
X125730000Y-81280000D03*
X148590000Y-81280000D03*
D22*
X167640000Y-100330000D03*
D23*
X170180000Y-100330000D03*
D12*
X158690000Y-125730000D03*
D11*
X161190000Y-125730000D03*
D15*
X99060000Y-129540000D03*
D18*
X170180000Y-87155000D03*
D19*
X172720000Y-87155000D03*
X175260000Y-87155000D03*
D24*
X109220000Y-81280000D03*
D25*
X109220000Y-73780000D03*
D20*
X137160000Y-116840000D03*
X148590000Y-116840000D03*
X125730000Y-116840000D03*
D11*
X182880000Y-125730000D03*
D13*
X172720000Y-125730000D03*
D12*
X133350000Y-93830000D03*
D13*
X140970000Y-93830000D03*
D22*
X167640000Y-125730000D03*
D23*
X170180000Y-125730000D03*
D11*
X132080000Y-107950000D03*
X134580000Y-107950000D03*
M02*
